<svg class="main-svg" xmlns="http://www.w3.org/2000/svg" xmlns:xlink="http://www.w3.org/1999/xlink" width="800" height="600" style="" viewBox="0 0 800 600"><rect x="0" y="0" width="800" height="600" style="fill: rgb(255, 255, 255); fill-opacity: 1;"/><defs id="defs-fa3e7b"><g class="clips"><clipPath id="clipfa3e7bxyplot" class="plotclip"><rect width="599" height="294"/></clipPath><clipPath id="clipfa3e7bxy2plot" class="plotclip"><rect width="599" height="63"/></clipPath><clipPath class="axesclip" id="clipfa3e7bx"><rect x="80" y="0" width="599" height="600"/></clipPath><clipPath class="axesclip" id="clipfa3e7by"><rect x="0" y="100" width="800" height="294"/></clipPath><clipPath class="axesclip" id="clipfa3e7bxy"><rect x="80" y="100" width="599" height="294"/></clipPath><clipPath class="axesclip" id="clipfa3e7by2"><rect x="0" y="457" width="800" height="63"/></clipPath><clipPath class="axesclip" id="clipfa3e7bxy2"><rect x="80" y="457" width="599" height="63"/></clipPath></g><g class="gradients"/></defs><g class="bglayer"/><g class="layer-below"><g class="imagelayer"/><g class="shapelayer"/></g><g class="cartesianlayer"><g class="subplot xy"><g class="layer-subplot"><g class="shapelayer"/><g class="imagelayer"/></g><g class="gridlayer"><g class="x"><path class="xgrid crisp" d="M0,100v294" transform="translate(168.74,0)" style="stroke: rgb(238, 238, 238); stroke-opacity: 1; stroke-width: 1px;"/><path class="xgrid crisp" d="M0,100v294" transform="translate(279.66999999999996,0)" style="stroke: rgb(238, 238, 238); stroke-opacity: 1; stroke-width: 1px;"/><path class="xgrid crisp" d="M0,100v294" transform="translate(390.59,0)" style="stroke: rgb(238, 238, 238); stroke-opacity: 1; stroke-width: 1px;"/><path class="xgrid crisp" d="M0,100v294" transform="translate(501.52,0)" style="stroke: rgb(238, 238, 238); stroke-opacity: 1; stroke-width: 1px;"/><path class="xgrid crisp" d="M0,100v294" transform="translate(612.44,0)" style="stroke: rgb(238, 238, 238); stroke-opacity: 1; stroke-width: 1px;"/></g><g class="y"><path class="ygrid crisp" d="M80,0h599" transform="translate(0,357.25)" style="stroke: rgb(238, 238, 238); stroke-opacity: 1; stroke-width: 1px;"/><path class="ygrid crisp" d="M80,0h599" transform="translate(0,320.5)" style="stroke: rgb(238, 238, 238); stroke-opacity: 1; stroke-width: 1px;"/><path class="ygrid crisp" d="M80,0h599" transform="translate(0,283.75)" style="stroke: rgb(238, 238, 238); stroke-opacity: 1; stroke-width: 1px;"/><path class="ygrid crisp" d="M80,0h599" transform="translate(0,247)" style="stroke: rgb(238, 238, 238); stroke-opacity: 1; stroke-width: 1px;"/><path class="ygrid crisp" d="M80,0h599" transform="translate(0,210.25)" style="stroke: rgb(238, 238, 238); stroke-opacity: 1; stroke-width: 1px;"/><path class="ygrid crisp" d="M80,0h599" transform="translate(0,173.5)" style="stroke: rgb(238, 238, 238); stroke-opacity: 1; stroke-width: 1px;"/><path class="ygrid crisp" d="M80,0h599" transform="translate(0,136.75)" style="stroke: rgb(238, 238, 238); stroke-opacity: 1; stroke-width: 1px;"/></g></g><g class="zerolinelayer"/><path class="xlines-below"/><path class="ylines-below"/><g class="overlines-below"/><g class="xaxislayer-below"/><g class="yaxislayer-below"/><g class="overaxes-below"/><g class="plot" transform="translate(80, 100)" clip-path="url(#clipfa3e7bxyplot)"><g class="scatterlayer mlayer"><g class="trace scatter trace7d2225f3-bf64-4d3b-8122-1c8b94950aa3" style="stroke-miterlimit: 2; opacity: 1;"><g class="fills"/><g class="errorbars"/><g class="lines"><path class="js-line" d="M-1797,477.75L-143.09,473.22L-141.99,469.43L-93.18,437.95L-92.07,437.23L-76.54,428.56L-75.43,421.99L-16.64,344.59L-15.53,343.07L-9.98,335.49L-8.87,327.51L3.33,301.41L4.44,299.82L28.84,251.25L29.95,249.9L35.5,240.84L36.61,239.73L39.93,235.32L41.04,234.47L44.37,230.79L45.48,230.18L48.81,227.24L49.92,226.87L52.14,225.59L53.24,225.46L56.57,223.99L57.68,217.65L67.66,210.53L68.77,210.39L72.1,208.87L73.21,208.98L75.43,208.64L76.54,208.2L78.76,208.11L79.87,207.79L82.09,207.14L83.19,207.62L86.52,207.02L87.63,207.62L90.96,207.39L92.07,208.11L95.4,208.24L96.51,209.09L98.72,209.42L99.83,210.39L103.16,211.26L104.27,212.35L108.71,214L109.82,215.21L116.47,219.22L117.58,219.88L122.02,223.31L123.13,224.09L124.24,218.4L125.35,218.19L126.46,217.98L127.56,218.56L129.78,218.37L130.89,219.08L135.33,219.2L136.44,220.03L139.77,220.49L140.88,221.44L147.53,223.09L148.64,224.16L165.28,230.13L166.39,229.74L174.15,231.67L175.26,231.14L189.68,233.14L190.79,226.82L207.43,215.11L208.54,214.38L236.27,196.39L237.38,194.88L241.82,192.3L242.93,191.59L251.8,186.62L252.91,186.03L255.13,185.63L256.24,185.15L257.35,178.21L258.46,177.54L264,171.84L265.11,171.41L269.55,168.04L270.66,167.86L275.1,165.35L276.21,165.41L279.53,164.37L280.64,163.88L282.86,163.69L283.97,163.33L286.19,163.51L287.3,163.26L288.41,163.02L289.52,163.57L292.84,163.2L293.95,163.88L315.03,163.88L316.14,163.08L322.79,162.35L323.9,155.75L328.34,150.36L329.45,149.12L344.98,132.8L346.09,131.68L378.26,100.18L379.37,99.19L383.8,96.13L384.91,95.25L388.24,94.47L389.35,93.84L390.46,87.54L391.57,86.04L394.9,83.38L396.01,82.12L398.22,80.41L399.33,80.07L403.77,76.95L404.88,76.86L409.32,74.59L410.43,73.95L415.97,71.53L417.08,71.01L445.92,58.27L447.03,57.87L455.91,54.68L457.01,47.82L459.23,45.95L460.34,44.68L463.67,41.78L464.78,41.43L468.11,39.27L469.22,39.16L478.09,39.1L479.2,39.73L481.42,39.64L482.53,40.39L483.64,40.47L484.75,41.34L486.96,41.74L488.07,42.73L501.39,46.59L502.49,46.12L506.93,46.91L508.04,46.32L522.46,47.31L523.57,40.92L529.12,35.4L530.23,34.36L537.99,27.99L539.1,27.08L543.54,24.32L544.65,24.32L546.86,23.77L547.97,23.22L553.52,24.75L554.63,25.48L555.74,25.54L556.85,26.4L557.96,26.58L559.07,27.56L569.05,30.32L570.16,29.83L572.38,30.2L573.49,29.59L575.71,29.71L576.81,28.97L577.92,28.91L579.03,28.05L581.25,27.69L582.36,26.71L583.47,26.4L584.58,25.3L589.02,22.79L590.13,15.77L597.89,3.65L599,1.99L618.97,-27.08L620.08,-27.71L626.73,-30.06L627.84,-29.96L633.39,-27.58L634.5,-26.74L640.04,-23.57L641.15,-23.16L650.03,-20.89L651.14,-21.4L653.35,-21.86L654.46,-22.61L655.57,-22.68L656.68,-29.23L702.16,-103.92L703.27,-104.44L708.82,-104.29L709.93,-103.16L722.13,-95.35L723.24,-101.3L748.75,-135.49L749.86,-137.19L796.45,-205.64L797.56,-205.71L808.65,-199.58L809.76,-198.29L855.24,-141.64L857.46,-145.24L858.57,-144.65L874.1,-131.81L875.21,-130.05L891.84,-108.54L892.95,-106.29L915.14,-66.78L916.25,-63.92L989.46,68.08L990.57,70.16L1032.72,136.44L1033.83,137.78L1056.01,155L1057.12,154.93L1075.98,157.87L1077.09,157.2L1101.49,150.4L1102.6,150.03L1122.57,136.5L1123.68,134.72L1138.1,96.38L1139.21,92.52L1171.38,-51.54L1172.49,-56.68L1216.86,-223.53L1217.97,-224.63L1237.93,-248.76L1239.04,-249.19L1259.01,-257.25L1260.12,-257.25L1318.91,-247.66L1320.02,-247.17L1379.92,-188.61L1381.03,-187.14L1465.33,-56.44L1466.44,-54.23L1503.05,2.98L1505.26,1.32L1506.37,0.65L1530.78,-33.41L1531.89,-35.12L1631.72,-179.3L1632.83,-178.75L1651.69,-194.86L1652.8,-196.88L1697.17,-257.25L1698.28,-257.25L1729.34,-243.94L1730.44,-242.16L1752.63,-240.45L1753.74,-240.81L1788.13,-252.08L1789.24,-251.17L1809.2,-224.28L1810.31,-221.64L1833.61,-209.21L1834.71,-209.88L1835.82,-209.88L1892.4,-221.89L1893.51,-221.89L1925.67,-220.23L1926.78,-222.13L1963.39,-257.25L1964.5,-257.25L2144.2,-237.78L2145.31,-236.43L2189.68,-125.14L2190.79,-121.71L2244.03,-1.84L2245.14,-1.78L2289.51,-6.01L2290.62,-6.38L2334.99,-55.07L2336.1,-56.54L2442.59,-137.88L2443.7,-138.61L2536.88,-189.15L2537.99,-187.25L2586.79,-170.95L2587.9,-170.71L2626.73,-115.83L2627.84,-113.38L2688.84,-28L2689.95,-26.53L2736.54,-7.78L2737.65,-9.07L2828.61,-113.81L2829.72,-116.44L2932.88,-257.25L2933.99,-257.25L3046.03,-228.48L3047.14,-225.72L3148.08,-88.03L3149.19,-86.44L3300.05,70.67L3301.16,71.4L3465.33,136.69L3466.44,136.94L3650.57,137.79L3651.68,137.79L3793.67,119.3" style="vector-effect: non-scaling-stroke; fill: none; stroke: rgb(255, 127, 14); stroke-opacity: 1; stroke-width: 2px; opacity: 1;"/></g><g class="points"/><g class="text"/></g><g class="trace scatter tracea9b1c9fd-e763-4e3f-8e5a-7d89614be850" style="stroke-miterlimit: 2;"><g class="fills"><g><path class="js-fill" d="M-1797,477.75L-139.77,472.61L-138.66,466.73L-129.78,462.32L-128.67,459.38L-119.8,455.7L-118.69,453.5L-109.82,449.82L-108.71,448.35L-99.83,443.94L-98.72,441.74L-93.18,439.53L-92.07,437.33L-86.52,435.12L-85.41,432.92L-76.54,429.98L-75.43,427.77L-73.21,427.77L-72.1,417.48L-69.88,417.48L-68.77,413.07L-63.23,410.13L-62.12,405.72L-59.9,405.72L-58.79,401.31L-56.57,401.31L-55.46,396.9L-53.24,396.9L-52.14,393.23L-49.92,393.23L-48.81,388.08L-46.59,388.08L-45.48,382.94L-43.26,382.94L-42.15,378.53L-39.93,378.53L-38.82,375.59L-36.61,375.59L-35.5,371.18L-33.28,371.18L-32.17,366.77L-29.95,366.77L-28.84,361.62L-26.62,361.62L-25.51,357.21L-23.29,357.21L-22.19,352.8L-19.97,352.8L-18.86,347.66L-16.64,347.66L-15.53,343.25L-13.31,343.25L-12.2,338.84L-9.98,338.84L-8.87,334.42L-6.66,334.42L-5.55,320.46L-3.33,320.46L-2.22,314.58L0,314.58L1.11,307.23L3.33,307.23L4.44,299.88L6.66,299.88L7.76,294L9.98,294L11.09,287.39L13.31,287.39L14.42,280.03L16.64,280.03L17.75,273.42L19.97,273.42L21.08,266.81L23.29,266.81L24.4,260.19L26.62,260.19L27.73,254.31L29.95,254.31L31.06,249.17L33.28,249.17L34.39,244.02L35.5,244.02L36.61,239.61L39.93,239.61L41.04,235.2L43.26,235.2L44.37,232.26L46.59,232.26L47.7,229.32L49.92,229.32L51.03,227.85L53.24,227.85L54.35,226.38L59.9,225.65L61.01,216.83L63.23,216.83L64.34,214.62L66.56,214.62L67.66,213.15L69.88,213.15L70.99,211.68L79.87,210.95L80.98,210.21L93.18,210.21L94.29,211.68L99.83,212.42L100.94,214.62L106.49,215.36L107.6,216.83L109.82,216.83L110.93,219.77L113.14,219.77L114.25,221.24L116.47,221.24L117.58,223.44L119.8,223.44L120.91,225.65L123.13,225.65L124.24,228.58L126.46,228.58L127.56,221.97L133.11,222.71L134.22,223.44L136.44,223.44L137.55,224.91L143.09,224.91L144.2,226.38L146.42,226.38L147.53,227.85L149.75,227.85L150.86,229.32L153.08,229.32L154.19,230.79L159.73,231.52L160.84,232.99L163.06,232.99L164.17,234.46L173.04,235.2L174.15,235.94L186.36,236.67L187.46,237.41L193.01,237.41L194.12,229.32L196.34,229.32L197.45,226.38L199.67,226.38L200.78,224.18L202.99,224.18L204.1,221.24L206.32,221.24L207.43,219.77L209.65,219.77L210.76,217.56L212.98,217.56L214.09,216.09L216.31,216.09L217.41,213.89L219.63,213.89L220.74,211.68L222.96,211.68L224.07,209.48L226.29,209.48L227.4,207.27L229.62,207.27L230.73,205.07L232.94,205.07L234.05,202.86L236.27,202.86L237.38,200.65L239.6,200.65L240.71,197.71L242.93,197.71L244.04,196.25L246.26,196.25L247.36,194.04L249.58,194.04L250.69,191.83L252.91,191.83L254.02,190.37L259.57,189.63L260.68,180.81L262.89,180.81L264,177.87L266.22,177.87L267.33,174.93L269.55,174.93L270.66,172.73L272.88,172.73L273.99,171.26L279.53,170.52L280.64,169.79L316.14,170.52L317.25,169.05L326.12,168.32L327.23,159.5L329.45,159.5L330.56,154.35L332.78,154.35L333.89,150.68L336.11,150.68L337.21,147L339.43,147L340.54,143.32L342.76,143.32L343.87,141.12L346.09,141.12L347.2,137.45L349.42,137.45L350.53,134.51L352.74,134.51L353.85,130.83L356.07,130.83L357.18,127.16L359.4,127.16L360.51,124.22L362.73,124.22L363.84,120.54L366.06,120.54L367.16,117.6L369.38,117.6L370.49,113.93L372.71,113.93L373.82,110.99L374.93,110.99L376.04,107.31L379.37,107.31L380.48,105.11L382.69,105.11L383.8,102.9L386.02,102.9L387.13,101.43L392.68,100.7L393.79,91.88L396.01,91.88L397.11,88.94L399.33,88.94L400.44,87.46L402.66,87.46L403.77,85.26L405.99,85.26L407.1,83.79L409.32,83.79L410.43,82.32L412.64,82.32L413.75,80.85L419.3,80.11L420.41,78.64L422.63,78.64L423.74,76.44L425.96,76.44L427.06,74.97L429.28,74.97L430.39,73.5L432.61,73.5L433.72,72.03L435.94,72.03L437.05,70.56L439.27,70.56L440.38,69.09L442.59,69.09L443.7,67.62L449.25,66.88L450.36,65.41L455.91,64.68L457.01,63.21L459.23,63.21L460.34,54.39L462.56,54.39L463.67,51.45L465.89,51.45L467,49.25L479.2,48.51L480.31,49.98L482.53,49.98L483.64,51.45L489.18,52.19L490.29,54.39L495.84,55.13L496.95,55.86L499.17,55.86L500.28,57.33L519.13,57.33L520.24,58.07L525.79,58.07L526.9,49.25L529.12,49.25L530.23,45.57L532.44,45.57L533.55,41.9L535.77,41.9L536.88,38.96L539.1,38.96L540.21,36.75L542.43,36.75L543.54,35.28L545.76,35.28L546.86,33.81L552.41,34.55L553.52,35.28L555.74,35.28L556.85,36.75L559.07,36.75L560.18,38.96L562.39,38.96L563.5,40.43L569.05,41.16L570.16,41.9L579.03,41.16L580.14,38.96L582.36,38.96L583.47,37.49L585.69,37.49L586.8,35.28L589.02,35.28L590.13,33.07L592.34,33.07L593.45,22.79L595.67,22.79L596.78,16.9L599,16.9L600.11,11.76L602.33,11.76L603.44,6.62L605.66,6.62L606.76,0.73L608.98,0.73L610.09,-4.41L612.31,-4.41L613.42,-8.82L615.64,-8.82L616.75,-13.97L618.97,-13.97L620.08,-16.91L625.62,-17.64L626.73,-18.38L632.28,-17.64L633.39,-15.44L635.61,-15.44L636.71,-12.5L638.93,-12.5L640.04,-11.03L642.26,-11.03L643.37,-9.56L645.59,-9.56L646.7,-8.09L655.57,-8.09L656.68,-10.29L658.9,-10.29L660.01,-20.58L662.23,-20.58L663.34,-26.46L664.45,-26.46L665.56,-31.6L668.88,-31.6L669.99,-37.49L672.21,-37.49L673.32,-43.37L675.54,-43.37L676.65,-49.98L678.87,-49.98L679.98,-56.6L682.19,-56.6L683.3,-63.21L685.52,-63.21L686.63,-69.09L688.85,-69.09L689.96,-75.71L692.18,-75.71L693.29,-81.59L695.51,-81.59L696.61,-86.73L698.83,-86.73L699.94,-90.4L712.14,-91.14L713.25,-88.2L715.47,-88.2L716.58,-84.52L722.13,-82.32L723.24,-80.85L725.46,-80.85L726.56,-88.94L728.78,-88.94L729.89,-93.35L732.11,-93.35L733.22,-97.02L735.44,-97.02L736.55,-102.17L738.77,-102.17L739.88,-106.58L742.09,-106.58L743.2,-111.72L745.42,-111.72L746.53,-116.86L748.75,-116.86L749.86,-122.74L752.08,-122.74L753.19,-127.89L755.41,-127.89L756.51,-134.5L758.73,-134.5L759.84,-139.65L762.06,-139.65L763.17,-146.26L764.28,-146.26L765.39,-152.14L768.72,-152.14L769.83,-158.02L772.04,-158.02L773.15,-164.64L775.37,-164.64L776.48,-171.25L782.03,-176.4L783.14,-180.08L792.01,-183.01L793.12,-190.36L808.65,-185.96L809.76,-182.28L815.31,-178.6L816.41,-174.2L821.96,-170.52L823.07,-166.11L828.62,-162.43L829.73,-157.29L835.27,-153.61L836.38,-149.21L841.93,-145.53L843.04,-141.12L845.26,-141.12L846.36,-135.98L848.58,-135.98L849.69,-131.56L851.91,-131.56L853.02,-127.15L855.24,-127.15L856.35,-122.74L865.22,-124.95L866.33,-122.01L871.88,-118.34L872.99,-114.66L878.53,-110.99L879.64,-107.31L881.86,-107.31L882.97,-102.9L885.19,-102.9L886.3,-98.49L887.41,-98.49L888.52,-93.35L895.17,-88.94L896.28,-83.79L898.5,-83.79L899.61,-77.91L901.83,-77.91L902.94,-72.76L905.16,-72.76L906.26,-66.15L908.48,-66.15L909.59,-59.53L911.81,-59.53L912.92,-52.92L915.14,-52.92L916.25,-47.04L918.47,-47.04L919.58,-39.69L921.79,-39.69L922.9,-33.07L928.45,-28.66L929.56,-22.79L931.78,-22.79L932.89,-16.91L935.11,-16.91L936.21,-11.03L938.43,-11.03L939.54,-5.15L941.76,-5.15L942.87,0.73L945.09,0.73L946.2,7.35L948.42,7.35L949.53,13.23L951.74,13.23L952.85,19.11L955.07,19.11L956.18,24.99L958.4,24.99L959.51,30.87L961.73,30.87L962.84,36.75L965.06,36.75L966.16,42.63L968.38,42.63L969.49,48.51L971.71,48.51L972.82,54.39L975.04,54.39L976.15,61.01L978.37,61.01L979.48,67.62L981.69,67.62L982.8,73.5L985.02,73.5L986.13,80.11L988.35,80.11L989.46,86L991.68,86L992.79,91.88L995.01,91.88L996.11,98.49L998.33,98.49L999.44,104.37L1001.66,104.37L1002.77,110.99L1008.32,116.13L1009.43,122.01L1014.97,127.89L1016.08,132.3L1021.63,138.18L1022.74,142.59L1028.28,146.26L1029.39,149.94L1034.94,154.35L1036.05,158.02L1044.92,163.17L1046.03,166.85L1058.23,171.99L1059.34,173.46L1098.17,169.79L1099.28,167.58L1118.13,160.97L1119.24,157.29L1124.79,152.88L1125.9,147.74L1128.12,147.74L1129.23,139.65L1131.44,139.65L1132.55,130.83L1134.77,130.83L1135.88,120.54L1138.1,120.54L1139.21,108.05L1141.43,108.05L1142.54,95.55L1144.76,95.55L1145.86,82.32L1148.08,82.32L1149.19,67.62L1151.41,67.62L1152.52,51.45L1154.74,51.45L1155.85,36.02L1158.07,36.02L1159.18,20.58L1161.39,20.58L1162.5,3.68L1164.72,3.68L1165.83,-11.76L1168.05,-11.76L1169.16,-27.2L1171.38,-27.2L1172.49,-42.63L1174.71,-42.63L1175.81,-58.06L1178.03,-58.06L1179.14,-72.76L1181.36,-72.76L1182.47,-87.47L1184.69,-87.47L1185.8,-102.9L1188.02,-102.9L1189.13,-117.6L1191.34,-117.6L1192.45,-133.03L1194.67,-133.03L1195.78,-147.74L1198,-147.74L1199.11,-161.7L1201.33,-161.7L1202.44,-174.2L1204.66,-174.2L1205.76,-185.22L1211.31,-193.31L1212.42,-201.39L1217.97,-207.27L1219.08,-211.68L1224.62,-216.82L1225.73,-221.23L1234.61,-227.85L1235.71,-231.52L1247.92,-240.35L1249.03,-244.75L1257.9,-252.1L1259.01,-255.78L1321.13,-247.69L1322.24,-246.23L1337.77,-236.67L1338.88,-234.47L1351.08,-225.64L1352.19,-221.97L1361.06,-214.62L1362.17,-210.21L1371.04,-202.12L1372.15,-197.72L1379.92,-188.89L1381.03,-184.48L1391.01,-175.66L1392.12,-171.25L1400.99,-162.43L1402.1,-158.02L1410.98,-149.21L1412.09,-144.79L1420.96,-135.98L1422.07,-131.56L1430.94,-121.27L1432.05,-116.86L1504.16,5.88L1505.26,2.94L1506.37,2.94L1590.68,-122.74L1591.79,-130.83L1626.17,-180.08L1627.28,-180.08L1649.47,-188.89L1650.58,-188.89L1674.98,-243.28L1676.09,-243.28L1693.84,-257.25L1694.95,-257.25L1730.44,-245.49L1731.55,-240.35L1753.74,-239.61L1754.85,-241.81L1789.24,-252.1L1790.34,-252.1L1806.98,-232.99L1808.09,-225.64L1833.61,-208L1834.71,-208.74L1883.52,-221.23L1884.63,-221.23L1926.78,-217.56L1927.89,-223.44L1962.28,-257.25L1963.39,-257.25L2146.42,-238.14L2147.53,-232.26L2186.35,-141.86L2187.46,-131.56L2247.36,0L2248.47,0L2292.84,-6.62L2293.95,-8.09L2332.77,-49.98L2333.88,-53.65L2401.55,-105.84L2402.66,-105.84L2468.1,-153.61L2469.21,-153.61L2529.11,-200.66L2532.44,-196.98L2533.55,-192.57L2576.81,-171.25L2577.92,-171.25L2615.63,-142.59L2616.74,-136.71L2713.25,2.2L2714.36,2.2L2758.73,-24.26L2759.84,-27.93L2815.3,-85.99L2816.41,-91.14L2933.99,-257.25L2935.1,-257.25L3048.24,-228.58L3049.35,-220.5L3136.99,-105.11L3138.09,-105.11L3259,41.9L3260.11,41.9L3410.97,116.87L3412.08,116.87L3529.66,138.91L3530.77,138.91L3793.67,119.07L3804.85,120.54L3575.23,138.91L3569.69,138.91L3323.25,90.4L3321.03,90.4L3207.89,5.14L3206.78,0.73L3121.37,-108.05L3120.26,-113.93L3017.1,-255.78L2914.11,-255.78L2839.79,-112.46L2838.68,-107.31L2781,-36.01L2779.89,-33.07L2733.3,3.68L2702.07,3.68L2671.01,-36.01L2668.79,-36.01L2612.22,-120.54L2611.11,-128.62L2532.35,-177.87L2531.24,-181.54L2521.26,-195.51L2450.44,-133.03L2448.22,-133.03L2318.44,-17.64L2317.33,-13.97L2236.18,1.47L2235.07,0L2199.57,-47.77L2198.46,-59.53L2146.33,-212.41L2145.22,-219.76L2118.6,-255.78L1955.71,-255.78L1945.73,-235.93L1944.62,-229.32L1927.98,-204.33L1900.07,-204.33L1896.74,-207.27L1895.64,-211.68L1841.46,-205.8L1813.55,-205.8L1790.26,-238.14L1789.15,-242.55L1754.94,-232.99L1730.36,-232.99L1709.28,-255.04L1707.06,-255.04L1705.95,-255.78L1669.52,-205.8L1668.41,-199.19L1648.45,-176.4L1629.59,-176.4L1566.36,-69.09L1565.25,-65.41L1545.29,-33.81L1543.07,-33.81L1515.34,7.35L1487.43,7.35L1470.79,-16.91L1469.68,-24.26L1430.86,-97.75L1429.75,-104.37L1420.87,-115.39L1419.76,-119.8L1410.89,-130.09L1409.78,-134.5L1400.91,-143.32L1399.8,-147.74L1390.92,-156.55L1389.81,-160.97L1380.94,-169.78L1379.83,-174.2L1369.85,-183.01L1368.74,-187.43L1360.97,-196.24L1359.86,-200.66L1350.99,-208.74L1349.88,-213.15L1341.01,-220.5L1339.9,-224.17L1327.69,-232.99L1326.59,-235.2L1311.06,-244.75L1309.95,-246.23L1270.19,-254.31L1269.08,-250.63L1260.21,-243.28L1259.1,-238.87L1246.9,-230.05L1245.79,-226.38L1236.91,-219.76L1235.8,-215.35L1230.26,-210.21L1229.15,-205.8L1223.6,-199.92L1222.49,-191.84L1216.95,-183.75L1215.84,-172.73L1213.62,-172.73L1212.51,-160.23L1210.29,-160.23L1209.18,-146.26L1206.96,-146.26L1205.85,-131.56L1203.64,-131.56L1202.53,-116.13L1200.31,-116.13L1199.2,-101.43L1196.98,-101.43L1195.87,-85.99L1193.65,-85.99L1192.54,-71.29L1190.32,-71.29L1189.21,-56.6L1187,-56.6L1185.89,-41.16L1183.67,-41.16L1182.56,-25.73L1180.34,-25.73L1179.23,-10.29L1177.01,-10.29L1175.9,5.14L1173.69,5.14L1172.58,22.05L1170.36,22.05L1169.25,37.49L1167.03,37.49L1165.92,52.92L1163.7,52.92L1162.59,69.09L1160.37,69.09L1159.26,83.79L1157.05,83.79L1155.94,97.02L1153.72,97.02L1152.61,109.51L1150.39,109.51L1149.28,122.01L1147.06,122.01L1145.95,132.3L1143.74,132.3L1142.63,141.12L1140.41,141.12L1139.3,149.2L1137.08,149.2L1135.97,154.35L1130.42,158.76L1129.31,162.44L1110.46,169.05L1109.35,171.26L1038.18,170.52L1037.07,168.32L1028.19,162.44L1027.09,159.5L1021.54,155.82L1020.43,151.41L1014.88,147.74L1013.77,144.06L1008.23,139.65L1007.12,133.77L1001.57,129.36L1000.46,123.48L998.24,123.48L997.14,117.6L991.59,112.45L990.48,105.84L988.26,105.84L987.15,99.96L984.93,99.96L983.82,93.34L981.61,93.34L980.5,87.46L978.28,87.46L977.17,81.58L974.95,81.58L973.84,74.97L971.62,74.97L970.51,69.09L968.29,69.09L967.19,62.48L964.97,62.48L963.86,55.86L961.64,55.86L960.53,49.98L958.31,49.98L957.2,44.1L954.98,44.1L953.87,38.22L951.66,38.22L950.55,32.34L948.33,32.34L947.22,26.46L945,26.46L943.89,20.58L941.67,20.58L940.56,14.7L938.34,14.7L937.24,8.82L935.02,8.82L933.91,2.2L931.69,2.2L930.58,-3.68L928.36,-3.68L927.25,-9.56L925.03,-9.56L923.92,-15.44L921.71,-15.44L920.6,-21.32L918.38,-21.32L917.27,-27.2L911.72,-31.6L910.61,-38.22L908.39,-38.22L907.29,-45.57L905.07,-45.57L903.96,-51.45L901.74,-51.45L900.63,-58.06L898.41,-58.06L897.3,-64.68L895.08,-64.68L893.97,-71.29L891.76,-71.29L890.65,-76.44L888.43,-76.44L887.32,-82.32L885.1,-82.32L883.99,-87.47L881.77,-87.47L880.66,-91.87L877.34,-91.87L876.23,-97.02L875.12,-97.02L874.01,-101.43L871.79,-101.43L870.68,-105.84L865.13,-109.51L864.02,-113.19L858.48,-116.86L857.37,-120.54L845.17,-121.27L844.06,-125.68L841.84,-125.68L840.73,-130.09L838.51,-130.09L837.4,-134.5L830.75,-144.06L828.53,-144.06L820.76,-155.82L818.54,-155.82L810.78,-169.05L808.56,-169.05L800.8,-180.81L798.58,-180.81L798.36,-181.54L793.21,-174.93L790.99,-174.93L783.23,-156.55L781.01,-156.55L773.24,-138.18L771.02,-138.18L763.26,-121.27L761.04,-121.27L756.6,-110.25L754.39,-110.25L749.95,-100.7L747.73,-100.7L743.29,-91.87L741.07,-91.87L736.64,-79.38L712.06,-79.38L710.95,-80.85L708.73,-80.85L707.62,-83.06L706.69,-80.12L704.47,-80.12L700.03,-67.62L697.81,-67.62L693.38,-55.12L691.16,-55.12L690.05,-48.51L687.83,-48.51L686.72,-41.89L684.5,-41.89L683.39,-36.01L681.17,-36.01L680.06,-30.13L676.74,-30.13L673.41,-19.11L671.19,-19.11L670.08,-8.82L667.86,-8.82L666.75,-6.62L635.52,-6.62L634.41,-8.09L632.19,-8.09L631.08,-9.56L628.86,-9.56L627.61,-11.03L626.82,-7.35L624.6,-7.35L623.49,-2.94L621.27,-2.94L620.16,2.2L617.95,2.2L616.84,8.08L614.62,8.08L613.51,13.23L611.29,13.23L610.18,18.38L607.96,18.38L606.85,24.25L604.64,24.25L603.53,34.55L601.31,34.55L600.2,36.75L597.98,36.75L596.87,38.96L594.65,38.96L593.54,40.43L591.32,40.43L590.21,42.63L558.98,43.37L557.87,42.63L552.32,41.9L551.21,40.43L548.06,40.43L546.95,43.37L544.74,43.37L543.63,47.04L541.41,47.04L540.3,50.72L538.08,50.72L536.97,59.54L495.75,58.8L489.09,58.8L487.99,57.33L485.77,57.33L484.66,56.6L482.44,56.6L481.33,55.86L479.11,55.86L478,53.66L475.78,53.66L474.82,53.01L473.74,55.86L471.52,55.86L470.41,64.68L468.2,64.68L467.09,66.15L461.54,66.88L460.43,68.35L454.89,69.09L453.78,70.56L451.56,70.56L450.45,72.03L448.23,72.03L447.12,73.5L444.9,73.5L443.79,74.97L441.57,74.97L440.46,76.44L438.25,76.44L437.14,77.91L434.92,77.91L433.81,80.11L431.59,80.11L430.48,81.58L424.94,82.32L423.83,83.79L421.61,83.79L420.5,85.26L418.28,85.26L417.17,86.73L414.95,86.73L413.84,88.94L411.62,88.94L410.51,90.4L408.3,90.4L407.19,93.34L404.97,93.34L403.86,102.17L398.31,102.9L397.2,104.37L394.99,104.37L393.88,106.57L391.66,106.57L390.55,108.78L387.22,108.78L386.11,112.45L385,112.45L383.89,115.39L381.67,115.39L380.56,119.07L378.35,119.07L377.24,122.01L375.02,122.01L373.91,125.69L371.69,125.69L370.58,128.63L368.36,128.63L367.25,132.3L365.04,132.3L363.93,135.97L361.71,135.97L360.6,138.91L358.38,138.91L357.27,142.59L355.05,142.59L353.94,144.8L351.72,144.8L350.61,148.47L348.4,148.47L347.29,152.14L345.07,152.14L343.96,155.82L341.74,155.82L340.63,160.97L338.41,160.97L337.3,169.79L328.43,170.52L327.32,171.99L285.17,172.73L284.06,174.2L281.84,174.2L280.73,176.4L278.51,176.4L277.4,179.34L275.19,179.34L274.08,182.28L271.86,182.28L270.75,191.1L265.2,191.83L264.09,193.31L261.87,193.31L260.76,195.51L258.55,195.51L257.44,197.71L255.22,197.71L254.11,199.19L251.89,199.19L250.78,202.13L248.56,202.13L247.45,204.33L245.24,204.33L244.13,206.54L241.91,206.54L240.8,208.74L238.58,208.74L237.47,210.95L235.25,210.95L234.14,213.15L231.92,213.15L230.81,215.36L228.6,215.36L227.49,217.56L225.27,217.56L224.16,219.03L221.94,219.03L220.83,221.24L218.61,221.24L217.5,222.71L215.29,222.71L214.18,225.65L211.96,225.65L210.85,227.85L208.63,227.85L207.52,230.79L205.3,230.79L204.19,238.88L176.28,238.88L175.17,238.14L162.97,237.41L161.86,236.67L152.99,235.94L151.88,234.46L149.66,234.46L148.55,232.99L143.01,232.26L141.9,230.79L139.68,230.79L138.57,229.32L113.06,230.05L111.95,227.11L109.73,227.11L108.62,224.91L106.4,224.91L105.29,222.71L103.07,222.71L101.96,221.24L99.74,221.24L98.64,218.3L96.42,218.3L95.31,216.83L89.76,216.09L88.65,213.89L82.17,213.15L81.06,214.62L78.85,214.62L77.74,216.09L75.52,216.09L74.41,218.3L72.19,218.3L71.08,227.11L65.54,227.85L64.43,229.32L62.21,229.32L61.1,230.79L58.88,230.79L57.77,233.73L55.55,233.73L54.44,236.67L52.22,236.67L51.11,241.08L47.79,241.08L46.68,245.49L45.57,245.49L44.46,250.64L42.24,250.64L41.13,255.78L38.91,255.78L37.8,261.66L35.59,261.66L34.48,268.27L32.26,268.27L31.15,274.89L28.93,274.89L27.82,281.51L25.6,281.51L24.49,288.86L22.27,288.86L21.16,295.47L18.95,295.47L17.84,301.35L15.62,301.35L14.51,308.7L12.29,308.7L11.18,316.05L8.96,316.05L7.85,321.93L5.64,321.93L4.53,335.9L2.31,335.9L1.2,340.31L-1.02,340.31L-2.13,344.72L-4.35,344.72L-5.46,349.13L-7.68,349.13L-8.79,354.27L-11,354.27L-12.11,358.68L-14.33,358.68L-15.44,363.09L-17.66,363.09L-18.77,368.24L-20.99,368.24L-22.1,372.65L-24.31,372.65L-25.42,377.06L-27.64,377.06L-28.75,380L-30.97,380L-32.08,384.41L-34.3,384.41L-35.41,389.55L-37.63,389.55L-38.74,394.7L-40.95,394.7L-42.06,398.37L-44.28,398.37L-45.39,402.78L-47.61,402.78L-48.72,407.19L-50.94,407.19L-52.05,411.6L-57.59,414.54L-58.7,418.95L-60.92,418.95L-62.03,429.24L-70.9,432.18L-72.01,434.39L-77.56,436.59L-78.67,438.8L-87.54,443.21L-88.65,445.41L-97.53,449.82L-98.64,451.29L-107.51,454.97L-108.62,457.17L-117.49,460.85L-118.6,463.79L-127.48,468.2L-128.59,474.08L-1808.18,479.22Z" style="fill: rgb(68, 68, 68); fill-opacity: 0.3; stroke-width: 0;"/></g></g><g class="errorbars"/><g class="lines"><path class="js-line" d="M-1808.18,479.22L-128.59,474.08L-127.48,468.2L-118.6,463.79L-117.49,460.85L-108.62,457.17L-107.51,454.97L-98.64,451.29L-97.53,449.82L-88.65,445.41L-87.54,443.21L-78.67,438.8L-77.56,436.59L-72.01,434.39L-70.9,432.18L-62.03,429.24L-60.92,418.95L-58.7,418.95L-57.59,414.54L-52.05,411.6L-50.94,407.19L-48.72,407.19L-47.61,402.78L-45.39,402.78L-44.28,398.37L-42.06,398.37L-40.95,394.7L-38.74,394.7L-37.63,389.55L-35.41,389.55L-34.3,384.41L-32.08,384.41L-30.97,380L-28.75,380L-27.64,377.06L-25.42,377.06L-24.31,372.65L-22.1,372.65L-20.99,368.24L-18.77,368.24L-17.66,363.09L-15.44,363.09L-14.33,358.68L-12.11,358.68L-11,354.27L-8.79,354.27L-7.68,349.13L-5.46,349.13L-4.35,344.72L-2.13,344.72L-1.02,340.31L1.2,340.31L2.31,335.9L4.53,335.9L5.64,321.93L7.85,321.93L8.96,316.05L11.18,316.05L12.29,308.7L14.51,308.7L15.62,301.35L17.84,301.35L18.95,295.47L21.16,295.47L22.27,288.86L24.49,288.86L25.6,281.51L27.82,281.51L28.93,274.89L31.15,274.89L32.26,268.27L34.48,268.27L35.59,261.66L37.8,261.66L38.91,255.78L41.13,255.78L42.24,250.64L44.46,250.64L45.57,245.49L46.68,245.49L47.79,241.08L51.11,241.08L52.22,236.67L54.44,236.67L55.55,233.73L57.77,233.73L58.88,230.79L61.1,230.79L62.21,229.32L64.43,229.32L65.54,227.85L71.08,227.11L72.19,218.3L74.41,218.3L75.52,216.09L77.74,216.09L78.85,214.62L81.06,214.62L82.17,213.15L88.65,213.89L89.76,216.09L95.31,216.83L96.42,218.3L98.64,218.3L99.74,221.24L101.96,221.24L103.07,222.71L105.29,222.71L106.4,224.91L108.62,224.91L109.73,227.11L111.95,227.11L113.06,230.05L138.57,229.32L139.68,230.79L141.9,230.79L143.01,232.26L148.55,232.99L149.66,234.46L151.88,234.46L152.99,235.94L161.86,236.67L162.97,237.41L175.17,238.14L176.28,238.88L204.19,238.88L205.3,230.79L207.52,230.79L208.63,227.85L210.85,227.85L211.96,225.65L214.18,225.65L215.29,222.71L217.5,222.71L218.61,221.24L220.83,221.24L221.94,219.03L224.16,219.03L225.27,217.56L227.49,217.56L228.6,215.36L230.81,215.36L231.92,213.15L234.14,213.15L235.25,210.95L237.47,210.95L238.58,208.74L240.8,208.74L241.91,206.54L244.13,206.54L245.24,204.33L247.45,204.33L248.56,202.13L250.78,202.13L251.89,199.19L254.11,199.19L255.22,197.71L257.44,197.71L258.55,195.51L260.76,195.51L261.87,193.31L264.09,193.31L265.2,191.83L270.75,191.1L271.86,182.28L274.08,182.28L275.19,179.34L277.4,179.34L278.51,176.4L280.73,176.4L281.84,174.2L284.06,174.2L285.17,172.73L327.32,171.99L328.43,170.52L337.3,169.79L338.41,160.97L340.63,160.97L341.74,155.82L343.96,155.82L345.07,152.14L347.29,152.14L348.4,148.47L350.61,148.47L351.72,144.8L353.94,144.8L355.05,142.59L357.27,142.59L358.38,138.91L360.6,138.91L361.71,135.97L363.93,135.97L365.04,132.3L367.25,132.3L368.36,128.63L370.58,128.63L371.69,125.69L373.91,125.69L375.02,122.01L377.24,122.01L378.35,119.07L380.56,119.07L381.67,115.39L383.89,115.39L385,112.45L386.11,112.45L387.22,108.78L390.55,108.78L391.66,106.57L393.88,106.57L394.99,104.37L397.2,104.37L398.31,102.9L403.86,102.17L404.97,93.34L407.19,93.34L408.3,90.4L410.51,90.4L411.62,88.94L413.84,88.94L414.95,86.73L417.17,86.73L418.28,85.26L420.5,85.26L421.61,83.79L423.83,83.79L424.94,82.32L430.48,81.58L431.59,80.11L433.81,80.11L434.92,77.91L437.14,77.91L438.25,76.44L440.46,76.44L441.57,74.97L443.79,74.97L444.9,73.5L447.12,73.5L448.23,72.03L450.45,72.03L451.56,70.56L453.78,70.56L454.89,69.09L460.43,68.35L461.54,66.88L467.09,66.15L468.2,64.68L470.41,64.68L471.52,55.86L473.74,55.86L474.82,53.01L475.78,53.66L478,53.66L479.11,55.86L481.33,55.86L482.44,56.6L484.66,56.6L485.77,57.33L487.99,57.33L489.09,58.8L495.75,58.8L536.97,59.54L538.08,50.72L540.3,50.72L541.41,47.04L543.63,47.04L544.74,43.37L546.95,43.37L548.06,40.43L551.21,40.43L552.32,41.9L557.87,42.63L558.98,43.37L590.21,42.63L591.32,40.43L593.54,40.43L594.65,38.96L596.87,38.96L597.98,36.75L600.2,36.75L601.31,34.55L603.53,34.55L604.64,24.25L606.85,24.25L607.96,18.38L610.18,18.38L611.29,13.23L613.51,13.23L614.62,8.08L616.84,8.08L617.95,2.2L620.16,2.2L621.27,-2.94L623.49,-2.94L624.6,-7.35L626.82,-7.35L627.61,-11.03L628.86,-9.56L631.08,-9.56L632.19,-8.09L634.41,-8.09L635.52,-6.62L666.75,-6.62L667.86,-8.82L670.08,-8.82L671.19,-19.11L673.41,-19.11L676.74,-30.13L680.06,-30.13L681.17,-36.01L683.39,-36.01L684.5,-41.89L686.72,-41.89L687.83,-48.51L690.05,-48.51L691.16,-55.12L693.38,-55.12L697.81,-67.62L700.03,-67.62L704.47,-80.12L706.69,-80.12L707.62,-83.06L708.73,-80.85L710.95,-80.85L712.06,-79.38L736.64,-79.38L741.07,-91.87L743.29,-91.87L747.73,-100.7L749.95,-100.7L754.39,-110.25L756.6,-110.25L761.04,-121.27L763.26,-121.27L771.02,-138.18L773.24,-138.18L781.01,-156.55L783.23,-156.55L790.99,-174.93L793.21,-174.93L798.36,-181.54L798.58,-180.81L800.8,-180.81L808.56,-169.05L810.78,-169.05L818.54,-155.82L820.76,-155.82L828.53,-144.06L830.75,-144.06L837.4,-134.5L838.51,-130.09L840.73,-130.09L841.84,-125.68L844.06,-125.68L845.17,-121.27L857.37,-120.54L858.48,-116.86L864.02,-113.19L865.13,-109.51L870.68,-105.84L871.79,-101.43L874.01,-101.43L875.12,-97.02L876.23,-97.02L877.34,-91.87L880.66,-91.87L881.77,-87.47L883.99,-87.47L885.1,-82.32L887.32,-82.32L888.43,-76.44L890.65,-76.44L891.76,-71.29L893.97,-71.29L895.08,-64.68L897.3,-64.68L898.41,-58.06L900.63,-58.06L901.74,-51.45L903.96,-51.45L905.07,-45.57L907.29,-45.57L908.39,-38.22L910.61,-38.22L911.72,-31.6L917.27,-27.2L918.38,-21.32L920.6,-21.32L921.71,-15.44L923.92,-15.44L925.03,-9.56L927.25,-9.56L928.36,-3.68L930.58,-3.68L931.69,2.2L933.91,2.2L935.02,8.82L937.24,8.82L938.34,14.7L940.56,14.7L941.67,20.58L943.89,20.58L945,26.46L947.22,26.46L948.33,32.34L950.55,32.34L951.66,38.22L953.87,38.22L954.98,44.1L957.2,44.1L958.31,49.98L960.53,49.98L961.64,55.86L963.86,55.86L964.97,62.48L967.19,62.48L968.29,69.09L970.51,69.09L971.62,74.97L973.84,74.97L974.95,81.58L977.17,81.58L978.28,87.46L980.5,87.46L981.61,93.34L983.82,93.34L984.93,99.96L987.15,99.96L988.26,105.84L990.48,105.84L991.59,112.45L997.14,117.6L998.24,123.48L1000.46,123.48L1001.57,129.36L1007.12,133.77L1008.23,139.65L1013.77,144.06L1014.88,147.74L1020.43,151.41L1021.54,155.82L1027.09,159.5L1028.19,162.44L1037.07,168.32L1038.18,170.52L1109.35,171.26L1110.46,169.05L1129.31,162.44L1130.42,158.76L1135.97,154.35L1137.08,149.2L1139.3,149.2L1140.41,141.12L1142.63,141.12L1143.74,132.3L1145.95,132.3L1147.06,122.01L1149.28,122.01L1150.39,109.51L1152.61,109.51L1153.72,97.02L1155.94,97.02L1157.05,83.79L1159.26,83.79L1160.37,69.09L1162.59,69.09L1163.7,52.92L1165.92,52.92L1167.03,37.49L1169.25,37.49L1170.36,22.05L1172.58,22.05L1173.69,5.14L1175.9,5.14L1177.01,-10.29L1179.23,-10.29L1180.34,-25.73L1182.56,-25.73L1183.67,-41.16L1185.89,-41.16L1187,-56.6L1189.21,-56.6L1190.32,-71.29L1192.54,-71.29L1193.65,-85.99L1195.87,-85.99L1196.98,-101.43L1199.2,-101.43L1200.31,-116.13L1202.53,-116.13L1203.64,-131.56L1205.85,-131.56L1206.96,-146.26L1209.18,-146.26L1210.29,-160.23L1212.51,-160.23L1213.62,-172.73L1215.84,-172.73L1216.95,-183.75L1222.49,-191.84L1223.6,-199.92L1229.15,-205.8L1230.26,-210.21L1235.8,-215.35L1236.91,-219.76L1245.79,-226.38L1246.9,-230.05L1259.1,-238.87L1260.21,-243.28L1269.08,-250.63L1270.19,-254.31L1309.95,-246.23L1311.06,-244.75L1326.59,-235.2L1327.69,-232.99L1339.9,-224.17L1341.01,-220.5L1349.88,-213.15L1350.99,-208.74L1359.86,-200.66L1360.97,-196.24L1368.74,-187.43L1369.85,-183.01L1379.83,-174.2L1380.94,-169.78L1389.81,-160.97L1390.92,-156.55L1399.8,-147.74L1400.91,-143.32L1409.78,-134.5L1410.89,-130.09L1419.76,-119.8L1420.87,-115.39L1429.75,-104.37L1430.86,-97.75L1469.68,-24.26L1470.79,-16.91L1487.43,7.35L1515.34,7.35L1543.07,-33.81L1545.29,-33.81L1565.25,-65.41L1566.36,-69.09L1629.59,-176.4L1648.45,-176.4L1668.41,-199.19L1669.52,-205.8L1705.95,-255.78L1707.06,-255.04L1709.28,-255.04L1730.36,-232.99L1754.94,-232.99L1789.15,-242.55L1790.26,-238.14L1813.55,-205.8L1841.46,-205.8L1895.64,-211.68L1896.74,-207.27L1900.07,-204.33L1927.98,-204.33L1944.62,-229.32L1945.73,-235.93L1955.71,-255.78L2118.6,-255.78L2145.22,-219.76L2146.33,-212.41L2198.46,-59.53L2199.57,-47.77L2235.07,0L2236.18,1.47L2317.33,-13.97L2318.44,-17.64L2448.22,-133.03L2450.44,-133.03L2521.26,-195.51L2531.24,-181.54L2532.35,-177.87L2611.11,-128.62L2612.22,-120.54L2668.79,-36.01L2671.01,-36.01L2702.07,3.68L2733.3,3.68L2779.89,-33.07L2781,-36.01L2838.68,-107.31L2839.79,-112.46L2914.11,-255.78L3017.1,-255.78L3120.26,-113.93L3121.37,-108.05L3206.78,0.73L3207.89,5.14L3321.03,90.4L3323.25,90.4L3569.69,138.91L3575.23,138.91L3804.85,120.54" style="vector-effect: non-scaling-stroke; fill: none; stroke: rgb(44, 160, 44); stroke-opacity: 1; stroke-width: 0px; opacity: 1;"/></g><g class="points"/><g class="text"/></g><g class="trace scatter trace1ccfea85-a3ef-40f5-b7f9-830743279fd4" style="stroke-miterlimit: 2;"><g class="fills"><g><path class="js-fill" d="M-1808.18,476.28L-150.95,471.14L-149.84,465.26L-140.96,460.85L-139.86,457.91L-130.98,454.23L-129.87,452.03L-121,448.35L-119.89,446.88L-111.01,442.47L-109.91,440.27L-104.36,438.06L-103.25,435.86L-97.7,433.65L-96.59,431.45L-87.72,428.51L-86.61,426.3L-84.39,426.3L-83.28,416.01L-81.06,416.01L-79.96,411.6L-74.41,408.66L-73.3,404.25L-71.08,404.25L-69.97,399.84L-67.75,399.84L-66.64,395.43L-64.43,395.43L-63.32,391.76L-61.1,391.76L-59.99,386.61L-57.77,386.61L-56.66,381.47L-54.44,381.47L-53.33,377.06L-51.11,377.06L-50.01,374.12L-47.79,374.12L-46.68,369.71L-44.46,369.71L-43.35,365.3L-41.13,365.3L-40.02,360.15L-37.8,360.15L-36.69,355.74L-34.48,355.74L-33.37,351.33L-31.15,351.33L-30.04,346.19L-27.82,346.19L-26.71,341.78L-24.49,341.78L-23.38,337.37L-21.16,337.37L-20.06,332.96L-17.84,332.96L-16.73,318.99L-14.51,318.99L-13.4,313.11L-11.18,313.11L-10.07,305.76L-7.85,305.76L-6.74,298.41L-4.53,298.41L-3.42,292.53L-1.2,292.53L-0.09,285.91L2.13,285.91L3.24,278.57L5.46,278.57L6.57,271.95L8.79,271.95L9.89,265.34L12.11,265.34L13.22,258.72L15.44,258.72L16.55,252.84L18.77,252.84L19.88,247.7L22.1,247.7L23.21,242.55L24.31,242.55L25.42,238.14L28.75,238.14L29.86,233.73L32.08,233.73L33.19,230.79L35.41,230.79L36.52,227.85L38.74,227.85L39.84,226.38L42.06,226.38L43.17,224.91L48.72,224.18L49.83,215.36L52.05,215.36L53.16,213.15L55.37,213.15L56.48,211.68L58.7,211.68L59.81,210.21L68.69,209.48L69.79,208.74L104.36,208.74L105.47,210.21L111.01,210.95L112.12,213.15L117.67,213.89L118.78,215.36L121,215.36L122.11,218.3L124.33,218.3L125.44,219.77L140.96,220.5L142.07,221.24L147.62,221.97L148.73,223.44L154.28,223.44L155.39,224.91L157.6,224.91L158.71,226.38L160.93,226.38L162.04,227.85L164.26,227.85L165.37,229.32L170.91,230.05L172.02,231.52L174.24,231.52L175.35,232.99L182.13,233.73L182.94,227.85L185.16,227.85L186.27,224.91L188.49,224.91L189.59,222.71L191.81,222.71L192.92,219.77L195.14,219.77L196.25,218.3L198.47,218.3L199.58,216.09L201.8,216.09L202.91,214.62L205.12,214.62L206.23,212.42L208.45,212.42L209.56,210.21L211.78,210.21L212.89,208.01L215.11,208.01L216.22,205.8L218.44,205.8L219.54,203.6L221.76,203.6L222.87,201.39L225.09,201.39L226.2,199.19L228.42,199.19L229.53,196.25L231.75,196.25L232.86,194.77L235.07,194.77L236.18,192.57L238.4,192.57L239.51,190.37L241.73,190.37L242.84,188.9L248.39,188.16L249.49,179.34L251.71,179.34L252.82,176.4L255.04,176.4L256.15,173.46L258.37,173.46L259.48,171.26L261.7,171.26L262.81,169.79L268.35,169.05L269.46,168.32L311.61,167.58L312.72,166.85L314.94,166.85L316.05,158.02L318.27,158.02L319.38,152.88L321.6,152.88L322.71,149.2L324.92,149.2L326.03,145.53L328.25,145.53L329.36,141.85L331.58,141.85L332.69,139.65L334.91,139.65L336.02,135.97L338.24,135.97L339.34,133.04L341.56,133.04L342.67,129.36L344.89,129.36L346,125.69L348.22,125.69L349.33,122.75L351.55,122.75L352.66,119.07L354.87,119.07L355.98,116.13L358.2,116.13L359.31,112.45L361.53,112.45L362.64,109.51L363.75,109.51L364.86,105.84L368.19,105.84L369.29,103.64L371.51,103.64L372.62,101.43L374.84,101.43L375.95,99.96L381.5,99.22L382.61,90.4L384.82,90.4L385.93,87.46L388.15,87.46L389.26,86L391.48,86L392.59,83.79L394.81,83.79L395.92,82.32L398.14,82.32L399.24,80.85L401.46,80.85L402.57,79.38L408.12,78.64L409.23,77.17L411.45,77.17L412.56,74.97L414.77,74.97L415.88,73.5L418.1,73.5L419.21,72.03L421.43,72.03L422.54,70.56L424.76,70.56L425.87,69.09L428.09,69.09L429.19,67.62L431.41,67.62L432.52,66.15L438.07,65.41L439.18,63.95L444.72,63.21L445.83,61.74L448.05,61.74L449.16,52.92L451.38,52.92L452.49,49.98L454.71,49.98L455.82,47.78L490.38,47.04L491.49,48.51L493.71,48.51L494.82,49.98L500.36,50.72L501.47,52.92L507.02,53.66L508.13,54.39L514.79,55.13L515.72,47.78L517.94,47.78L519.04,44.1L521.26,44.1L522.37,40.43L524.59,40.43L525.7,37.49L527.92,37.49L529.03,35.28L531.25,35.28L532.36,33.81L534.57,33.81L535.68,32.34L563.59,33.07L564.7,33.81L566.92,33.81L568.03,35.28L570.25,35.28L571.29,37.34L572.29,36.02L574.51,36.02L575.62,33.81L577.84,33.81L578.94,31.61L581.16,31.61L582.27,21.32L584.49,21.32L585.6,15.44L587.82,15.44L588.93,10.29L591.15,10.29L592.26,5.14L594.47,5.14L595.58,-0.74L597.8,-0.74L598.91,-5.88L601.13,-5.88L602.24,-10.29L604.46,-10.29L605.57,-15.44L607.79,-15.44L610,-18.38L611.11,-19.11L643.46,-19.11L644.57,-16.91L646.79,-16.91L647.9,-13.97L648.83,-22.05L651.05,-22.05L654.37,-33.07L657.7,-33.07L658.81,-38.95L661.03,-38.95L662.14,-44.83L664.36,-44.83L665.47,-51.45L667.69,-51.45L672.12,-64.68L674.34,-64.68L678.78,-77.17L681,-77.17L685.43,-88.2L687.65,-88.2L692.09,-93.35L694.31,-93.35L695.42,-94.08L718.53,-94.08L722.04,-98.49L724.26,-98.49L728.69,-108.05L730.91,-108.05L735.35,-118.34L737.57,-118.34L742.01,-129.36L744.22,-129.36L748.66,-141.12L750.88,-141.12L758.64,-159.49L760.86,-159.49L768.63,-177.87L770.85,-177.87L775.28,-184.48L780.83,-184.48L785.27,-192.57L809.85,-192.57L826.49,-180.08L827.6,-175.66L833.14,-171.99L834.25,-167.58L839.8,-163.9L840.91,-158.76L846.45,-155.09L847.56,-150.67L853.11,-147L854.22,-142.59L856.44,-142.59L857.55,-137.44L859.76,-137.44L860.87,-133.03L863.09,-133.03L864.2,-128.62L876.4,-126.42L877.51,-123.48L883.06,-119.8L884.17,-116.13L889.71,-112.46L890.82,-108.78L896.37,-104.37L897.48,-99.96L898.59,-99.96L899.7,-94.82L906.35,-90.4L907.46,-85.26L909.68,-85.26L910.79,-79.38L913.01,-79.38L914.12,-74.24L916.34,-74.24L917.45,-67.62L919.66,-67.62L920.77,-61L922.99,-61L924.1,-54.39L926.32,-54.39L927.43,-48.51L929.65,-48.51L930.76,-41.16L932.98,-41.16L934.09,-34.54L939.63,-30.13L940.74,-24.26L942.96,-24.26L944.07,-18.38L946.29,-18.38L947.4,-12.5L949.61,-12.5L950.72,-6.62L952.94,-6.62L954.05,-0.74L956.27,-0.74L957.38,5.88L959.6,5.88L960.71,11.76L962.93,11.76L964.04,17.64L966.25,17.64L967.36,23.52L969.58,23.52L970.69,29.4L972.91,29.4L974.02,35.28L976.24,35.28L977.35,41.16L979.56,41.16L980.67,47.04L982.89,47.04L984,52.92L986.22,52.92L987.33,59.54L989.55,59.54L990.66,66.15L992.88,66.15L993.99,72.03L996.2,72.03L997.31,78.64L999.53,78.64L1000.64,84.52L1002.86,84.52L1003.97,90.4L1006.19,90.4L1007.3,97.02L1012.84,102.9L1013.95,109.51L1019.5,114.66L1020.61,120.54L1026.15,126.42L1027.26,130.83L1032.81,136.71L1033.92,141.12L1039.46,144.8L1040.57,148.47L1046.12,152.88L1047.23,156.56L1056.1,161.7L1057.21,165.38L1093.64,165.38L1094.75,163.91L1106.95,159.5L1108.06,155.82L1113.61,151.41L1114.72,146.26L1116.94,146.26L1118.04,138.18L1120.26,138.18L1121.37,129.36L1123.59,129.36L1124.7,119.07L1126.92,119.07L1128.03,106.57L1130.25,106.57L1131.36,94.08L1133.57,94.08L1134.68,80.85L1136.9,80.85L1138.01,66.15L1140.23,66.15L1141.34,49.98L1143.56,49.98L1144.67,34.55L1146.89,34.55L1147.99,19.11L1150.21,19.11L1151.32,2.2L1153.54,2.2L1154.65,-13.23L1156.87,-13.23L1157.98,-28.66L1160.2,-28.66L1161.31,-44.1L1163.52,-44.1L1164.63,-59.53L1166.85,-59.53L1167.96,-74.24L1170.18,-74.24L1171.29,-88.94L1173.51,-88.94L1174.62,-104.37L1176.84,-104.37L1177.94,-119.07L1180.16,-119.07L1181.27,-134.5L1183.49,-134.5L1184.6,-149.21L1186.82,-149.21L1187.93,-163.17L1190.15,-163.17L1191.26,-175.66L1193.47,-175.66L1194.58,-186.69L1200.13,-194.77L1201.24,-202.86L1206.79,-208.74L1207.89,-213.15L1213.44,-218.29L1214.55,-222.7L1223.42,-229.32L1224.53,-232.99L1233.41,-238.14L1234.52,-241.81L1243.39,-249.9L1244.5,-253.58L1332.31,-249.16L1333.42,-247.69L1348.95,-238.14L1350.06,-235.93L1362.26,-227.11L1363.37,-223.44L1372.24,-216.09L1373.35,-211.68L1382.23,-203.6L1383.34,-199.19L1391.1,-190.36L1392.21,-185.96L1402.19,-177.13L1403.3,-172.73L1412.18,-163.9L1413.29,-159.49L1422.16,-150.67L1423.27,-146.26L1432.14,-137.44L1433.25,-133.03L1488.71,-35.28L1489.82,-27.2L1502.96,-5.15L1507.39,-14.7L1509.61,-14.7L1527.36,-47.77L1529.58,-47.77L1547.33,-77.17L1549.55,-77.17L1570.62,-109.51L1572.84,-109.51L1593.92,-163.17L1596.14,-163.17L1612.77,-180.08L1613.88,-181.54L1639.4,-190.36L1640.51,-196.24L1670.46,-258.72L1728.31,-258.72L1759.2,-253.58L1760.31,-254.31L1808.18,-249.16L1809.29,-245.49L1842.39,-219.03L1843.5,-220.5L1889.16,-222.7L1908.01,-222.7L1915.6,-219.03L1922.26,-232.26L1923.37,-238.87L1933.35,-258.72L2140.96,-258.72L2184.22,-183.01L2185.33,-173.46L2258.45,-1.59L2259.47,-2.94L2265.02,-2.94L2311.61,-37.49L2312.72,-42.63L2422.53,-133.77L2424.75,-133.77L2540.29,-202.12L2541.4,-198.45L2587.99,-172.73L2593.54,-172.73L2630.14,-138.18L2631.25,-131.56L2704.46,-20.58L2706.68,-20.58L2724.25,-5.15L2738.67,-18.38L2740.89,-18.38L2891.75,-258.72L3039.46,-258.72L3076.06,-199.19L3077.17,-195.51L3152.6,-100.7L3153.71,-96.28L3386.66,102.9L3388.88,102.9L3567.29,133.77L3591.87,133.77L3804.85,117.6L3793.67,119.07L3530.77,138.91L3529.66,138.91L3412.08,116.87L3410.97,116.87L3260.11,41.9L3259,41.9L3138.09,-105.11L3136.99,-105.11L3049.35,-220.5L3048.24,-228.58L2935.1,-257.25L2933.99,-257.25L2816.41,-91.14L2815.3,-85.99L2759.84,-27.93L2758.73,-24.26L2714.36,2.2L2713.25,2.2L2616.74,-136.71L2615.63,-142.59L2577.92,-171.25L2576.81,-171.25L2533.55,-192.57L2532.44,-196.98L2529.11,-200.66L2469.21,-153.61L2468.1,-153.61L2402.66,-105.84L2401.55,-105.84L2333.88,-53.65L2332.77,-49.98L2293.95,-8.09L2292.84,-6.62L2248.47,0L2247.36,0L2187.46,-131.56L2186.35,-141.86L2147.53,-232.26L2146.42,-238.14L1963.39,-257.25L1962.28,-257.25L1927.89,-223.44L1926.78,-217.56L1884.63,-221.23L1883.52,-221.23L1834.71,-208.74L1833.61,-208L1808.09,-225.64L1806.98,-232.99L1790.34,-252.1L1789.24,-252.1L1754.85,-241.81L1753.74,-239.61L1731.55,-240.35L1730.44,-245.49L1694.95,-257.25L1693.84,-257.25L1676.09,-243.28L1674.98,-243.28L1650.58,-188.89L1649.47,-188.89L1627.28,-180.08L1626.17,-180.08L1591.79,-130.83L1590.68,-122.74L1506.37,2.94L1505.26,2.94L1504.16,5.88L1432.05,-116.86L1430.94,-121.27L1422.07,-131.56L1420.96,-135.98L1412.09,-144.79L1410.98,-149.21L1402.1,-158.02L1400.99,-162.43L1392.12,-171.25L1391.01,-175.66L1381.03,-184.48L1379.92,-188.89L1372.15,-197.72L1371.04,-202.12L1362.17,-210.21L1361.06,-214.62L1352.19,-221.97L1351.08,-225.64L1338.88,-234.47L1337.77,-236.67L1322.24,-246.23L1321.13,-247.69L1259.01,-255.78L1257.9,-252.1L1249.03,-244.75L1247.92,-240.35L1235.71,-231.52L1234.61,-227.85L1225.73,-221.23L1224.62,-216.82L1219.08,-211.68L1217.97,-207.27L1212.42,-201.39L1211.31,-193.31L1205.76,-185.22L1204.66,-174.2L1202.44,-174.2L1201.33,-161.7L1199.11,-161.7L1198,-147.74L1195.78,-147.74L1194.67,-133.03L1192.45,-133.03L1191.34,-117.6L1189.13,-117.6L1188.02,-102.9L1185.8,-102.9L1184.69,-87.47L1182.47,-87.47L1181.36,-72.76L1179.14,-72.76L1178.03,-58.06L1175.81,-58.06L1174.71,-42.63L1172.49,-42.63L1171.38,-27.2L1169.16,-27.2L1168.05,-11.76L1165.83,-11.76L1164.72,3.68L1162.5,3.68L1161.39,20.58L1159.18,20.58L1158.07,36.02L1155.85,36.02L1154.74,51.45L1152.52,51.45L1151.41,67.62L1149.19,67.62L1148.08,82.32L1145.86,82.32L1144.76,95.55L1142.54,95.55L1141.43,108.05L1139.21,108.05L1138.1,120.54L1135.88,120.54L1134.77,130.83L1132.55,130.83L1131.44,139.65L1129.23,139.65L1128.12,147.74L1125.9,147.74L1124.79,152.88L1119.24,157.29L1118.13,160.97L1099.28,167.58L1098.17,169.79L1059.34,173.46L1058.23,171.99L1046.03,166.85L1044.92,163.17L1036.05,158.02L1034.94,154.35L1029.39,149.94L1028.28,146.26L1022.74,142.59L1021.63,138.18L1016.08,132.3L1014.97,127.89L1009.43,122.01L1008.32,116.13L1002.77,110.99L1001.66,104.37L999.44,104.37L998.33,98.49L996.11,98.49L995.01,91.88L992.79,91.88L991.68,86L989.46,86L988.35,80.11L986.13,80.11L985.02,73.5L982.8,73.5L981.69,67.62L979.48,67.62L978.37,61.01L976.15,61.01L975.04,54.39L972.82,54.39L971.71,48.51L969.49,48.51L968.38,42.63L966.16,42.63L965.06,36.75L962.84,36.75L961.73,30.87L959.51,30.87L958.4,24.99L956.18,24.99L955.07,19.11L952.85,19.11L951.74,13.23L949.53,13.23L948.42,7.35L946.2,7.35L945.09,0.73L942.87,0.73L941.76,-5.15L939.54,-5.15L938.43,-11.03L936.21,-11.03L935.11,-16.91L932.89,-16.91L931.78,-22.79L929.56,-22.79L928.45,-28.66L922.9,-33.07L921.79,-39.69L919.58,-39.69L918.47,-47.04L916.25,-47.04L915.14,-52.92L912.92,-52.92L911.81,-59.53L909.59,-59.53L908.48,-66.15L906.26,-66.15L905.16,-72.76L902.94,-72.76L901.83,-77.91L899.61,-77.91L898.5,-83.79L896.28,-83.79L895.17,-88.94L888.52,-93.35L887.41,-98.49L886.3,-98.49L885.19,-102.9L882.97,-102.9L881.86,-107.31L879.64,-107.31L878.53,-110.99L872.99,-114.66L871.88,-118.34L866.33,-122.01L865.22,-124.95L856.35,-122.74L855.24,-127.15L853.02,-127.15L851.91,-131.56L849.69,-131.56L848.58,-135.98L846.36,-135.98L845.26,-141.12L843.04,-141.12L841.93,-145.53L836.38,-149.21L835.27,-153.61L829.73,-157.29L828.62,-162.43L823.07,-166.11L821.96,-170.52L816.41,-174.2L815.31,-178.6L809.76,-182.28L808.65,-185.96L793.12,-190.36L792.01,-183.01L783.14,-180.08L782.03,-176.4L776.48,-171.25L775.37,-164.64L773.15,-164.64L772.04,-158.02L769.83,-158.02L768.72,-152.14L765.39,-152.14L764.28,-146.26L763.17,-146.26L762.06,-139.65L759.84,-139.65L758.73,-134.5L756.51,-134.5L755.41,-127.89L753.19,-127.89L752.08,-122.74L749.86,-122.74L748.75,-116.86L746.53,-116.86L745.42,-111.72L743.2,-111.72L742.09,-106.58L739.88,-106.58L738.77,-102.17L736.55,-102.17L735.44,-97.02L733.22,-97.02L732.11,-93.35L729.89,-93.35L728.78,-88.94L726.56,-88.94L725.46,-80.85L723.24,-80.85L722.13,-82.32L716.58,-84.52L715.47,-88.2L713.25,-88.2L712.14,-91.14L699.94,-90.4L698.83,-86.73L696.61,-86.73L695.51,-81.59L693.29,-81.59L692.18,-75.71L689.96,-75.71L688.85,-69.09L686.63,-69.09L685.52,-63.21L683.3,-63.21L682.19,-56.6L679.98,-56.6L678.87,-49.98L676.65,-49.98L675.54,-43.37L673.32,-43.37L672.21,-37.49L669.99,-37.49L668.88,-31.6L665.56,-31.6L664.45,-26.46L663.34,-26.46L662.23,-20.58L660.01,-20.58L658.9,-10.29L656.68,-10.29L655.57,-8.09L646.7,-8.09L645.59,-9.56L643.37,-9.56L642.26,-11.03L640.04,-11.03L638.93,-12.5L636.71,-12.5L635.61,-15.44L633.39,-15.44L632.28,-17.64L626.73,-18.38L625.62,-17.64L620.08,-16.91L618.97,-13.97L616.75,-13.97L615.64,-8.82L613.42,-8.82L612.31,-4.41L610.09,-4.41L608.98,0.73L606.76,0.73L605.66,6.62L603.44,6.62L602.33,11.76L600.11,11.76L599,16.9L596.78,16.9L595.67,22.79L593.45,22.79L592.34,33.07L590.13,33.07L589.02,35.28L586.8,35.28L585.69,37.49L583.47,37.49L582.36,38.96L580.14,38.96L579.03,41.16L570.16,41.9L569.05,41.16L563.5,40.43L562.39,38.96L560.18,38.96L559.07,36.75L556.85,36.75L555.74,35.28L553.52,35.28L552.41,34.55L546.86,33.81L545.76,35.28L543.54,35.28L542.43,36.75L540.21,36.75L539.1,38.96L536.88,38.96L535.77,41.9L533.55,41.9L532.44,45.57L530.23,45.57L529.12,49.25L526.9,49.25L525.79,58.07L520.24,58.07L519.13,57.33L500.28,57.33L499.17,55.86L496.95,55.86L495.84,55.13L490.29,54.39L489.18,52.19L483.64,51.45L482.53,49.98L480.31,49.98L479.2,48.51L467,49.25L465.89,51.45L463.67,51.45L462.56,54.39L460.34,54.39L459.23,63.21L457.01,63.21L455.91,64.68L450.36,65.41L449.25,66.88L443.7,67.62L442.59,69.09L440.38,69.09L439.27,70.56L437.05,70.56L435.94,72.03L433.72,72.03L432.61,73.5L430.39,73.5L429.28,74.97L427.06,74.97L425.96,76.44L423.74,76.44L422.63,78.64L420.41,78.64L419.3,80.11L413.75,80.85L412.64,82.32L410.43,82.32L409.32,83.79L407.1,83.79L405.99,85.26L403.77,85.26L402.66,87.46L400.44,87.46L399.33,88.94L397.11,88.94L396.01,91.88L393.79,91.88L392.68,100.7L387.13,101.43L386.02,102.9L383.8,102.9L382.69,105.11L380.48,105.11L379.37,107.31L376.04,107.31L374.93,110.99L373.82,110.99L372.71,113.93L370.49,113.93L369.38,117.6L367.16,117.6L366.06,120.54L363.84,120.54L362.73,124.22L360.51,124.22L359.4,127.16L357.18,127.16L356.07,130.83L353.85,130.83L352.74,134.51L350.53,134.51L349.42,137.45L347.2,137.45L346.09,141.12L343.87,141.12L342.76,143.32L340.54,143.32L339.43,147L337.21,147L336.11,150.68L333.89,150.68L332.78,154.35L330.56,154.35L329.45,159.5L327.23,159.5L326.12,168.32L317.25,169.05L316.14,170.52L280.64,169.79L279.53,170.52L273.99,171.26L272.88,172.73L270.66,172.73L269.55,174.93L267.33,174.93L266.22,177.87L264,177.87L262.89,180.81L260.68,180.81L259.57,189.63L254.02,190.37L252.91,191.83L250.69,191.83L249.58,194.04L247.36,194.04L246.26,196.25L244.04,196.25L242.93,197.71L240.71,197.71L239.6,200.65L237.38,200.65L236.27,202.86L234.05,202.86L232.94,205.07L230.73,205.07L229.62,207.27L227.4,207.27L226.29,209.48L224.07,209.48L222.96,211.68L220.74,211.68L219.63,213.89L217.41,213.89L216.31,216.09L214.09,216.09L212.98,217.56L210.76,217.56L209.65,219.77L207.43,219.77L206.32,221.24L204.1,221.24L202.99,224.18L200.78,224.18L199.67,226.38L197.45,226.38L196.34,229.32L194.12,229.32L193.01,237.41L187.46,237.41L186.36,236.67L174.15,235.94L173.04,235.2L164.17,234.46L163.06,232.99L160.84,232.99L159.73,231.52L154.19,230.79L153.08,229.32L150.86,229.32L149.75,227.85L147.53,227.85L146.42,226.38L144.2,226.38L143.09,224.91L137.55,224.91L136.44,223.44L134.22,223.44L133.11,222.71L127.56,221.97L126.46,228.58L124.24,228.58L123.13,225.65L120.91,225.65L119.8,223.44L117.58,223.44L116.47,221.24L114.25,221.24L113.14,219.77L110.93,219.77L109.82,216.83L107.6,216.83L106.49,215.36L100.94,214.62L99.83,212.42L94.29,211.68L93.18,210.21L80.98,210.21L79.87,210.95L70.99,211.68L69.88,213.15L67.66,213.15L66.56,214.62L64.34,214.62L63.23,216.83L61.01,216.83L59.9,225.65L54.35,226.38L53.24,227.85L51.03,227.85L49.92,229.32L47.7,229.32L46.59,232.26L44.37,232.26L43.26,235.2L41.04,235.2L39.93,239.61L36.61,239.61L35.5,244.02L34.39,244.02L33.28,249.17L31.06,249.17L29.95,254.31L27.73,254.31L26.62,260.19L24.4,260.19L23.29,266.81L21.08,266.81L19.97,273.42L17.75,273.42L16.64,280.03L14.42,280.03L13.31,287.39L11.09,287.39L9.98,294L7.76,294L6.66,299.88L4.44,299.88L3.33,307.23L1.11,307.23L0,314.58L-2.22,314.58L-3.33,320.46L-5.55,320.46L-6.66,334.42L-8.87,334.42L-9.98,338.84L-12.2,338.84L-13.31,343.25L-15.53,343.25L-16.64,347.66L-18.86,347.66L-19.97,352.8L-22.19,352.8L-23.29,357.21L-25.51,357.21L-26.62,361.62L-28.84,361.62L-29.95,366.77L-32.17,366.77L-33.28,371.18L-35.5,371.18L-36.61,375.59L-38.82,375.59L-39.93,378.53L-42.15,378.53L-43.26,382.94L-45.48,382.94L-46.59,388.08L-48.81,388.08L-49.92,393.23L-52.14,393.23L-53.24,396.9L-55.46,396.9L-56.57,401.31L-58.79,401.31L-59.9,405.72L-62.12,405.72L-63.23,410.13L-68.77,413.07L-69.88,417.48L-72.1,417.48L-73.21,427.77L-75.43,427.77L-76.54,429.98L-85.41,432.92L-86.52,435.12L-92.07,437.33L-93.18,439.53L-98.72,441.74L-99.83,443.94L-108.71,448.35L-109.82,449.82L-118.69,453.5L-119.8,455.7L-128.67,459.38L-129.78,462.32L-138.66,466.73L-139.77,472.61L-1797,477.75Z" style="fill: rgb(68, 68, 68); fill-opacity: 0.3; stroke-width: 0;"/></g></g><g class="errorbars"/><g class="lines"><path class="js-line" d="M-1797,477.75L-139.77,472.61L-138.66,466.73L-129.78,462.32L-128.67,459.38L-119.8,455.7L-118.69,453.5L-109.82,449.82L-108.71,448.35L-99.83,443.94L-98.72,441.74L-93.18,439.53L-92.07,437.33L-86.52,435.12L-85.41,432.92L-76.54,429.98L-75.43,427.77L-73.21,427.77L-72.1,417.48L-69.88,417.48L-68.77,413.07L-63.23,410.13L-62.12,405.72L-59.9,405.72L-58.79,401.31L-56.57,401.31L-55.46,396.9L-53.24,396.9L-52.14,393.23L-49.92,393.23L-48.81,388.08L-46.59,388.08L-45.48,382.94L-43.26,382.94L-42.15,378.53L-39.93,378.53L-38.82,375.59L-36.61,375.59L-35.5,371.18L-33.28,371.18L-32.17,366.77L-29.95,366.77L-28.84,361.62L-26.62,361.62L-25.51,357.21L-23.29,357.21L-22.19,352.8L-19.97,352.8L-18.86,347.66L-16.64,347.66L-15.53,343.25L-13.31,343.25L-12.2,338.84L-9.98,338.84L-8.87,334.42L-6.66,334.42L-5.55,320.46L-3.33,320.46L-2.22,314.58L0,314.58L1.11,307.23L3.33,307.23L4.44,299.88L6.66,299.88L7.76,294L9.98,294L11.09,287.39L13.31,287.39L14.42,280.03L16.64,280.03L17.75,273.42L19.97,273.42L21.08,266.81L23.29,266.81L24.4,260.19L26.62,260.19L27.73,254.31L29.95,254.31L31.06,249.17L33.28,249.17L34.39,244.02L35.5,244.02L36.61,239.61L39.93,239.61L41.04,235.2L43.26,235.2L44.37,232.26L46.59,232.26L47.7,229.32L49.92,229.32L51.03,227.85L53.24,227.85L54.35,226.38L59.9,225.65L61.01,216.83L63.23,216.83L64.34,214.62L66.56,214.62L67.66,213.15L69.88,213.15L70.99,211.68L79.87,210.95L80.98,210.21L93.18,210.21L94.29,211.68L99.83,212.42L100.94,214.62L106.49,215.36L107.6,216.83L109.82,216.83L110.93,219.77L113.14,219.77L114.25,221.24L116.47,221.24L117.58,223.44L119.8,223.44L120.91,225.65L123.13,225.65L124.24,228.58L126.46,228.58L127.56,221.97L133.11,222.71L134.22,223.44L136.44,223.44L137.55,224.91L143.09,224.91L144.2,226.38L146.42,226.38L147.53,227.85L149.75,227.85L150.86,229.32L153.08,229.32L154.19,230.79L159.73,231.52L160.84,232.99L163.06,232.99L164.17,234.46L173.04,235.2L174.15,235.94L186.36,236.67L187.46,237.41L193.01,237.41L194.12,229.32L196.34,229.32L197.45,226.38L199.67,226.38L200.78,224.18L202.99,224.18L204.1,221.24L206.32,221.24L207.43,219.77L209.65,219.77L210.76,217.56L212.98,217.56L214.09,216.09L216.31,216.09L217.41,213.89L219.63,213.89L220.74,211.68L222.96,211.68L224.07,209.48L226.29,209.48L227.4,207.27L229.62,207.27L230.73,205.07L232.94,205.07L234.05,202.86L236.27,202.86L237.38,200.65L239.6,200.65L240.71,197.71L242.93,197.71L244.04,196.25L246.26,196.25L247.36,194.04L249.58,194.04L250.69,191.83L252.91,191.83L254.02,190.37L259.57,189.63L260.68,180.81L262.89,180.81L264,177.87L266.22,177.87L267.33,174.93L269.55,174.93L270.66,172.73L272.88,172.73L273.99,171.26L279.53,170.52L280.64,169.79L316.14,170.52L317.25,169.05L326.12,168.32L327.23,159.5L329.45,159.5L330.56,154.35L332.78,154.35L333.89,150.68L336.11,150.68L337.21,147L339.43,147L340.54,143.32L342.76,143.32L343.87,141.12L346.09,141.12L347.2,137.45L349.42,137.45L350.53,134.51L352.74,134.51L353.85,130.83L356.07,130.83L357.18,127.16L359.4,127.16L360.51,124.22L362.73,124.22L363.84,120.54L366.06,120.54L367.16,117.6L369.38,117.6L370.49,113.93L372.71,113.93L373.82,110.99L374.93,110.99L376.04,107.31L379.37,107.31L380.48,105.11L382.69,105.11L383.8,102.9L386.02,102.9L387.13,101.43L392.68,100.7L393.79,91.88L396.01,91.88L397.11,88.94L399.33,88.94L400.44,87.46L402.66,87.46L403.77,85.26L405.99,85.26L407.1,83.79L409.32,83.79L410.43,82.32L412.64,82.32L413.75,80.85L419.3,80.11L420.41,78.64L422.63,78.64L423.74,76.44L425.96,76.44L427.06,74.97L429.28,74.97L430.39,73.5L432.61,73.5L433.72,72.03L435.94,72.03L437.05,70.56L439.27,70.56L440.38,69.09L442.59,69.09L443.7,67.62L449.25,66.88L450.36,65.41L455.91,64.68L457.01,63.21L459.23,63.21L460.34,54.39L462.56,54.39L463.67,51.45L465.89,51.45L467,49.25L479.2,48.51L480.31,49.98L482.53,49.98L483.64,51.45L489.18,52.19L490.29,54.39L495.84,55.13L496.95,55.86L499.17,55.86L500.28,57.33L519.13,57.33L520.24,58.07L525.79,58.07L526.9,49.25L529.12,49.25L530.23,45.57L532.44,45.57L533.55,41.9L535.77,41.9L536.88,38.96L539.1,38.96L540.21,36.75L542.43,36.75L543.54,35.28L545.76,35.28L546.86,33.81L552.41,34.55L553.52,35.28L555.74,35.28L556.85,36.75L559.07,36.75L560.18,38.96L562.39,38.96L563.5,40.43L569.05,41.16L570.16,41.9L579.03,41.16L580.14,38.96L582.36,38.96L583.47,37.49L585.69,37.49L586.8,35.28L589.02,35.28L590.13,33.07L592.34,33.07L593.45,22.79L595.67,22.79L596.78,16.9L599,16.9L600.11,11.76L602.33,11.76L603.44,6.62L605.66,6.62L606.76,0.73L608.98,0.73L610.09,-4.41L612.31,-4.41L613.42,-8.82L615.64,-8.82L616.75,-13.97L618.97,-13.97L620.08,-16.91L625.62,-17.64L626.73,-18.38L632.28,-17.64L633.39,-15.44L635.61,-15.44L636.71,-12.5L638.93,-12.5L640.04,-11.03L642.26,-11.03L643.37,-9.56L645.59,-9.56L646.7,-8.09L655.57,-8.09L656.68,-10.29L658.9,-10.29L660.01,-20.58L662.23,-20.58L663.34,-26.46L664.45,-26.46L665.56,-31.6L668.88,-31.6L669.99,-37.49L672.21,-37.49L673.32,-43.37L675.54,-43.37L676.65,-49.98L678.87,-49.98L679.98,-56.6L682.19,-56.6L683.3,-63.21L685.52,-63.21L686.63,-69.09L688.85,-69.09L689.96,-75.71L692.18,-75.71L693.29,-81.59L695.51,-81.59L696.61,-86.73L698.83,-86.73L699.94,-90.4L712.14,-91.14L713.25,-88.2L715.47,-88.2L716.58,-84.52L722.13,-82.32L723.24,-80.85L725.46,-80.85L726.56,-88.94L728.78,-88.94L729.89,-93.35L732.11,-93.35L733.22,-97.02L735.44,-97.02L736.55,-102.17L738.77,-102.17L739.88,-106.58L742.09,-106.58L743.2,-111.72L745.42,-111.72L746.53,-116.86L748.75,-116.86L749.86,-122.74L752.08,-122.74L753.19,-127.89L755.41,-127.89L756.51,-134.5L758.73,-134.5L759.84,-139.65L762.06,-139.65L763.17,-146.26L764.28,-146.26L765.39,-152.14L768.72,-152.14L769.83,-158.02L772.04,-158.02L773.15,-164.64L775.37,-164.64L776.48,-171.25L782.03,-176.4L783.14,-180.08L792.01,-183.01L793.12,-190.36L808.65,-185.96L809.76,-182.28L815.31,-178.6L816.41,-174.2L821.96,-170.52L823.07,-166.11L828.62,-162.43L829.73,-157.29L835.27,-153.61L836.38,-149.21L841.93,-145.53L843.04,-141.12L845.26,-141.12L846.36,-135.98L848.58,-135.98L849.69,-131.56L851.91,-131.56L853.02,-127.15L855.24,-127.15L856.35,-122.74L865.22,-124.95L866.33,-122.01L871.88,-118.34L872.99,-114.66L878.53,-110.99L879.64,-107.31L881.86,-107.31L882.97,-102.9L885.19,-102.9L886.3,-98.49L887.41,-98.49L888.52,-93.35L895.17,-88.94L896.28,-83.79L898.5,-83.79L899.61,-77.91L901.83,-77.91L902.94,-72.76L905.16,-72.76L906.26,-66.15L908.48,-66.15L909.59,-59.53L911.81,-59.53L912.92,-52.92L915.14,-52.92L916.25,-47.04L918.47,-47.04L919.58,-39.69L921.79,-39.69L922.9,-33.07L928.45,-28.66L929.56,-22.79L931.78,-22.79L932.89,-16.91L935.11,-16.91L936.21,-11.03L938.43,-11.03L939.54,-5.15L941.76,-5.15L942.87,0.73L945.09,0.73L946.2,7.35L948.42,7.35L949.53,13.23L951.74,13.23L952.85,19.11L955.07,19.11L956.18,24.99L958.4,24.99L959.51,30.87L961.73,30.87L962.84,36.75L965.06,36.75L966.16,42.63L968.38,42.63L969.49,48.51L971.71,48.51L972.82,54.39L975.04,54.39L976.15,61.01L978.37,61.01L979.48,67.62L981.69,67.62L982.8,73.5L985.02,73.5L986.13,80.11L988.35,80.11L989.46,86L991.68,86L992.79,91.88L995.01,91.88L996.11,98.49L998.33,98.49L999.44,104.37L1001.66,104.37L1002.77,110.99L1008.32,116.13L1009.43,122.01L1014.97,127.89L1016.08,132.3L1021.63,138.18L1022.74,142.59L1028.28,146.26L1029.39,149.94L1034.94,154.35L1036.05,158.02L1044.92,163.17L1046.03,166.85L1058.23,171.99L1059.34,173.46L1098.17,169.79L1099.28,167.58L1118.13,160.97L1119.24,157.29L1124.79,152.88L1125.9,147.74L1128.12,147.74L1129.23,139.65L1131.44,139.65L1132.55,130.83L1134.77,130.83L1135.88,120.54L1138.1,120.54L1139.21,108.05L1141.43,108.05L1142.54,95.55L1144.76,95.55L1145.86,82.32L1148.08,82.32L1149.19,67.62L1151.41,67.62L1152.52,51.45L1154.74,51.45L1155.85,36.02L1158.07,36.02L1159.18,20.58L1161.39,20.58L1162.5,3.68L1164.72,3.68L1165.83,-11.76L1168.05,-11.76L1169.16,-27.2L1171.38,-27.2L1172.49,-42.63L1174.71,-42.63L1175.81,-58.06L1178.03,-58.06L1179.14,-72.76L1181.36,-72.76L1182.47,-87.47L1184.69,-87.47L1185.8,-102.9L1188.02,-102.9L1189.13,-117.6L1191.34,-117.6L1192.45,-133.03L1194.67,-133.03L1195.78,-147.74L1198,-147.74L1199.11,-161.7L1201.33,-161.7L1202.44,-174.2L1204.66,-174.2L1205.76,-185.22L1211.31,-193.31L1212.42,-201.39L1217.97,-207.27L1219.08,-211.68L1224.62,-216.82L1225.73,-221.23L1234.61,-227.85L1235.71,-231.52L1247.92,-240.35L1249.03,-244.75L1257.9,-252.1L1259.01,-255.78L1321.13,-247.69L1322.24,-246.23L1337.77,-236.67L1338.88,-234.47L1351.08,-225.64L1352.19,-221.97L1361.06,-214.62L1362.17,-210.21L1371.04,-202.12L1372.15,-197.72L1379.92,-188.89L1381.03,-184.48L1391.01,-175.66L1392.12,-171.25L1400.99,-162.43L1402.1,-158.02L1410.98,-149.21L1412.09,-144.79L1420.96,-135.98L1422.07,-131.56L1430.94,-121.27L1432.05,-116.86L1504.16,5.88L1505.26,2.94L1506.37,2.94L1590.68,-122.74L1591.79,-130.83L1626.17,-180.08L1627.28,-180.08L1649.47,-188.89L1650.58,-188.89L1674.98,-243.28L1676.09,-243.28L1693.84,-257.25L1694.95,-257.25L1730.44,-245.49L1731.55,-240.35L1753.74,-239.61L1754.85,-241.81L1789.24,-252.1L1790.34,-252.1L1806.98,-232.99L1808.09,-225.64L1833.61,-208L1834.71,-208.74L1883.52,-221.23L1884.63,-221.23L1926.78,-217.56L1927.89,-223.44L1962.28,-257.25L1963.39,-257.25L2146.42,-238.14L2147.53,-232.26L2186.35,-141.86L2187.46,-131.56L2247.36,0L2248.47,0L2292.84,-6.62L2293.95,-8.09L2332.77,-49.98L2333.88,-53.65L2401.55,-105.84L2402.66,-105.84L2468.1,-153.61L2469.21,-153.61L2529.11,-200.66L2532.44,-196.98L2533.55,-192.57L2576.81,-171.25L2577.92,-171.25L2615.63,-142.59L2616.74,-136.71L2713.25,2.2L2714.36,2.2L2758.73,-24.26L2759.84,-27.93L2815.3,-85.99L2816.41,-91.14L2933.99,-257.25L2935.1,-257.25L3048.24,-228.58L3049.35,-220.5L3136.99,-105.11L3138.09,-105.11L3259,41.9L3260.11,41.9L3410.97,116.87L3412.08,116.87L3529.66,138.91L3530.77,138.91L3793.67,119.07" style="vector-effect: non-scaling-stroke; fill: none; stroke: rgb(214, 39, 40); stroke-opacity: 1; stroke-width: 2px; opacity: 1;"/></g><g class="points"/><g class="text"/></g><g class="trace scatter trace60b7de82-f5bd-4ed5-9d6b-171f279f5448" style="stroke-miterlimit: 2;"><g class="fills"/><g class="errorbars"/><g class="lines"><path class="js-line" d="M-1808.18,476.28L-150.95,471.14L-149.84,465.26L-140.96,460.85L-139.86,457.91L-130.98,454.23L-129.87,452.03L-121,448.35L-119.89,446.88L-111.01,442.47L-109.91,440.27L-104.36,438.06L-103.25,435.86L-97.7,433.65L-96.59,431.45L-87.72,428.51L-86.61,426.3L-84.39,426.3L-83.28,416.01L-81.06,416.01L-79.96,411.6L-74.41,408.66L-73.3,404.25L-71.08,404.25L-69.97,399.84L-67.75,399.84L-66.64,395.43L-64.43,395.43L-63.32,391.76L-61.1,391.76L-59.99,386.61L-57.77,386.61L-56.66,381.47L-54.44,381.47L-53.33,377.06L-51.11,377.06L-50.01,374.12L-47.79,374.12L-46.68,369.71L-44.46,369.71L-43.35,365.3L-41.13,365.3L-40.02,360.15L-37.8,360.15L-36.69,355.74L-34.48,355.74L-33.37,351.33L-31.15,351.33L-30.04,346.19L-27.82,346.19L-26.71,341.78L-24.49,341.78L-23.38,337.37L-21.16,337.37L-20.06,332.96L-17.84,332.96L-16.73,318.99L-14.51,318.99L-13.4,313.11L-11.18,313.11L-10.07,305.76L-7.85,305.76L-6.74,298.41L-4.53,298.41L-3.42,292.53L-1.2,292.53L-0.09,285.91L2.13,285.91L3.24,278.57L5.46,278.57L6.57,271.95L8.79,271.95L9.89,265.34L12.11,265.34L13.22,258.72L15.44,258.72L16.55,252.84L18.77,252.84L19.88,247.7L22.1,247.7L23.21,242.55L24.31,242.55L25.42,238.14L28.75,238.14L29.86,233.73L32.08,233.73L33.19,230.79L35.41,230.79L36.52,227.85L38.74,227.85L39.84,226.38L42.06,226.38L43.17,224.91L48.72,224.18L49.83,215.36L52.05,215.36L53.16,213.15L55.37,213.15L56.48,211.68L58.7,211.68L59.81,210.21L68.69,209.48L69.79,208.74L104.36,208.74L105.47,210.21L111.01,210.95L112.12,213.15L117.67,213.89L118.78,215.36L121,215.36L122.11,218.3L124.33,218.3L125.44,219.77L140.96,220.5L142.07,221.24L147.62,221.97L148.73,223.44L154.28,223.44L155.39,224.91L157.6,224.91L158.71,226.38L160.93,226.38L162.04,227.85L164.26,227.85L165.37,229.32L170.91,230.05L172.02,231.52L174.24,231.52L175.35,232.99L182.13,233.73L182.94,227.85L185.16,227.85L186.27,224.91L188.49,224.91L189.59,222.71L191.81,222.71L192.92,219.77L195.14,219.77L196.25,218.3L198.47,218.3L199.58,216.09L201.8,216.09L202.91,214.62L205.12,214.62L206.23,212.42L208.45,212.42L209.56,210.21L211.78,210.21L212.89,208.01L215.11,208.01L216.22,205.8L218.44,205.8L219.54,203.6L221.76,203.6L222.87,201.39L225.09,201.39L226.2,199.19L228.42,199.19L229.53,196.25L231.75,196.25L232.86,194.77L235.07,194.77L236.18,192.57L238.4,192.57L239.51,190.37L241.73,190.37L242.84,188.9L248.39,188.16L249.49,179.34L251.71,179.34L252.82,176.4L255.04,176.4L256.15,173.46L258.37,173.46L259.48,171.26L261.7,171.26L262.81,169.79L268.35,169.05L269.46,168.32L311.61,167.58L312.72,166.85L314.94,166.85L316.05,158.02L318.27,158.02L319.38,152.88L321.6,152.88L322.71,149.2L324.92,149.2L326.03,145.53L328.25,145.53L329.36,141.85L331.58,141.85L332.69,139.65L334.91,139.65L336.02,135.97L338.24,135.97L339.34,133.04L341.56,133.04L342.67,129.36L344.89,129.36L346,125.69L348.22,125.69L349.33,122.75L351.55,122.75L352.66,119.07L354.87,119.07L355.98,116.13L358.2,116.13L359.31,112.45L361.53,112.45L362.64,109.51L363.75,109.51L364.86,105.84L368.19,105.84L369.29,103.64L371.51,103.64L372.62,101.43L374.84,101.43L375.95,99.96L381.5,99.22L382.61,90.4L384.82,90.4L385.93,87.46L388.15,87.46L389.26,86L391.48,86L392.59,83.79L394.81,83.79L395.92,82.32L398.14,82.32L399.24,80.85L401.46,80.85L402.57,79.38L408.12,78.64L409.23,77.17L411.45,77.17L412.56,74.97L414.77,74.97L415.88,73.5L418.1,73.5L419.21,72.03L421.43,72.03L422.54,70.56L424.76,70.56L425.87,69.09L428.09,69.09L429.19,67.62L431.41,67.62L432.52,66.15L438.07,65.41L439.18,63.95L444.72,63.21L445.83,61.74L448.05,61.74L449.16,52.92L451.38,52.92L452.49,49.98L454.71,49.98L455.82,47.78L490.38,47.04L491.49,48.51L493.71,48.51L494.82,49.98L500.36,50.72L501.47,52.92L507.02,53.66L508.13,54.39L514.79,55.13L515.72,47.78L517.94,47.78L519.04,44.1L521.26,44.1L522.37,40.43L524.59,40.43L525.7,37.49L527.92,37.49L529.03,35.28L531.25,35.28L532.36,33.81L534.57,33.81L535.68,32.34L563.59,33.07L564.7,33.81L566.92,33.81L568.03,35.28L570.25,35.28L571.29,37.34L572.29,36.02L574.51,36.02L575.62,33.81L577.84,33.81L578.94,31.61L581.16,31.61L582.27,21.32L584.49,21.32L585.6,15.44L587.82,15.44L588.93,10.29L591.15,10.29L592.26,5.14L594.47,5.14L595.58,-0.74L597.8,-0.74L598.91,-5.88L601.13,-5.88L602.24,-10.29L604.46,-10.29L605.57,-15.44L607.79,-15.44L610,-18.38L611.11,-19.11L643.46,-19.11L644.57,-16.91L646.79,-16.91L647.9,-13.97L648.83,-22.05L651.05,-22.05L654.37,-33.07L657.7,-33.07L658.81,-38.95L661.03,-38.95L662.14,-44.83L664.36,-44.83L665.47,-51.45L667.69,-51.45L672.12,-64.68L674.34,-64.68L678.78,-77.17L681,-77.17L685.43,-88.2L687.65,-88.2L692.09,-93.35L694.31,-93.35L695.42,-94.08L718.53,-94.08L722.04,-98.49L724.26,-98.49L728.69,-108.05L730.91,-108.05L735.35,-118.34L737.57,-118.34L742.01,-129.36L744.22,-129.36L748.66,-141.12L750.88,-141.12L758.64,-159.49L760.86,-159.49L768.63,-177.87L770.85,-177.87L775.28,-184.48L780.83,-184.48L785.27,-192.57L809.85,-192.57L826.49,-180.08L827.6,-175.66L833.14,-171.99L834.25,-167.58L839.8,-163.9L840.91,-158.76L846.45,-155.09L847.56,-150.67L853.11,-147L854.22,-142.59L856.44,-142.59L857.55,-137.44L859.76,-137.44L860.87,-133.03L863.09,-133.03L864.2,-128.62L876.4,-126.42L877.51,-123.48L883.06,-119.8L884.17,-116.13L889.71,-112.46L890.82,-108.78L896.37,-104.37L897.48,-99.96L898.59,-99.96L899.7,-94.82L906.35,-90.4L907.46,-85.26L909.68,-85.26L910.79,-79.38L913.01,-79.38L914.12,-74.24L916.34,-74.24L917.45,-67.62L919.66,-67.62L920.77,-61L922.99,-61L924.1,-54.39L926.32,-54.39L927.43,-48.51L929.65,-48.51L930.76,-41.16L932.98,-41.16L934.09,-34.54L939.63,-30.13L940.74,-24.26L942.96,-24.26L944.07,-18.38L946.29,-18.38L947.4,-12.5L949.61,-12.5L950.72,-6.62L952.94,-6.62L954.05,-0.74L956.27,-0.74L957.38,5.88L959.6,5.88L960.71,11.76L962.93,11.76L964.04,17.64L966.25,17.64L967.36,23.52L969.58,23.52L970.69,29.4L972.91,29.4L974.02,35.28L976.24,35.28L977.35,41.16L979.56,41.16L980.67,47.04L982.89,47.04L984,52.92L986.22,52.92L987.33,59.54L989.55,59.54L990.66,66.15L992.88,66.15L993.99,72.03L996.2,72.03L997.31,78.64L999.53,78.64L1000.64,84.52L1002.86,84.52L1003.97,90.4L1006.19,90.4L1007.3,97.02L1012.84,102.9L1013.95,109.51L1019.5,114.66L1020.61,120.54L1026.15,126.42L1027.26,130.83L1032.81,136.71L1033.92,141.12L1039.46,144.8L1040.57,148.47L1046.12,152.88L1047.23,156.56L1056.1,161.7L1057.21,165.38L1093.64,165.38L1094.75,163.91L1106.95,159.5L1108.06,155.82L1113.61,151.41L1114.72,146.26L1116.94,146.26L1118.04,138.18L1120.26,138.18L1121.37,129.36L1123.59,129.36L1124.7,119.07L1126.92,119.07L1128.03,106.57L1130.25,106.57L1131.36,94.08L1133.57,94.08L1134.68,80.85L1136.9,80.85L1138.01,66.15L1140.23,66.15L1141.34,49.98L1143.56,49.98L1144.67,34.55L1146.89,34.55L1147.99,19.11L1150.21,19.11L1151.32,2.2L1153.54,2.2L1154.65,-13.23L1156.87,-13.23L1157.98,-28.66L1160.2,-28.66L1161.31,-44.1L1163.52,-44.1L1164.63,-59.53L1166.85,-59.53L1167.96,-74.24L1170.18,-74.24L1171.29,-88.94L1173.51,-88.94L1174.62,-104.37L1176.84,-104.37L1177.94,-119.07L1180.16,-119.07L1181.27,-134.5L1183.49,-134.5L1184.6,-149.21L1186.82,-149.21L1187.93,-163.17L1190.15,-163.17L1191.26,-175.66L1193.47,-175.66L1194.58,-186.69L1200.13,-194.77L1201.24,-202.86L1206.79,-208.74L1207.89,-213.15L1213.44,-218.29L1214.55,-222.7L1223.42,-229.32L1224.53,-232.99L1233.41,-238.14L1234.52,-241.81L1243.39,-249.9L1244.5,-253.58L1332.31,-249.16L1333.42,-247.69L1348.95,-238.14L1350.06,-235.93L1362.26,-227.11L1363.37,-223.44L1372.24,-216.09L1373.35,-211.68L1382.23,-203.6L1383.34,-199.19L1391.1,-190.36L1392.21,-185.96L1402.19,-177.13L1403.3,-172.73L1412.18,-163.9L1413.29,-159.49L1422.16,-150.67L1423.27,-146.26L1432.14,-137.44L1433.25,-133.03L1488.71,-35.28L1489.82,-27.2L1502.96,-5.15L1507.39,-14.7L1509.61,-14.7L1527.36,-47.77L1529.58,-47.77L1547.33,-77.17L1549.55,-77.17L1570.62,-109.51L1572.84,-109.51L1593.92,-163.17L1596.14,-163.17L1612.77,-180.08L1613.88,-181.54L1639.4,-190.36L1640.51,-196.24L1670.46,-258.72L1728.31,-258.72L1759.2,-253.58L1760.31,-254.31L1808.18,-249.16L1809.29,-245.49L1842.39,-219.03L1843.5,-220.5L1889.16,-222.7L1908.01,-222.7L1915.6,-219.03L1922.26,-232.26L1923.37,-238.87L1933.35,-258.72L2140.96,-258.72L2184.22,-183.01L2185.33,-173.46L2258.45,-1.59L2259.47,-2.94L2265.02,-2.94L2311.61,-37.49L2312.72,-42.63L2422.53,-133.77L2424.75,-133.77L2540.29,-202.12L2541.4,-198.45L2587.99,-172.73L2593.54,-172.73L2630.14,-138.18L2631.25,-131.56L2704.46,-20.58L2706.68,-20.58L2724.25,-5.15L2738.67,-18.38L2740.89,-18.38L2891.75,-258.72L3039.46,-258.72L3076.06,-199.19L3077.17,-195.51L3152.6,-100.7L3153.71,-96.28L3386.66,102.9L3388.88,102.9L3567.29,133.77L3591.87,133.77L3804.85,117.6" style="vector-effect: non-scaling-stroke; fill: none; stroke: rgb(148, 103, 189); stroke-opacity: 1; stroke-width: 0px; opacity: 1;"/></g><g class="points"/><g class="text"/></g></g></g><g class="overplot"/><path class="xlines-above crisp" d="M69,404.5H679" style="fill: none; stroke-width: 1px; stroke: rgb(68, 68, 68); stroke-opacity: 1;"/><path class="ylines-above crisp" d="M69.5,100V404" style="fill: none; stroke-width: 1px; stroke: rgb(68, 68, 68); stroke-opacity: 1;"/><g class="overlines-above"/><g class="xaxislayer-above"><path class="xtick ticks crisp" d="M0,405v5" transform="translate(168.74,0)" style="stroke: rgb(68, 68, 68); stroke-opacity: 1; stroke-width: 1px;"/><path class="xtick ticks crisp" d="M0,405v5" transform="translate(279.66999999999996,0)" style="stroke: rgb(68, 68, 68); stroke-opacity: 1; stroke-width: 1px;"/><path class="xtick ticks crisp" d="M0,405v5" transform="translate(390.59,0)" style="stroke: rgb(68, 68, 68); stroke-opacity: 1; stroke-width: 1px;"/><path class="xtick ticks crisp" d="M0,405v5" transform="translate(501.52,0)" style="stroke: rgb(68, 68, 68); stroke-opacity: 1; stroke-width: 1px;"/><path class="xtick ticks crisp" d="M0,405v5" transform="translate(612.44,0)" style="stroke: rgb(68, 68, 68); stroke-opacity: 1; stroke-width: 1px;"/><g class="xtick"><text text-anchor="middle" x="0" y="424.4" transform="translate(168.74,0)" style="font-family: 'Open Sans', verdana, arial, sans-serif; font-size: 12px; fill: rgb(68, 68, 68); fill-opacity: 1; white-space: pre;">62500</text></g><g class="xtick"><text text-anchor="middle" x="0" y="424.4" transform="translate(279.66999999999996,0)" style="font-family: 'Open Sans', verdana, arial, sans-serif; font-size: 12px; fill: rgb(68, 68, 68); fill-opacity: 1; white-space: pre;">63000</text></g><g class="xtick"><text text-anchor="middle" x="0" y="424.4" transform="translate(390.59,0)" style="font-family: 'Open Sans', verdana, arial, sans-serif; font-size: 12px; fill: rgb(68, 68, 68); fill-opacity: 1; white-space: pre;">63500</text></g><g class="xtick"><text text-anchor="middle" x="0" y="424.4" transform="translate(501.52,0)" style="font-family: 'Open Sans', verdana, arial, sans-serif; font-size: 12px; fill: rgb(68, 68, 68); fill-opacity: 1; white-space: pre;">64000</text></g><g class="xtick"><text text-anchor="middle" x="0" y="424.4" transform="translate(612.44,0)" style="font-family: 'Open Sans', verdana, arial, sans-serif; font-size: 12px; fill: rgb(68, 68, 68); fill-opacity: 1; white-space: pre;">64500</text></g></g><g class="yaxislayer-above"><path class="ytick ticks crisp" d="M69,0h-5" transform="translate(0,394)" style="stroke: rgb(68, 68, 68); stroke-opacity: 1; stroke-width: 1px;"/><path class="ytick ticks crisp" d="M69,0h-5" transform="translate(0,357.25)" style="stroke: rgb(68, 68, 68); stroke-opacity: 1; stroke-width: 1px;"/><path class="ytick ticks crisp" d="M69,0h-5" transform="translate(0,320.5)" style="stroke: rgb(68, 68, 68); stroke-opacity: 1; stroke-width: 1px;"/><path class="ytick ticks crisp" d="M69,0h-5" transform="translate(0,283.75)" style="stroke: rgb(68, 68, 68); stroke-opacity: 1; stroke-width: 1px;"/><path class="ytick ticks crisp" d="M69,0h-5" transform="translate(0,247)" style="stroke: rgb(68, 68, 68); stroke-opacity: 1; stroke-width: 1px;"/><path class="ytick ticks crisp" d="M69,0h-5" transform="translate(0,210.25)" style="stroke: rgb(68, 68, 68); stroke-opacity: 1; stroke-width: 1px;"/><path class="ytick ticks crisp" d="M69,0h-5" transform="translate(0,173.5)" style="stroke: rgb(68, 68, 68); stroke-opacity: 1; stroke-width: 1px;"/><path class="ytick ticks crisp" d="M69,0h-5" transform="translate(0,136.75)" style="stroke: rgb(68, 68, 68); stroke-opacity: 1; stroke-width: 1px;"/><path class="ytick ticks crisp" d="M69,0h-5" transform="translate(0,100)" style="stroke: rgb(68, 68, 68); stroke-opacity: 1; stroke-width: 1px;"/><g class="ytick"><text text-anchor="end" x="61.6" y="4.199999999999999" transform="translate(0,394)" style="font-family: 'Open Sans', verdana, arial, sans-serif; font-size: 12px; fill: rgb(68, 68, 68); fill-opacity: 1; white-space: pre;">0.25</text></g><g class="ytick"><text text-anchor="end" x="61.6" y="4.199999999999999" transform="translate(0,357.25)" style="font-family: 'Open Sans', verdana, arial, sans-serif; font-size: 12px; fill: rgb(68, 68, 68); fill-opacity: 1; white-space: pre;">0.3</text></g><g class="ytick"><text text-anchor="end" x="61.6" y="4.199999999999999" transform="translate(0,320.5)" style="font-family: 'Open Sans', verdana, arial, sans-serif; font-size: 12px; fill: rgb(68, 68, 68); fill-opacity: 1; white-space: pre;">0.35</text></g><g class="ytick"><text text-anchor="end" x="61.6" y="4.199999999999999" transform="translate(0,283.75)" style="font-family: 'Open Sans', verdana, arial, sans-serif; font-size: 12px; fill: rgb(68, 68, 68); fill-opacity: 1; white-space: pre;">0.4</text></g><g class="ytick"><text text-anchor="end" x="61.6" y="4.199999999999999" transform="translate(0,247)" style="font-family: 'Open Sans', verdana, arial, sans-serif; font-size: 12px; fill: rgb(68, 68, 68); fill-opacity: 1; white-space: pre;">0.45</text></g><g class="ytick"><text text-anchor="end" x="61.6" y="4.199999999999999" transform="translate(0,210.25)" style="font-family: 'Open Sans', verdana, arial, sans-serif; font-size: 12px; fill: rgb(68, 68, 68); fill-opacity: 1; white-space: pre;">0.5</text></g><g class="ytick"><text text-anchor="end" x="61.6" y="4.199999999999999" transform="translate(0,173.5)" style="font-family: 'Open Sans', verdana, arial, sans-serif; font-size: 12px; fill: rgb(68, 68, 68); fill-opacity: 1; white-space: pre;">0.55</text></g><g class="ytick"><text text-anchor="end" x="61.6" y="4.199999999999999" transform="translate(0,136.75)" style="font-family: 'Open Sans', verdana, arial, sans-serif; font-size: 12px; fill: rgb(68, 68, 68); fill-opacity: 1; white-space: pre;">0.6</text></g><g class="ytick"><text text-anchor="end" x="61.6" y="4.199999999999999" transform="translate(0,100)" style="font-family: 'Open Sans', verdana, arial, sans-serif; font-size: 12px; fill: rgb(68, 68, 68); fill-opacity: 1; white-space: pre;">0.65</text></g></g><g class="overaxes-above"/></g><g class="subplot xy2"><g class="layer-subplot"><g class="shapelayer"/><g class="imagelayer"/></g><g class="gridlayer"><g class="x"><path class="xgrid crisp" d="M0,457v63" transform="translate(168.74,0)" style="stroke: rgb(238, 238, 238); stroke-opacity: 1; stroke-width: 1px;"/><path class="xgrid crisp" d="M0,457v63" transform="translate(279.66999999999996,0)" style="stroke: rgb(238, 238, 238); stroke-opacity: 1; stroke-width: 1px;"/><path class="xgrid crisp" d="M0,457v63" transform="translate(390.59,0)" style="stroke: rgb(238, 238, 238); stroke-opacity: 1; stroke-width: 1px;"/><path class="xgrid crisp" d="M0,457v63" transform="translate(501.52,0)" style="stroke: rgb(238, 238, 238); stroke-opacity: 1; stroke-width: 1px;"/><path class="xgrid crisp" d="M0,457v63" transform="translate(612.44,0)" style="stroke: rgb(238, 238, 238); stroke-opacity: 1; stroke-width: 1px;"/></g><g class="y2"><path class="y2grid crisp" d="M80,0h599" transform="translate(0,516.85)" style="stroke: rgb(238, 238, 238); stroke-opacity: 1; stroke-width: 1px;"/><path class="y2grid crisp" d="M80,0h599" transform="translate(0,502.03)" style="stroke: rgb(238, 238, 238); stroke-opacity: 1; stroke-width: 1px;"/><path class="y2grid crisp" d="M80,0h599" transform="translate(0,487.21)" style="stroke: rgb(238, 238, 238); stroke-opacity: 1; stroke-width: 1px;"/><path class="y2grid crisp" d="M80,0h599" transform="translate(0,472.39)" style="stroke: rgb(238, 238, 238); stroke-opacity: 1; stroke-width: 1px;"/></g></g><g class="zerolinelayer"/><path class="xlines-below"/><path class="ylines-below"/><g class="overlines-below"/><g class="xaxislayer-below"/><g class="yaxislayer-below"/><g class="overaxes-below"/><g class="plot" transform="translate(80, 457)" clip-path="url(#clipfa3e7bxy2plot)"><g class="scatterlayer mlayer"><g class="trace scatter trace1fab6bb4-6630-4628-b5c3-8d284c9ab1be" style="stroke-miterlimit: 2; opacity: 1;"><g class="fills"/><g class="errorbars"/><g class="lines"><path class="js-line" d="M-1797,59.85L73.21,59.85L74.32,58.53L75.43,59.46L76.54,57.67L77.65,55.88L78.76,57.3L82.09,53.41L83.19,55.32L86.52,52.91L87.63,55.32L90.96,54.4L92.07,57.3L95.4,57.85L96.51,59.85L124.24,59.85L125.35,53.97L126.46,52.64L127.56,54.98L128.67,51.64L129.78,51.27L130.89,54.12L132,54.24L135.33,54.61L136.44,57.94L140.88,59.85L141.99,59.85L170.83,59.85L171.94,58.67L174.15,59.85L175.26,52.86L177.48,53.62L178.59,54.24L180.81,55.47L181.92,53.36L183.03,59.85L184.14,59.85L268.44,59.85L269.55,58.75L270.66,58.01L271.77,54.55L272.88,51.09L273.99,50.84L275.1,47.88L276.21,48.13L278.42,43.19L279.53,43.93L281.75,39.97L282.86,41.21L283.97,39.73L285.08,41.46L288.41,38.49L289.52,40.72L292.84,39.23L293.95,41.95L305.05,41.95L306.16,44.92L311.7,45.15L312.81,47.88L313.92,47.88L315.03,50.73L316.14,59.85L317.25,59.85L379.37,59.7L380.48,55.69L381.59,54.52L382.69,59.85L393.79,59.85L394.9,58.67L396.01,59.06L397.11,53.99L398.22,52.61L399.33,56.71L401.55,49.03L402.66,53.62L403.77,50.04L404.88,49.91L405.99,49.55L407.1,46.46L408.21,43.85L409.32,49.42L411.54,44.95L412.64,50.53L414.86,45.82L415.97,51.89L418.19,48.17L419.3,51.52L421.52,47.8L422.63,51.15L424.85,47.43L425.96,50.78L428.17,47.06L429.28,50.41L431.5,46.69L432.61,50.04L434.83,46.08L435.94,46.71L438.16,42.98L439.27,46.34L441.49,42.37L442.59,43L444.81,39.28L445.92,45.84L447.03,44.23L448.14,45.48L449.25,59.85L450.36,59.85L457.01,59.85L458.12,57.84L459.23,55.45L460.34,50.32L462.56,43.28L463.67,38.65L464.78,37.23L465.89,33.09L467,32.16L468.11,28.52L470.33,28.15L471.44,25.49L473.65,27.1L474.76,25.43L475.87,26.98L476.98,25.8L479.2,30.37L480.31,30.19L481.42,30L482.53,33.03L483.64,33.33L484.75,36.86L486.96,38.46L488.07,42.48L490.29,45.07L491.4,40.91L493.62,43.03L494.73,38.88L496.95,40.99L498.06,39.56L500.28,41.92L501.39,35.04L502.49,32.41L503.6,33.21L504.71,31.29L505.82,31.85L506.93,32.66L508.04,27.52L510.26,27.9L511.37,25.25L514.7,26.17L515.81,56.12L516.91,56.43L518.02,57.93L519.13,59.85L520.24,59.85L523.57,59.85L524.68,59.08L526.9,59.85L528.01,56.37L529.12,59.85L530.23,56.15L531.34,52.43L532.44,53.68L534.66,45.76L535.77,47.01L536.88,46.03L537.99,42.32L541.32,31.21L542.43,30.71L543.54,27.5L544.65,27.5L545.76,24.78L546.86,25.28L547.97,23.05L549.08,24.04L551.3,27.5L552.41,26.76L554.63,32.19L555.74,32.44L556.85,35.9L557.96,36.64L560.18,41.83L561.29,40.34L563.5,42.57L564.61,41.08L566.83,43.31L567.94,39.09L569.05,39.85L570.16,37.88L571.27,30.44L572.38,36.39L573.49,33.92L574.6,34.88L575.71,43.31L576.81,40.35L577.92,40.81L579.03,45.53L580.14,44.79L581.25,47.37L582.36,59.85L583.47,59.85L612.31,59.85L613.42,53.96L616.75,39.95L617.86,33.71L621.19,26.11L622.29,24.57L624.51,19.25L625.62,18.7L627.84,19.07L628.95,20L632.28,25.74L633.39,28.64L637.82,41.49L638.93,43.16L640.04,44.82L641.15,43.76L643.37,46.86L644.48,40.35L646.7,42.97L647.81,30.52L648.92,59.85L650.03,59.85L693.29,57.94L694.4,50.4L699.94,25.83L701.05,22.74L706.6,14.72L707.71,17.81L708.82,18.67L709.93,23.24L713.25,31.76L714.36,35.59L722.13,59.85L723.24,48.53L724.35,45.06L725.46,59.85L727.67,54.64L728.78,59.85L729.89,59.85L731,56.55L734.33,59.85L735.44,59.85L775.37,59.85L776.48,56.68L780.92,33.11L782.03,56.25L785.36,45.56L786.46,46.12L787.57,44.45L788.68,43.28L789.79,16.51L795.34,5.14L796.45,7.12L800.89,9.1L801.99,10.83L806.43,22.68L807.54,26.88L810.87,39.72L811.98,42.44L816.41,56.77L817.52,53.03L819.74,59.85L820.85,51.78L823.07,59.85L825.29,58.26L826.4,59.85L827.51,51.77L829.73,59.85L830.84,55.74L833.05,59.85L834.16,54.49L835.27,58.5L836.38,59.85L840.82,51.76L841.93,55.54L846.36,59.85L847.47,56.22L851.91,59.85L853.02,59.85L855.24,59.85L856.35,46.74L857.46,30.06L858.57,30.8L859.68,33.21L860.79,19.26L863,25.86L864.11,12.4L868.55,22.84L869.66,26.24L870.77,29.63L871.88,36.24L879.64,54.08L880.75,45.33L886.3,58.41L887.41,53.36L892.95,59.85L894.06,59.85L1029.39,59.85L1030.5,52L1032.72,58.75L1033.83,47.82L1036.05,57.27L1037.16,45.85L1039.38,54.55L1040.49,42.64L1042.7,50.35L1043.81,38.43L1046.03,42.69L1047.14,33.01L1049.36,39.73L1050.47,29.56L1052.69,35.53L1053.8,27.59L1056.01,32.81L1057.12,18.93L1059.34,22.68L1060.45,13.76L1062.67,17L1063.78,10.31L1066,12.8L1067.11,8.83L1077.09,3.64L1078.2,9.1L1087.07,6.84L1088.18,14.04L1100.39,10.55L1101.49,17.25L1107.04,16.95L1108.15,29.1L1110.37,24.35L1111.48,38.74L1113.7,36.45L1114.81,53.56L1117.02,48.51L1118.13,59.85L1120.35,59.85L1121.46,59.85L1219.08,57.02L1220.19,51.3L1221.29,56.03L1226.84,44.13L1227.95,48.13L1229.06,44.42L1233.5,36.22L1236.82,38.19L1237.93,49.61L1241.26,53.81L1243.48,46.1L1244.59,55.29L1246.81,47.58L1247.92,59.85L1252.35,59.85L1253.46,59.85L3793.67,59.85" style="vector-effect: non-scaling-stroke; fill: none; stroke: rgb(31, 119, 180); stroke-opacity: 1; stroke-width: 2px; opacity: 1;"/></g><g class="points"/><g class="text"/></g></g></g><g class="overplot"/><path class="xlines-above crisp" d="M0,0" style="fill: none;"/><path class="ylines-above crisp" d="M69.5,457V520" style="fill: none; stroke-width: 1px; stroke: rgb(68, 68, 68); stroke-opacity: 1;"/><g class="overlines-above"/><g class="xaxislayer-above"/><g class="yaxislayer-above"><path class="y2tick ticks crisp" d="M69,0h-5" transform="translate(0,516.85)" style="stroke: rgb(68, 68, 68); stroke-opacity: 1; stroke-width: 1px;"/><path class="y2tick ticks crisp" d="M69,0h-5" transform="translate(0,502.03)" style="stroke: rgb(68, 68, 68); stroke-opacity: 1; stroke-width: 1px;"/><path class="y2tick ticks crisp" d="M69,0h-5" transform="translate(0,487.21)" style="stroke: rgb(68, 68, 68); stroke-opacity: 1; stroke-width: 1px;"/><path class="y2tick ticks crisp" d="M69,0h-5" transform="translate(0,472.39)" style="stroke: rgb(68, 68, 68); stroke-opacity: 1; stroke-width: 1px;"/><path class="y2tick ticks crisp" d="M69,0h-5" transform="translate(0,457.57)" style="stroke: rgb(68, 68, 68); stroke-opacity: 1; stroke-width: 1px;"/><g class="y2tick"><text text-anchor="end" x="61.6" y="4.199999999999999" transform="translate(0,516.85)" style="font-family: 'Open Sans', verdana, arial, sans-serif; font-size: 12px; fill: rgb(68, 68, 68); fill-opacity: 1; white-space: pre;">0</text></g><g class="y2tick"><text text-anchor="end" x="61.6" y="4.199999999999999" transform="translate(0,502.03)" style="font-family: 'Open Sans', verdana, arial, sans-serif; font-size: 12px; fill: rgb(68, 68, 68); fill-opacity: 1; white-space: pre;">0.005</text></g><g class="y2tick"><text text-anchor="end" x="61.6" y="4.199999999999999" transform="translate(0,487.21)" style="font-family: 'Open Sans', verdana, arial, sans-serif; font-size: 12px; fill: rgb(68, 68, 68); fill-opacity: 1; white-space: pre;">0.01</text></g><g class="y2tick"><text text-anchor="end" x="61.6" y="4.199999999999999" transform="translate(0,472.39)" style="font-family: 'Open Sans', verdana, arial, sans-serif; font-size: 12px; fill: rgb(68, 68, 68); fill-opacity: 1; white-space: pre;">0.015</text></g><g class="y2tick"><text text-anchor="end" x="61.6" y="4.199999999999999" transform="translate(0,457.57)" style="font-family: 'Open Sans', verdana, arial, sans-serif; font-size: 12px; fill: rgb(68, 68, 68); fill-opacity: 1; white-space: pre;">0.02</text></g></g><g class="overaxes-above"/></g></g><g class="polarlayer"/><g class="ternarylayer"/><g class="geolayer"/><g class="pielayer"/><g class="glimages"/><defs id="topdefs-fa3e7b"><g class="clips"/><clipPath id="legendfa3e7b"><rect width="97" height="67" x="0" y="0"/></clipPath></defs><g class="layer-above"><g class="imagelayer"/><g class="shapelayer"/></g><g class="infolayer"><g class="legend" pointer-events="all" transform="translate(690.98, 100)"><rect class="bg" shape-rendering="crispEdges" width="97" height="67" x="0" y="0" style="stroke: rgb(68, 68, 68); stroke-opacity: 1; fill: rgb(255, 255, 255); fill-opacity: 1; stroke-width: 0px;"/><g class="scrollbox" transform="translate(0, 0)" clip-path="url(#legendfa3e7b)"><g class="groups"><g class="traces" transform="translate(0, 14.5)" style="opacity: 1;"><g class="layers"><g class="legendfill"><path class="js-fill" d="M5,-2h30v6h-30z" style="stroke-width: 0; fill: rgb(68, 68, 68); fill-opacity: 0.3;"/></g><g class="legendlines"><path class="js-line" d="M5,-2h30" style="fill: none; stroke: rgb(214, 39, 40); stroke-opacity: 1; stroke-width: 2px;"/></g><g class="legendsymbols"><g class="legendpoints"/></g></g><text class="legendtext user-select-none" text-anchor="start" x="40" y="4.680000000000001" style="font-family: 'Open Sans', verdana, arial, sans-serif; font-size: 12px; fill: rgb(68, 68, 68); fill-opacity: 1; white-space: pre;">reference</text><rect class="legendtoggle" pointer-events="all" x="0" y="-9.5" width="137" height="19" style="cursor: pointer; fill: rgb(0, 0, 0); fill-opacity: 0;"/></g><g class="traces" transform="translate(0, 33.5)" style="opacity: 1;"><g class="layers" style="opacity: 1;"><g class="legendfill"/><g class="legendlines"><path class="js-line" d="M5,0h30" style="fill: none; stroke: rgb(255, 127, 14); stroke-opacity: 1; stroke-width: 2px;"/></g><g class="legendsymbols"><g class="legendpoints"/></g></g><text class="legendtext user-select-none" text-anchor="start" x="40" y="4.680000000000001" style="font-family: 'Open Sans', verdana, arial, sans-serif; font-size: 12px; fill: rgb(68, 68, 68); fill-opacity: 1; white-space: pre;">test</text><rect class="legendtoggle" pointer-events="all" x="0" y="-9.5" width="137" height="19" style="cursor: pointer; fill: rgb(0, 0, 0); fill-opacity: 0;"/></g><g class="traces" transform="translate(0, 52.5)" style="opacity: 1;"><g class="layers" style="opacity: 1;"><g class="legendfill"/><g class="legendlines"><path class="js-line" d="M5,0h30" style="fill: none; stroke: rgb(31, 119, 180); stroke-opacity: 1; stroke-width: 2px;"/></g><g class="legendsymbols"><g class="legendpoints"/></g></g><text class="legendtext user-select-none" text-anchor="start" x="40" y="4.680000000000001" style="font-family: 'Open Sans', verdana, arial, sans-serif; font-size: 12px; fill: rgb(68, 68, 68); fill-opacity: 1; white-space: pre;">error</text><rect class="legendtoggle" pointer-events="all" x="0" y="-9.5" width="137" height="19" style="cursor: pointer; fill: rgb(0, 0, 0); fill-opacity: 0;"/></g></g></g><rect class="scrollbar" rx="20" ry="3" width="0" height="0" x="0" y="0" style="fill: rgb(128, 139, 164); fill-opacity: 1;"/></g><g class="g-gtitle"/><g class="g-xtitle"><text class="xtitle" x="379.5" y="446" text-anchor="middle" style="font-family: 'Open Sans', verdana, arial, sans-serif; font-size: 14px; fill: rgb(68, 68, 68); opacity: 1; font-weight: normal; white-space: pre;">x</text></g><g class="g-ytitle" transform="translate(-9.265625,0)"><text class="ytitle" transform="rotate(-90,42,247)" x="42" y="247" text-anchor="middle" style="font-family: 'Open Sans', verdana, arial, sans-serif; font-size: 14px; fill: rgb(68, 68, 68); opacity: 1; font-weight: normal; white-space: pre;">y</text></g><g class="g-y2title" transform="translate(-15.9375,0)"><text class="y2title" transform="rotate(-90,42,488.5)" x="42" y="488.5" text-anchor="middle" style="font-family: 'Open Sans', verdana, arial, sans-serif; font-size: 14px; fill: rgb(68, 68, 68); opacity: 1; font-weight: normal; white-space: pre;">error [y]</text></g></g></svg>