<svg class="main-svg" xmlns="http://www.w3.org/2000/svg" xmlns:xlink="http://www.w3.org/1999/xlink" width="800" height="600" style="" viewBox="0 0 800 600"><rect x="0" y="0" width="800" height="600" style="fill: rgb(255, 255, 255); fill-opacity: 1;"/><defs id="defs-c85600"><g class="clips"><clipPath id="clipc85600xyplot" class="plotclip"><rect width="597" height="327.6"/></clipPath><clipPath id="clipc85600xy2plot" class="plotclip"><rect width="597" height="63"/></clipPath><clipPath class="axesclip" id="clipc85600x"><rect x="80" y="0" width="597" height="600"/></clipPath><clipPath class="axesclip" id="clipc85600y"><rect x="0" y="100" width="800" height="327.6"/></clipPath><clipPath class="axesclip" id="clipc85600xy"><rect x="80" y="100" width="597" height="327.6"/></clipPath><clipPath class="axesclip" id="clipc85600y2"><rect x="0" y="457" width="800" height="63"/></clipPath><clipPath class="axesclip" id="clipc85600xy2"><rect x="80" y="457" width="597" height="63"/></clipPath></g><g class="gradients"/></defs><g class="bglayer"/><g class="layer-below"><g class="imagelayer"/><g class="shapelayer"/></g><g class="cartesianlayer"><g class="subplot xy"><g class="layer-subplot"><g class="shapelayer"/><g class="imagelayer"/></g><g class="gridlayer"><g class="x"><path class="xgrid crisp" d="M0,100v327.6" transform="translate(168.44,0)" style="stroke: rgb(238, 238, 238); stroke-opacity: 1; stroke-width: 1px;"/><path class="xgrid crisp" d="M0,100v327.6" transform="translate(279,0)" style="stroke: rgb(238, 238, 238); stroke-opacity: 1; stroke-width: 1px;"/><path class="xgrid crisp" d="M0,100v327.6" transform="translate(389.56,0)" style="stroke: rgb(238, 238, 238); stroke-opacity: 1; stroke-width: 1px;"/><path class="xgrid crisp" d="M0,100v327.6" transform="translate(500.11,0)" style="stroke: rgb(238, 238, 238); stroke-opacity: 1; stroke-width: 1px;"/><path class="xgrid crisp" d="M0,100v327.6" transform="translate(610.67,0)" style="stroke: rgb(238, 238, 238); stroke-opacity: 1; stroke-width: 1px;"/></g><g class="y"><path class="ygrid crisp" d="M80,0h597" transform="translate(0,386.65)" style="stroke: rgb(238, 238, 238); stroke-opacity: 1; stroke-width: 1px;"/><path class="ygrid crisp" d="M80,0h597" transform="translate(0,345.7)" style="stroke: rgb(238, 238, 238); stroke-opacity: 1; stroke-width: 1px;"/><path class="ygrid crisp" d="M80,0h597" transform="translate(0,304.75)" style="stroke: rgb(238, 238, 238); stroke-opacity: 1; stroke-width: 1px;"/><path class="ygrid crisp" d="M80,0h597" transform="translate(0,263.8)" style="stroke: rgb(238, 238, 238); stroke-opacity: 1; stroke-width: 1px;"/><path class="ygrid crisp" d="M80,0h597" transform="translate(0,222.85)" style="stroke: rgb(238, 238, 238); stroke-opacity: 1; stroke-width: 1px;"/><path class="ygrid crisp" d="M80,0h597" transform="translate(0,181.9)" style="stroke: rgb(238, 238, 238); stroke-opacity: 1; stroke-width: 1px;"/><path class="ygrid crisp" d="M80,0h597" transform="translate(0,140.95)" style="stroke: rgb(238, 238, 238); stroke-opacity: 1; stroke-width: 1px;"/></g></g><g class="zerolinelayer"/><path class="xlines-below"/><path class="ylines-below"/><g class="overlines-below"/><g class="xaxislayer-below"/><g class="yaxislayer-below"/><g class="overaxes-below"/><g class="plot" transform="translate(80, 100)" clip-path="url(#clipc85600xyplot)"><g class="scatterlayer mlayer"><g class="trace scatter traceeaeb48ea-0df1-4a48-97d3-44f29928bcd3" style="stroke-miterlimit: 2; opacity: 1;"><g class="fills"/><g class="errorbars"/><g class="lines"><path class="js-line" d="M-1791,532.35L-142.62,527.3L-141.51,523.08L-98.39,492.01L-97.29,491.21L-76.28,477.54L-75.18,470.22L-18.79,387.35L-17.69,385.66L-9.95,373.83L-8.84,364.94L3.32,335.86L4.42,334.09L28.74,279.96L29.85,278.46L35.38,268.36L36.48,267.13L39.8,262.22L40.91,261.26L44.22,257.17L45.33,256.49L48.64,253.21L49.75,252.8L51.96,251.37L53.07,251.23L55.28,250.34L56.38,249.59L57.49,242.52L58.59,241.68L60.81,239.4L61.91,238.84L65.23,235.92L66.33,235.63L69.65,233.53L70.76,233.51L72.97,232.86L74.07,232.23L76.28,231.99L77.39,231.5L79.6,231.53L80.71,231.17L81.81,230.82L82.92,231.34L86.23,230.68L87.34,231.34L90.66,231.09L91.76,231.89L95.08,232.04L96.18,232.98L98.39,233.36L99.5,234.43L102.82,235.41L103.92,236.62L108.34,238.46L109.45,239.81L114.98,242.79L116.08,244.28L120.51,247.21L121.61,248.83L122.72,249.7L123.82,243.37L126.03,242.89L127.14,243.54L129.35,243.33L130.46,244.12L134.88,244.25L135.98,245.17L139.3,245.69L140.41,246.74L147.04,248.59L148.14,249.78L164.73,256.43L165.83,255.99L173.57,258.14L174.68,257.56L189.05,259.78L190.16,252.74L205.63,240.49L206.74,239.69L236.59,217.15L237.69,216.21L241.01,214.28L242.12,213.48L250.96,207.95L252.07,207.29L253.17,206.62L254.28,206.84L255.38,206.31L256.49,198.58L258.7,196.32L259.81,194.82L262.02,192.84L263.12,191.48L266.44,189.43L267.54,188.34L270.86,186.09L271.97,185.13L275.28,184.31L276.39,183.63L277.49,182.95L278.6,183.15L280.81,182.06L281.92,182.4L283.02,181.99L284.13,182.47L287.44,181.65L288.55,182.26L291.87,181.85L292.97,182.61L313.98,182.61L315.08,181.72L321.72,180.9L322.82,173.55L327.24,167.55L328.35,166.17L343.83,147.98L344.93,146.73L376.99,111.63L378.1,110.52L382.52,107.11L383.63,106.14L386.94,105.27L388.05,104.57L389.16,97.55L390.26,95.88L393.58,92.91L394.68,91.51L396.89,89.6L398,89.22L402.42,85.74L403.53,85.64L407.95,83.11L409.06,82.4L413.48,79.53L414.58,79.7L443.33,64.62L444.43,64.93L454.38,60.93L455.49,53.28L457.7,51.2L458.81,49.78L462.12,46.56L463.23,46.17L466.54,43.76L467.65,43.64L468.76,43.66L469.86,42.92L474.28,43.33L475.39,43.01L478.71,44.22L479.81,44.17L483.13,46.06L484.23,46.28L485.34,46.51L486.44,47.62L499.71,51.92L500.82,51.39L505.24,52.27L506.34,51.61L520.72,52.72L521.82,45.59L526.24,40.61L527.35,39.45L536.19,31.19L537.3,30.17L541.72,27.1L542.83,27.1L545.04,26.48L546.14,25.87L551.67,27.58L552.78,28.39L553.88,28.46L554.99,29.42L556.09,29.62L557.2,30.71L567.15,33.79L568.26,33.24L570.47,33.65L571.57,32.97L573.78,33.1L574.89,32.28L575.99,32.22L577.1,31.26L579.31,30.85L580.42,29.76L581.52,29.42L582.63,28.19L585.94,26.76L587.05,25.39L588.16,17.57L589.26,15.85L594.79,5.93L595.89,4.07L616.9,-30.17L618.01,-30.87L624.64,-33.5L625.74,-33.38L631.27,-30.74L632.38,-29.8L636.8,-26.73L637.91,-26.27L647.86,-23.28L648.96,-23.84L651.17,-24.35L652.28,-25.19L653.38,-25.28L654.49,-32.57L699.82,-115.8L700.92,-116.38L706.45,-116.21L707.56,-114.95L719.72,-106.25L720.82,-112.87L745.14,-148.33L746.25,-150.97L793.79,-229.15L794.89,-229.22L805.95,-222.39L807.06,-220.96L852.38,-157.83L853.49,-162.51L871.18,-146.88L872.28,-144.92L888.87,-120.95L889.97,-118.44L910.98,-76.72L912.08,-74.42L928.67,-40.78L929.77,-38.59L1032.59,156.53L1033.69,157.15L1055.81,174.01L1056.91,173.8L1074.6,175.17L1075.71,175.17L1118.82,152.1L1119.93,150.12L1134.3,107.39L1135.41,103.09L1168.57,-63.16L1169.68,-68.9L1212.79,-249.08L1213.9,-250.3L1233.8,-277.19L1234.91,-277.67L1254.81,-286.65L1255.91,-286.65L1312.29,-277.06L1313.4,-276.51L1346.57,-249.21L1347.67,-248.12L1384.16,-197.07L1385.26,-195.43L1459.33,-65.34L1460.44,-62.89L1495.82,4.34L1500.24,1.47L1501.34,0.72L1524.56,-35.31L1525.67,-37.23L1626.27,-199.8L1627.38,-199.18L1643.96,-213.65L1645.07,-215.77L1692.61,-286.65L1693.71,-286.65L1723.56,-271.82L1724.67,-269.84L1745.67,-266.77L1746.78,-267.93L1747.88,-268.34L1782.16,-280.89L1783.26,-279.87L1802.06,-251.96L1803.16,-249.91L1827.48,-233.12L1828.59,-233.87L1894.92,-242.2L1896.03,-240.76L1910.4,-231.96L1915.93,-239.88L1917.03,-241.58L1956.83,-286.65L1957.94,-286.65L2135.93,-267.2L2137.04,-264.95L2180.16,-147.84L2181.26,-143.26L2240.96,-0.55L2242.07,0.13L2296.24,-16.86L2297.34,-18.57L2444.38,-160.12L2445.49,-160.8L2520.67,-221.82L2527.3,-211.99L2528.41,-210.76L2571.52,-192.33L2572.63,-192.2L2608.01,-155.21L2609.11,-152.54L2700.87,-2.19L2701.98,-1.85L2737.36,-18.16L2738.46,-19.12L2843.49,-179.44L2844.59,-181.89L2915.35,-286.65L2916.46,-286.65L3034.75,-257.53L3035.86,-254.59L3139.78,-94.55L3140.88,-92.77L3319.98,98.47L3321.09,99.15L3551.04,153.47L3552.15,153.34L3781,132.93" style="vector-effect: non-scaling-stroke; fill: none; stroke: rgb(255, 127, 14); stroke-opacity: 1; stroke-width: 2px; opacity: 1;"/></g><g class="points"/><g class="text"/></g><g class="trace scatter tracea428d6d5-a442-499e-9ac8-b0a122016dfb" style="stroke-miterlimit: 2;"><g class="fills"><g><path class="js-fill" d="M-1791,532.35L-142.62,527.44L-141.51,526.62L-139.3,526.62L-138.19,520.07L-129.35,515.15L-128.24,511.88L-119.4,507.78L-118.29,505.32L-109.45,501.23L-108.34,499.59L-102.82,497.95L-101.71,494.68L-96.18,492.22L-95.08,489.76L-89.55,487.31L-88.44,484.85L-82.92,482.39L-81.81,479.93L-72.97,476.66L-71.86,465.19L-69.65,465.19L-68.54,460.28L-63.02,457L-61.91,452.09L-59.7,452.09L-58.59,447.17L-56.38,447.17L-55.28,442.26L-53.07,442.26L-51.96,438.17L-49.75,438.17L-48.64,432.43L-46.43,432.43L-45.33,426.7L-43.12,426.7L-42.01,421.79L-39.8,421.79L-38.69,418.51L-36.48,418.51L-35.38,413.6L-33.17,413.6L-32.06,408.68L-29.85,408.68L-28.74,402.95L-26.53,402.95L-25.43,398.03L-23.22,398.03L-22.11,393.12L-19.9,393.12L-18.79,387.39L-16.58,387.39L-15.48,382.47L-13.27,382.47L-12.16,377.56L-9.95,377.56L-8.84,372.65L-6.63,372.65L-5.53,357.08L-3.32,357.08L-2.21,350.53L0,350.53L1.11,342.34L3.32,342.34L4.42,334.15L6.63,334.15L7.74,327.6L9.95,327.6L11.06,320.23L13.27,320.23L14.37,312.04L16.58,312.04L17.69,304.67L19.9,304.67L21.01,297.3L23.22,297.3L24.32,289.93L26.53,289.93L27.64,283.37L29.85,283.37L30.96,277.64L33.17,277.64L34.27,271.91L35.38,271.91L36.48,266.99L39.8,266.99L40.91,262.08L43.12,262.08L44.22,258.8L46.43,258.8L47.54,255.53L49.75,255.53L50.86,253.89L53.07,253.89L54.17,252.25L56.38,252.25L57.49,251.43L59.7,251.43L60.81,241.61L63.02,241.61L64.12,239.15L66.33,239.15L67.44,237.51L69.65,237.51L70.76,235.87L76.28,235.87L77.39,235.05L79.6,235.05L80.71,234.23L82.92,234.23L84.02,235.05L86.23,235.05L87.34,234.23L92.87,234.23L93.97,235.87L96.18,235.87L97.29,236.69L99.5,236.69L100.61,239.15L102.82,239.15L103.92,239.97L106.13,239.97L107.24,241.61L109.45,241.61L110.56,244.88L112.77,244.88L113.87,246.52L116.08,246.52L117.19,248.98L119.4,248.98L120.51,251.43L122.72,251.43L123.82,254.71L126.03,254.71L127.14,247.34L129.35,247.34L130.46,248.16L132.67,248.16L133.77,248.98L135.98,248.98L137.09,250.61L142.62,250.61L143.72,252.25L145.93,252.25L147.04,253.89L149.25,253.89L150.36,255.53L152.57,255.53L153.67,257.17L155.88,257.17L156.99,257.99L159.2,257.99L160.31,259.62L162.52,259.62L163.62,261.26L169.15,261.26L170.26,262.08L172.47,262.08L173.57,262.9L182.42,262.9L183.52,263.72L185.73,263.72L186.84,264.54L192.37,264.54L193.47,255.53L195.68,255.53L196.79,252.25L199,252.25L200.11,249.8L202.32,249.8L203.42,246.52L205.63,246.52L206.74,244.88L208.95,244.88L210.06,242.42L212.27,242.42L213.37,240.79L215.58,240.79L216.69,238.33L218.9,238.33L220.01,235.87L222.22,235.87L223.32,233.42L225.53,233.42L226.64,230.96L228.85,230.96L229.96,228.5L232.17,228.5L233.27,226.04L235.48,226.04L236.59,223.59L238.8,223.59L239.91,220.31L242.12,220.31L243.22,218.67L245.43,218.67L246.54,216.22L248.75,216.22L249.86,213.76L252.07,213.76L253.17,212.12L255.38,212.12L256.49,211.3L258.7,211.3L259.81,201.47L262.02,201.47L263.12,198.2L265.33,198.2L266.44,194.92L268.65,194.92L269.76,192.47L271.97,192.47L273.07,190.83L275.28,190.83L276.39,190.01L278.6,190.01L279.71,189.19L295.18,189.19L296.29,190.01L315.08,190.01L316.19,188.37L321.72,188.37L322.82,187.55L325.03,187.55L326.14,177.72L328.35,177.72L329.46,171.99L331.67,171.99L332.77,167.9L334.98,167.9L336.09,163.8L338.3,163.8L339.41,159.7L341.62,159.7L342.72,157.25L344.93,157.25L346.04,153.15L348.25,153.15L349.36,149.88L351.57,149.88L352.67,145.78L354.88,145.78L355.99,141.69L358.2,141.69L359.31,138.41L361.52,138.41L362.62,134.32L364.83,134.32L365.94,131.04L368.15,131.04L369.26,126.95L371.47,126.95L372.57,123.67L373.68,123.67L374.78,119.57L378.1,119.57L379.21,117.12L381.42,117.12L382.52,114.66L384.73,114.66L385.84,113.02L388.05,113.02L389.16,112.2L391.37,112.2L392.47,102.38L394.68,102.38L395.79,99.1L398,99.1L399.11,97.46L401.32,97.46L402.42,95L404.63,95L405.74,93.37L407.95,93.37L409.06,91.73L411.27,91.73L412.37,90.09L414.58,90.09L415.69,89.27L417.9,89.27L419.01,87.63L421.22,87.63L422.32,85.18L424.53,85.18L425.64,83.54L427.85,83.54L428.96,81.9L431.17,81.9L432.27,80.26L434.48,80.26L435.59,78.62L437.8,78.62L438.91,76.99L441.12,76.99L442.22,75.35L444.43,75.35L445.54,74.53L447.75,74.53L448.86,72.89L451.07,72.89L452.17,72.07L454.38,72.07L455.49,70.43L457.7,70.43L458.81,60.61L461.02,60.61L462.12,57.33L464.33,57.33L465.44,54.87L467.65,54.87L468.76,54.05L477.6,54.05L478.71,55.69L480.92,55.69L482.02,57.33L484.23,57.33L485.34,58.15L487.55,58.15L488.66,60.61L490.87,60.61L491.97,61.43L494.18,61.43L495.29,62.24L497.5,62.24L498.61,63.88L500.82,63.88L501.92,63.06L504.13,63.06L505.24,63.88L517.4,63.88L518.51,64.7L524.03,64.7L525.14,54.87L527.35,54.87L528.46,50.78L530.67,50.78L531.77,46.68L533.98,46.68L535.09,43.41L537.3,43.41L538.41,40.95L540.62,40.95L541.72,39.31L543.93,39.31L545.04,37.67L547.25,37.67L548.36,38.49L550.57,38.49L551.67,39.31L553.88,39.31L554.99,40.95L557.2,40.95L558.31,43.41L560.52,43.41L561.62,45.05L563.83,45.05L564.94,45.86L567.15,45.86L568.26,46.68L573.78,46.68L574.89,45.86L577.1,45.86L578.21,43.41L580.42,43.41L581.52,41.77L583.73,41.77L584.84,39.31L587.05,39.31L588.16,36.86L590.37,36.86L591.47,25.39L593.68,25.39L594.79,18.84L597,18.84L598.11,13.1L600.32,13.1L601.42,7.37L603.63,7.37L604.74,0.82L606.95,0.82L608.06,-4.91L610.27,-4.91L611.37,-9.83L613.58,-9.83L614.69,-15.56L616.9,-15.56L618.01,-18.84L623.53,-19.66L624.64,-20.48L630.17,-19.66L631.27,-17.2L633.48,-17.2L634.59,-13.92L636.8,-13.92L637.91,-12.28L640.12,-12.28L641.22,-10.65L643.43,-10.65L644.54,-9.01L653.38,-9.01L654.49,-11.47L656.7,-11.47L657.81,-22.93L660.02,-22.93L661.12,-29.48L662.23,-29.48L663.33,-35.22L666.65,-35.22L667.76,-41.77L669.97,-41.77L671.07,-48.32L673.28,-48.32L674.39,-55.69L676.6,-55.69L677.71,-63.06L679.92,-63.06L681.02,-70.43L683.23,-70.43L684.34,-76.99L686.55,-76.99L687.66,-84.36L689.87,-84.36L690.97,-90.91L693.18,-90.91L694.29,-96.64L696.5,-96.64L697.61,-100.74L709.77,-101.56L710.87,-98.28L713.08,-98.28L714.19,-94.18L719.72,-91.73L720.82,-90.09L723.03,-90.09L724.14,-99.1L726.35,-99.1L727.46,-104.01L729.67,-104.01L730.77,-108.11L732.98,-108.11L734.09,-113.84L736.3,-113.84L737.41,-118.75L739.62,-118.75L740.72,-124.49L742.93,-124.49L744.04,-130.22L746.25,-130.22L747.36,-136.77L749.57,-136.77L750.67,-142.51L752.88,-142.51L753.99,-149.88L756.2,-149.88L757.31,-155.61L759.52,-155.61L760.62,-162.98L761.73,-162.98L762.83,-169.53L766.15,-169.53L767.26,-176.08L769.47,-176.08L770.57,-183.46L772.78,-183.46L773.89,-190.83L776.1,-190.83L777.21,-196.56L782.73,-200.65L783.84,-203.93L789.37,-203.93L790.47,-212.12L802.63,-210.48L803.74,-207.21L809.27,-203.11L810.37,-199.02L815.9,-194.1L817.01,-190.01L822.53,-185.09L823.64,-181L825.85,-181L826.96,-175.27L832.48,-171.17L833.59,-166.26L839.12,-162.16L840.22,-157.25L842.43,-157.25L843.54,-151.51L845.75,-151.51L846.86,-146.6L849.07,-146.6L850.17,-141.69L852.38,-141.69L853.49,-136.77L855.7,-136.77L856.81,-140.87L862.33,-139.23L863.44,-135.95L868.97,-131.86L870.07,-127.76L875.6,-123.67L876.71,-119.57L878.92,-119.57L880.02,-114.66L882.23,-114.66L883.34,-109.75L884.44,-109.75L885.55,-104.01L888.87,-104.01L889.97,-99.1L892.18,-99.1L893.29,-93.37L895.5,-93.37L896.61,-86.81L898.82,-86.81L899.92,-81.08L902.13,-81.08L903.24,-73.71L905.45,-73.71L906.56,-66.34L908.77,-66.34L909.87,-58.97L912.08,-58.97L913.19,-52.42L915.4,-52.42L916.51,-44.23L918.72,-44.23L919.82,-36.85L922.03,-36.85L923.14,-31.94L925.35,-31.94L926.46,-25.39L928.67,-25.39L929.77,-18.84L931.98,-18.84L933.09,-12.28L935.3,-12.28L936.41,-5.73L938.62,-5.73L939.72,0.82L941.93,0.82L943.04,8.19L945.25,8.19L946.36,14.74L948.57,14.74L949.67,21.29L951.88,21.29L952.99,27.85L955.2,27.85L956.31,34.4L958.52,34.4L959.62,40.95L961.83,40.95L962.94,47.5L965.15,47.5L966.26,54.05L968.47,54.05L969.57,60.61L971.78,60.61L972.89,67.98L975.1,67.98L976.21,75.35L978.42,75.35L979.52,81.9L981.73,81.9L982.84,89.27L985.05,89.27L986.16,95.82L988.37,95.82L989.47,102.38L991.68,102.38L992.79,109.75L995,109.75L996.11,116.3L998.32,116.3L999.42,123.67L1004.95,129.4L1006.06,135.95L1008.27,135.95L1009.37,142.51L1014.9,147.42L1016.01,153.97L1021.53,158.89L1022.64,162.98L1028.17,167.08L1029.27,171.99L1034.8,176.09L1035.91,179.36L1041.43,181.82L1042.54,185.91L1054.7,191.65L1055.81,193.28L1094.5,189.19L1095.61,186.73L1111.08,181L1112.19,179.36L1117.72,175.27L1118.82,170.35L1124.35,164.62L1125.46,155.61L1127.67,155.61L1128.77,145.78L1130.98,145.78L1132.09,134.32L1134.3,134.32L1135.41,120.39L1137.62,120.39L1138.72,106.47L1140.93,106.47L1142.04,91.73L1144.25,91.73L1145.36,75.35L1147.57,75.35L1148.67,57.33L1150.88,57.33L1151.99,40.13L1154.2,40.13L1155.31,22.93L1157.52,22.93L1158.62,4.1L1160.83,4.1L1161.94,-13.1L1164.15,-13.1L1165.26,-30.3L1167.47,-30.3L1168.57,-47.5L1170.78,-47.5L1171.89,-64.7L1174.1,-64.7L1175.21,-81.08L1177.42,-81.08L1178.52,-97.46L1180.73,-97.46L1181.84,-114.66L1184.05,-114.66L1185.16,-131.04L1187.37,-131.04L1188.47,-148.24L1190.68,-148.24L1191.79,-164.62L1194,-164.62L1195.11,-180.18L1197.32,-180.18L1198.42,-194.1L1200.63,-194.1L1201.74,-206.39L1203.95,-206.39L1205.06,-215.4L1207.27,-215.4L1208.37,-224.41L1213.9,-230.96L1215.01,-235.87L1220.53,-241.6L1221.64,-246.52L1230.48,-253.89L1231.59,-257.98L1240.43,-263.72L1241.54,-267.81L1247.07,-272.73L1248.17,-276.82L1257.02,-285.01L1258.12,-286.65L1313.4,-277.64L1314.51,-276L1329.98,-266.17L1331.09,-263.72L1343.25,-254.71L1344.36,-251.43L1353.2,-244.06L1354.31,-239.15L1363.15,-230.14L1364.26,-225.23L1373.1,-216.22L1374.21,-210.48L1405.16,-166.26L1406.27,-166.26L1423.96,-135.13L1425.06,-135.13L1499.13,6.55L1500.24,3.28L1501.34,3.28L1585.37,-136.77L1586.47,-145.78L1620.74,-200.65L1621.85,-200.65L1641.75,-205.57L1642.86,-210.48L1691.5,-286.65L1692.61,-286.65L1724.67,-273.55L1725.77,-267.81L1747.88,-266.99L1748.99,-269.45L1781.05,-282.55L1782.16,-280.92L1783.26,-280.92L1800.95,-259.62L1802.06,-251.43L1827.48,-231.78L1828.59,-232.6L1875.02,-246.52L1876.13,-246.52L1903.77,-232.6L1904.87,-229.32L1920.35,-242.42L1921.46,-248.98L1954.62,-286.65L1955.73,-286.65L2135.93,-270.27L2137.04,-265.36L2185.68,-134.32L2186.79,-121.21L2238.75,-1.64L2239.86,0L2282.97,-7.37L2284.08,-7.37L2315.03,-40.13L2316.14,-45.86L2423.38,-144.14L2424.48,-144.14L2517.35,-226.04L2518.46,-223.59L2574.84,-190.01L2575.94,-190.01L2610.22,-152.33L2611.32,-144.96L2684.29,-21.29L2685.39,-21.29L2719.67,0.82L2721.88,-2.46L2722.98,-2.46L2822.48,-126.95L2823.59,-134.32L2923.09,-286.65L2924.19,-286.65L3034.75,-262.9L3035.86,-254.71L3103.29,-162.98L3104.4,-162.98L3151.94,-76.17L3153.04,-76.17L3305.61,88.45L3306.72,88.45L3482.5,155.61L3483.61,155.61L3781,132.68L3792.14,134.32L3548.92,156.43L3498.07,156.43L3314.37,101.56L3313.26,101.56L3229.24,38.49L3227.03,38.49L3107.63,-126.95L3106.52,-133.5L3007.02,-285.01L2904.38,-285.01L2818.15,-99.92L2817.04,-94.18L2768.4,-36.85L2767.29,-32.76L2724.18,4.1L2693.04,4.1L2672.04,-24.57L2669.83,-24.57L2600.18,-143.32L2599.07,-150.7L2562.59,-189.19L2557.06,-189.19L2517.26,-207.21L2516.16,-212.94L2512.84,-217.85L2435.63,-142.51L2433.42,-142.51L2314.02,-23.75L2312.91,-19.66L2267.58,1.64L2266.48,2.46L2227.61,0L2225.39,0L2192.23,-53.23L2191.12,-66.34L2139.16,-236.69L2138.06,-244.88L2111.52,-285.01L1949.18,-285.01L1935.92,-255.53L1934.81,-247.34L1921.54,-227.68L1893.73,-227.68L1890.41,-230.96L1889.31,-235.87L1835.31,-229.32L1807.49,-229.32L1784.28,-265.36L1783.17,-270.27L1749.08,-259.62L1724.58,-259.62L1703.57,-284.19L1701.36,-284.19L1700.26,-285.01L1660.63,-221.95L1659.53,-215.4L1642.94,-196.56L1624.15,-196.56L1623.04,-193.28L1620.83,-193.28L1603.14,-153.15L1600.93,-153.15L1576.61,-96.64L1574.4,-96.64L1556.71,-67.16L1554.5,-67.16L1536.81,-31.12L1534.6,-31.12L1510.28,8.19L1482.46,8.19L1449.29,-58.97L1448.19,-67.16L1419.44,-121.21L1418.34,-128.58L1412.81,-133.5L1411.71,-139.23L1406.18,-144.96L1405.07,-149.88L1396.23,-159.7L1395.12,-164.62L1386.28,-174.45L1385.17,-179.36L1376.33,-189.19L1375.22,-194.1L1365.27,-203.93L1364.17,-208.85L1359.74,-214.58L1358.64,-218.67L1349.79,-228.5L1348.69,-232.6L1339.84,-242.42L1338.74,-245.7L1329.89,-253.07L1328.79,-255.53L1316.63,-264.54L1315.52,-267.81L1303.36,-274.36L1302.26,-276L1262.63,-279.28L1261.53,-275.18L1252.68,-266.17L1251.58,-262.08L1242.73,-256.35L1241.63,-252.25L1232.78,-244.88L1231.68,-239.97L1226.15,-234.23L1225.04,-229.32L1219.52,-222.77L1218.41,-213.76L1216.2,-213.76L1215.09,-204.75L1212.88,-204.75L1211.78,-192.47L1209.57,-192.47L1208.46,-178.54L1206.25,-178.54L1205.14,-162.98L1202.93,-162.98L1201.83,-146.6L1199.62,-146.6L1198.51,-129.4L1196.3,-129.4L1195.19,-113.02L1192.98,-113.02L1191.88,-95.82L1189.67,-95.82L1188.56,-79.44L1186.35,-79.44L1185.24,-63.06L1183.03,-63.06L1181.93,-45.86L1179.72,-45.86L1178.61,-28.67L1176.4,-28.67L1175.29,-11.47L1173.08,-11.47L1171.98,5.73L1169.77,5.73L1168.66,24.57L1166.45,24.57L1165.34,41.77L1163.13,41.77L1162.03,58.97L1159.82,58.97L1158.71,76.99L1156.5,76.99L1155.39,93.37L1153.18,93.37L1152.08,108.11L1149.87,108.11L1148.76,122.03L1146.55,122.03L1145.44,135.95L1143.23,135.95L1142.13,147.42L1139.92,147.42L1138.81,157.25L1136.6,157.25L1135.49,166.26L1129.97,171.99L1128.86,176.9L1123.33,181L1122.23,182.64L1106.75,188.37L1105.64,190.83L1044.66,194.92L1043.56,193.28L1031.39,187.55L1030.29,183.46L1024.76,181L1023.66,177.72L1018.13,173.63L1017.02,168.71L1011.49,164.62L1010.39,160.52L1004.86,155.61L1003.76,149.06L998.23,144.14L997.12,137.59L994.91,137.59L993.81,131.04L991.59,131.04L990.49,125.31L988.28,125.31L987.17,117.94L984.96,117.94L983.86,111.38L981.64,111.38L980.54,104.01L978.33,104.01L977.22,97.46L975.01,97.46L973.91,90.91L971.69,90.91L970.59,83.54L968.38,83.54L967.27,76.99L965.06,76.99L963.96,69.62L961.74,69.62L960.64,62.24L958.43,62.24L957.32,55.69L955.11,55.69L954.01,49.14L951.79,49.14L950.69,42.59L948.48,42.59L947.37,36.04L945.16,36.04L944.06,29.48L941.84,29.48L940.74,22.93L938.53,22.93L937.42,16.38L935.21,16.38L934.11,9.83L931.89,9.83L930.79,2.46L928.58,2.46L927.47,-4.1L925.26,-4.1L924.16,-10.65L921.94,-10.65L920.84,-17.2L918.63,-17.2L917.52,-23.75L915.31,-23.75L914.21,-30.3L911.99,-30.3L910.89,-35.22L908.68,-35.22L907.57,-42.59L905.36,-42.59L904.26,-50.78L902.04,-50.78L900.94,-57.33L898.73,-57.33L897.62,-64.7L895.41,-64.7L894.31,-72.07L892.09,-72.07L890.99,-79.44L888.78,-79.44L887.67,-85.18L885.46,-85.18L884.36,-91.73L882.14,-91.73L881.04,-97.46L878.83,-97.46L877.72,-102.37L874.41,-102.37L873.3,-108.11L872.19,-108.11L871.09,-113.02L868.88,-113.02L867.77,-117.94L862.24,-122.03L861.14,-126.13L858.93,-126.13L857.82,-130.22L855.61,-130.22L854.51,-134.32L842.34,-135.13L841.24,-140.05L839.03,-140.05L837.92,-144.96L835.71,-144.96L834.61,-149.88L827.97,-160.52L825.76,-160.52L818.02,-173.63L815.81,-173.63L808.07,-188.37L805.86,-188.37L798.12,-201.47L795.91,-201.47L795.69,-202.29L790.56,-194.92L788.35,-194.92L780.61,-174.45L778.4,-174.45L770.66,-153.97L768.45,-153.97L760.71,-135.13L758.5,-135.13L754.08,-122.85L751.87,-122.85L747.44,-112.2L745.23,-112.2L740.81,-102.37L738.6,-102.37L734.18,-88.45L709.68,-88.45L708.57,-90.09L706.36,-90.09L705.26,-92.55L704.33,-89.27L702.12,-89.27L697.69,-75.35L695.48,-75.35L691.06,-61.42L688.85,-61.42L687.74,-54.05L685.53,-54.05L684.43,-46.68L682.22,-46.68L681.11,-40.13L678.9,-40.13L677.79,-33.58L674.48,-33.58L671.16,-21.29L668.95,-21.29L667.84,-9.83L665.63,-9.83L664.53,-7.37L633.39,-7.37L632.29,-9.01L630.08,-9.01L628.97,-10.65L626.76,-10.65L625.52,-12.28L624.73,-8.19L622.52,-8.19L621.41,-3.28L619.2,-3.28L618.09,2.46L615.88,2.46L614.78,9.01L612.57,9.01L611.46,14.74L609.25,14.74L608.14,20.48L605.93,20.48L604.83,27.03L602.62,27.03L601.51,38.49L599.3,38.49L598.19,40.95L595.98,40.95L594.88,43.41L592.67,43.41L591.56,45.05L589.35,45.05L588.24,47.5L586.03,47.5L584.93,48.32L557.11,48.32L556.01,47.5L553.79,47.5L552.69,46.68L550.48,46.68L549.37,45.05L546.23,45.05L545.13,48.32L542.92,48.32L541.81,52.42L539.6,52.42L538.49,56.51L536.28,56.51L535.18,66.34L507.36,66.34L506.26,65.52L494.09,65.52L487.46,65.52L486.36,63.88L484.14,63.88L483.04,63.06L480.83,63.06L479.72,62.24L477.51,62.24L476.41,59.79L474.19,59.79L473.23,59.07L472.16,62.24L469.95,62.24L468.84,72.07L466.63,72.07L465.53,73.71L463.32,73.71L462.21,74.53L460,74.53L458.89,76.17L456.68,76.17L455.58,76.99L453.37,76.99L452.26,78.62L450.05,78.62L448.94,80.26L446.73,80.26L445.63,81.9L443.42,81.9L442.31,83.54L440.1,83.54L438.99,85.18L436.78,85.18L435.68,86.81L433.47,86.81L432.36,89.27L430.15,89.27L429.04,90.91L426.83,90.91L425.73,91.73L423.52,91.73L422.41,93.37L420.2,93.37L419.09,95L416.88,95L415.78,96.64L413.57,96.64L412.46,99.1L410.25,99.1L409.14,100.74L406.93,100.74L405.83,104.01L403.62,104.01L402.51,113.84L400.3,113.84L399.19,114.66L396.98,114.66L395.88,116.3L393.67,116.3L392.56,118.76L390.35,118.76L389.24,121.21L385.93,121.21L384.82,125.31L383.72,125.31L382.61,128.58L380.4,128.58L379.29,132.68L377.08,132.68L375.98,135.95L373.77,135.95L372.66,140.05L370.45,140.05L369.34,143.33L367.13,143.33L366.03,147.42L363.82,147.42L362.71,151.51L360.5,151.51L359.39,154.79L357.18,154.79L356.08,158.89L353.87,158.89L352.76,161.34L350.55,161.34L349.44,165.44L347.23,165.44L346.13,169.53L343.92,169.53L342.81,173.63L340.6,173.63L339.49,179.36L337.28,179.36L336.18,189.19L333.97,189.19L332.86,190.01L327.33,190.01L326.23,191.65L287.53,191.65L286.43,192.47L284.22,192.47L283.11,194.1L280.9,194.1L279.79,196.56L277.58,196.56L276.48,199.84L274.27,199.84L273.16,203.11L270.95,203.11L269.84,212.94L267.63,212.94L266.53,213.76L264.32,213.76L263.21,215.4L261,215.4L259.89,217.85L257.68,217.85L256.58,220.31L254.37,220.31L253.26,221.95L251.05,221.95L249.94,225.23L247.73,225.23L246.63,227.68L244.42,227.68L243.31,230.14L241.1,230.14L239.99,232.6L237.78,232.6L236.68,235.05L234.47,235.05L233.36,237.51L231.15,237.51L230.04,239.97L227.83,239.97L226.73,242.42L224.52,242.42L223.41,244.06L221.2,244.06L220.09,246.52L217.88,246.52L216.78,248.16L214.57,248.16L213.46,251.43L211.25,251.43L210.14,253.89L207.93,253.89L206.83,257.17L204.62,257.17L203.51,266.18L175.69,266.18L174.59,265.36L172.38,265.36L171.27,264.54L162.43,264.54L161.32,263.72L159.11,263.72L158.01,262.9L152.48,262.9L151.37,261.26L149.16,261.26L148.06,259.62L145.84,259.62L144.74,258.8L142.53,258.8L141.42,257.17L139.21,257.17L138.11,255.53L137.3,255.53L137.18,256.35L112.68,256.35L111.57,253.07L109.36,253.07L108.26,250.61L106.04,250.61L104.94,248.16L102.73,248.16L101.62,246.52L99.41,246.52L98.31,243.24L96.09,243.24L94.99,241.61L92.78,241.61L91.67,240.79L89.46,240.79L88.36,238.33L86.14,238.33L85.04,237.51L81.9,237.51L80.79,239.15L78.58,239.15L77.48,240.79L75.27,240.79L74.16,243.24L71.95,243.24L70.84,253.07L68.63,253.07L67.53,253.89L65.32,253.89L64.21,255.53L62,255.53L60.89,257.17L58.68,257.17L57.58,260.44L55.37,260.44L54.26,263.72L52.05,263.72L50.94,268.63L47.63,268.63L46.52,273.55L45.42,273.55L44.31,279.28L42.1,279.28L40.99,285.01L38.78,285.01L37.68,291.56L35.47,291.56L34.36,298.94L32.15,298.94L31.04,306.31L28.83,306.31L27.73,313.68L25.52,313.68L24.41,321.87L22.2,321.87L21.09,329.24L18.88,329.24L17.78,335.79L15.57,335.79L14.46,343.98L12.25,343.98L11.14,352.17L8.93,352.17L7.83,358.72L5.62,358.72L4.51,374.28L2.3,374.28L1.19,379.2L-1.02,379.2L-2.12,384.11L-4.33,384.11L-5.44,389.03L-7.65,389.03L-8.76,394.76L-10.97,394.76L-12.07,399.67L-14.28,399.67L-15.39,404.59L-17.6,404.59L-18.71,410.32L-20.92,410.32L-22.02,415.23L-24.23,415.23L-25.34,420.15L-27.55,420.15L-28.66,423.42L-30.87,423.42L-31.97,428.34L-34.18,428.34L-35.29,434.07L-37.5,434.07L-38.61,439.8L-40.82,439.8L-41.92,443.9L-44.13,443.9L-45.24,448.81L-47.45,448.81L-48.56,453.73L-50.77,453.73L-51.87,458.64L-57.4,461.92L-58.51,466.83L-60.72,466.83L-61.82,478.3L-70.67,481.57L-71.77,484.03L-77.3,486.49L-78.41,488.94L-83.93,491.4L-85.04,493.86L-90.57,496.31L-91.67,499.59L-97.2,501.23L-98.31,502.87L-107.15,506.96L-108.26,509.42L-117.1,513.51L-118.21,516.79L-127.05,521.7L-128.16,528.26L-130.37,528.26L-131.47,529.07L-1802.14,533.99Z" style="fill: rgb(68, 68, 68); fill-opacity: 0.3; stroke-width: 0;"/></g></g><g class="errorbars"/><g class="lines"><path class="js-line" d="M-1802.14,533.99L-131.47,529.07L-130.37,528.26L-128.16,528.26L-127.05,521.7L-118.21,516.79L-117.1,513.51L-108.26,509.42L-107.15,506.96L-98.31,502.87L-97.2,501.23L-91.67,499.59L-90.57,496.31L-85.04,493.86L-83.93,491.4L-78.41,488.94L-77.3,486.49L-71.77,484.03L-70.67,481.57L-61.82,478.3L-60.72,466.83L-58.51,466.83L-57.4,461.92L-51.87,458.64L-50.77,453.73L-48.56,453.73L-47.45,448.81L-45.24,448.81L-44.13,443.9L-41.92,443.9L-40.82,439.8L-38.61,439.8L-37.5,434.07L-35.29,434.07L-34.18,428.34L-31.97,428.34L-30.87,423.42L-28.66,423.42L-27.55,420.15L-25.34,420.15L-24.23,415.23L-22.02,415.23L-20.92,410.32L-18.71,410.32L-17.6,404.59L-15.39,404.59L-14.28,399.67L-12.07,399.67L-10.97,394.76L-8.76,394.76L-7.65,389.03L-5.44,389.03L-4.33,384.11L-2.12,384.11L-1.02,379.2L1.19,379.2L2.3,374.28L4.51,374.28L5.62,358.72L7.83,358.72L8.93,352.17L11.14,352.17L12.25,343.98L14.46,343.98L15.57,335.79L17.78,335.79L18.88,329.24L21.09,329.24L22.2,321.87L24.41,321.87L25.52,313.68L27.73,313.68L28.83,306.31L31.04,306.31L32.15,298.94L34.36,298.94L35.47,291.56L37.68,291.56L38.78,285.01L40.99,285.01L42.1,279.28L44.31,279.28L45.42,273.55L46.52,273.55L47.63,268.63L50.94,268.63L52.05,263.72L54.26,263.72L55.37,260.44L57.58,260.44L58.68,257.17L60.89,257.17L62,255.53L64.21,255.53L65.32,253.89L67.53,253.89L68.63,253.07L70.84,253.07L71.95,243.24L74.16,243.24L75.27,240.79L77.48,240.79L78.58,239.15L80.79,239.15L81.9,237.51L85.04,237.51L86.14,238.33L88.36,238.33L89.46,240.79L91.67,240.79L92.78,241.61L94.99,241.61L96.09,243.24L98.31,243.24L99.41,246.52L101.62,246.52L102.73,248.16L104.94,248.16L106.04,250.61L108.26,250.61L109.36,253.07L111.57,253.07L112.68,256.35L137.18,256.35L137.3,255.53L138.11,255.53L139.21,257.17L141.42,257.17L142.53,258.8L144.74,258.8L145.84,259.62L148.06,259.62L149.16,261.26L151.37,261.26L152.48,262.9L158.01,262.9L159.11,263.72L161.32,263.72L162.43,264.54L171.27,264.54L172.38,265.36L174.59,265.36L175.69,266.18L203.51,266.18L204.62,257.17L206.83,257.17L207.93,253.89L210.14,253.89L211.25,251.43L213.46,251.43L214.57,248.16L216.78,248.16L217.88,246.52L220.09,246.52L221.2,244.06L223.41,244.06L224.52,242.42L226.73,242.42L227.83,239.97L230.04,239.97L231.15,237.51L233.36,237.51L234.47,235.05L236.68,235.05L237.78,232.6L239.99,232.6L241.1,230.14L243.31,230.14L244.42,227.68L246.63,227.68L247.73,225.23L249.94,225.23L251.05,221.95L253.26,221.95L254.37,220.31L256.58,220.31L257.68,217.85L259.89,217.85L261,215.4L263.21,215.4L264.32,213.76L266.53,213.76L267.63,212.94L269.84,212.94L270.95,203.11L273.16,203.11L274.27,199.84L276.48,199.84L277.58,196.56L279.79,196.56L280.9,194.1L283.11,194.1L284.22,192.47L286.43,192.47L287.53,191.65L326.23,191.65L327.33,190.01L332.86,190.01L333.97,189.19L336.18,189.19L337.28,179.36L339.49,179.36L340.6,173.63L342.81,173.63L343.92,169.53L346.13,169.53L347.23,165.44L349.44,165.44L350.55,161.34L352.76,161.34L353.87,158.89L356.08,158.89L357.18,154.79L359.39,154.79L360.5,151.51L362.71,151.51L363.82,147.42L366.03,147.42L367.13,143.33L369.34,143.33L370.45,140.05L372.66,140.05L373.77,135.95L375.98,135.95L377.08,132.68L379.29,132.68L380.4,128.58L382.61,128.58L383.72,125.31L384.82,125.31L385.93,121.21L389.24,121.21L390.35,118.76L392.56,118.76L393.67,116.3L395.88,116.3L396.98,114.66L399.19,114.66L400.3,113.84L402.51,113.84L403.62,104.01L405.83,104.01L406.93,100.74L409.14,100.74L410.25,99.1L412.46,99.1L413.57,96.64L415.78,96.64L416.88,95L419.09,95L420.2,93.37L422.41,93.37L423.52,91.73L425.73,91.73L426.83,90.91L429.04,90.91L430.15,89.27L432.36,89.27L433.47,86.81L435.68,86.81L436.78,85.18L438.99,85.18L440.1,83.54L442.31,83.54L443.42,81.9L445.63,81.9L446.73,80.26L448.94,80.26L450.05,78.62L452.26,78.62L453.37,76.99L455.58,76.99L456.68,76.17L458.89,76.17L460,74.53L462.21,74.53L463.32,73.71L465.53,73.71L466.63,72.07L468.84,72.07L469.95,62.24L472.16,62.24L473.23,59.07L474.19,59.79L476.41,59.79L477.51,62.24L479.72,62.24L480.83,63.06L483.04,63.06L484.14,63.88L486.36,63.88L487.46,65.52L494.09,65.52L506.26,65.52L507.36,66.34L535.18,66.34L536.28,56.51L538.49,56.51L539.6,52.42L541.81,52.42L542.92,48.32L545.13,48.32L546.23,45.05L549.37,45.05L550.48,46.68L552.69,46.68L553.79,47.5L556.01,47.5L557.11,48.32L584.93,48.32L586.03,47.5L588.24,47.5L589.35,45.05L591.56,45.05L592.67,43.41L594.88,43.41L595.98,40.95L598.19,40.95L599.3,38.49L601.51,38.49L602.62,27.03L604.83,27.03L605.93,20.48L608.14,20.48L609.25,14.74L611.46,14.74L612.57,9.01L614.78,9.01L615.88,2.46L618.09,2.46L619.2,-3.28L621.41,-3.28L622.52,-8.19L624.73,-8.19L625.52,-12.28L626.76,-10.65L628.97,-10.65L630.08,-9.01L632.29,-9.01L633.39,-7.37L664.53,-7.37L665.63,-9.83L667.84,-9.83L668.95,-21.29L671.16,-21.29L674.48,-33.58L677.79,-33.58L678.9,-40.13L681.11,-40.13L682.22,-46.68L684.43,-46.68L685.53,-54.05L687.74,-54.05L688.85,-61.42L691.06,-61.42L695.48,-75.35L697.69,-75.35L702.12,-89.27L704.33,-89.27L705.26,-92.55L706.36,-90.09L708.57,-90.09L709.68,-88.45L734.18,-88.45L738.6,-102.37L740.81,-102.37L745.23,-112.2L747.44,-112.2L751.87,-122.85L754.08,-122.85L758.5,-135.13L760.71,-135.13L768.45,-153.97L770.66,-153.97L778.4,-174.45L780.61,-174.45L788.35,-194.92L790.56,-194.92L795.69,-202.29L795.91,-201.47L798.12,-201.47L805.86,-188.37L808.07,-188.37L815.81,-173.63L818.02,-173.63L825.76,-160.52L827.97,-160.52L834.61,-149.88L835.71,-144.96L837.92,-144.96L839.03,-140.05L841.24,-140.05L842.34,-135.13L854.51,-134.32L855.61,-130.22L857.82,-130.22L858.93,-126.13L861.14,-126.13L862.24,-122.03L867.77,-117.94L868.88,-113.02L871.09,-113.02L872.19,-108.11L873.3,-108.11L874.41,-102.37L877.72,-102.37L878.83,-97.46L881.04,-97.46L882.14,-91.73L884.36,-91.73L885.46,-85.18L887.67,-85.18L888.78,-79.44L890.99,-79.44L892.09,-72.07L894.31,-72.07L895.41,-64.7L897.62,-64.7L898.73,-57.33L900.94,-57.33L902.04,-50.78L904.26,-50.78L905.36,-42.59L907.57,-42.59L908.68,-35.22L910.89,-35.22L911.99,-30.3L914.21,-30.3L915.31,-23.75L917.52,-23.75L918.63,-17.2L920.84,-17.2L921.94,-10.65L924.16,-10.65L925.26,-4.1L927.47,-4.1L928.58,2.46L930.79,2.46L931.89,9.83L934.11,9.83L935.21,16.38L937.42,16.38L938.53,22.93L940.74,22.93L941.84,29.48L944.06,29.48L945.16,36.04L947.37,36.04L948.48,42.59L950.69,42.59L951.79,49.14L954.01,49.14L955.11,55.69L957.32,55.69L958.43,62.24L960.64,62.24L961.74,69.62L963.96,69.62L965.06,76.99L967.27,76.99L968.38,83.54L970.59,83.54L971.69,90.91L973.91,90.91L975.01,97.46L977.22,97.46L978.33,104.01L980.54,104.01L981.64,111.38L983.86,111.38L984.96,117.94L987.17,117.94L988.28,125.31L990.49,125.31L991.59,131.04L993.81,131.04L994.91,137.59L997.12,137.59L998.23,144.14L1003.76,149.06L1004.86,155.61L1010.39,160.52L1011.49,164.62L1017.02,168.71L1018.13,173.63L1023.66,177.72L1024.76,181L1030.29,183.46L1031.39,187.55L1043.56,193.28L1044.66,194.92L1105.64,190.83L1106.75,188.37L1122.23,182.64L1123.33,181L1128.86,176.9L1129.97,171.99L1135.49,166.26L1136.6,157.25L1138.81,157.25L1139.92,147.42L1142.13,147.42L1143.23,135.95L1145.44,135.95L1146.55,122.03L1148.76,122.03L1149.87,108.11L1152.08,108.11L1153.18,93.37L1155.39,93.37L1156.5,76.99L1158.71,76.99L1159.82,58.97L1162.03,58.97L1163.13,41.77L1165.34,41.77L1166.45,24.57L1168.66,24.57L1169.77,5.73L1171.98,5.73L1173.08,-11.47L1175.29,-11.47L1176.4,-28.67L1178.61,-28.67L1179.72,-45.86L1181.93,-45.86L1183.03,-63.06L1185.24,-63.06L1186.35,-79.44L1188.56,-79.44L1189.67,-95.82L1191.88,-95.82L1192.98,-113.02L1195.19,-113.02L1196.3,-129.4L1198.51,-129.4L1199.62,-146.6L1201.83,-146.6L1202.93,-162.98L1205.14,-162.98L1206.25,-178.54L1208.46,-178.54L1209.57,-192.47L1211.78,-192.47L1212.88,-204.75L1215.09,-204.75L1216.2,-213.76L1218.41,-213.76L1219.52,-222.77L1225.04,-229.32L1226.15,-234.23L1231.68,-239.97L1232.78,-244.88L1241.63,-252.25L1242.73,-256.35L1251.58,-262.08L1252.68,-266.17L1261.53,-275.18L1262.63,-279.28L1302.26,-276L1303.36,-274.36L1315.52,-267.81L1316.63,-264.54L1328.79,-255.53L1329.89,-253.07L1338.74,-245.7L1339.84,-242.42L1348.69,-232.6L1349.79,-228.5L1358.64,-218.67L1359.74,-214.58L1364.17,-208.85L1365.27,-203.93L1375.22,-194.1L1376.33,-189.19L1385.17,-179.36L1386.28,-174.45L1395.12,-164.62L1396.23,-159.7L1405.07,-149.88L1406.18,-144.96L1411.71,-139.23L1412.81,-133.5L1418.34,-128.58L1419.44,-121.21L1448.19,-67.16L1449.29,-58.97L1482.46,8.19L1510.28,8.19L1534.6,-31.12L1536.81,-31.12L1554.5,-67.16L1556.71,-67.16L1574.4,-96.64L1576.61,-96.64L1600.93,-153.15L1603.14,-153.15L1620.83,-193.28L1623.04,-193.28L1624.15,-196.56L1642.94,-196.56L1659.53,-215.4L1660.63,-221.95L1700.26,-285.01L1701.36,-284.19L1703.57,-284.19L1724.58,-259.62L1749.08,-259.62L1783.17,-270.27L1784.28,-265.36L1807.49,-229.32L1835.31,-229.32L1889.31,-235.87L1890.41,-230.96L1893.73,-227.68L1921.54,-227.68L1934.81,-247.34L1935.92,-255.53L1949.18,-285.01L2111.52,-285.01L2138.06,-244.88L2139.16,-236.69L2191.12,-66.34L2192.23,-53.23L2225.39,0L2227.61,0L2266.48,2.46L2267.58,1.64L2312.91,-19.66L2314.02,-23.75L2433.42,-142.51L2435.63,-142.51L2512.84,-217.85L2516.16,-212.94L2517.26,-207.21L2557.06,-189.19L2562.59,-189.19L2599.07,-150.7L2600.18,-143.32L2669.83,-24.57L2672.04,-24.57L2693.04,4.1L2724.18,4.1L2767.29,-32.76L2768.4,-36.85L2817.04,-94.18L2818.15,-99.92L2904.38,-285.01L3007.02,-285.01L3106.52,-133.5L3107.63,-126.95L3227.03,38.49L3229.24,38.49L3313.26,101.56L3314.37,101.56L3498.07,156.43L3548.92,156.43L3792.14,134.32" style="vector-effect: non-scaling-stroke; fill: none; stroke: rgb(44, 160, 44); stroke-opacity: 1; stroke-width: 0px; opacity: 1;"/></g><g class="points"/><g class="text"/></g><g class="trace scatter trace15dd81de-5a58-4dac-ba33-f774515c9de8" style="stroke-miterlimit: 2;"><g class="fills"><g><path class="js-fill" d="M-1802.14,530.71L-153.76,525.8L-152.66,524.98L-150.44,524.98L-149.34,518.43L-140.49,513.51L-139.39,510.24L-130.54,506.14L-129.44,503.69L-120.59,499.59L-119.49,497.95L-113.96,496.31L-112.86,493.04L-107.33,490.58L-106.22,488.12L-100.69,485.67L-99.59,483.21L-94.06,480.75L-92.96,478.3L-84.11,475.02L-83.01,463.55L-80.79,463.55L-79.69,458.64L-74.16,455.36L-73.06,450.45L-70.84,450.45L-69.74,445.54L-67.53,445.54L-66.42,440.62L-64.21,440.62L-63.11,436.53L-60.89,436.53L-59.79,430.79L-57.58,430.79L-56.47,425.06L-54.26,425.06L-53.16,420.15L-50.94,420.15L-49.84,416.87L-47.63,416.87L-46.52,411.96L-44.31,411.96L-43.21,407.04L-40.99,407.04L-39.89,401.31L-37.68,401.31L-36.57,396.4L-34.36,396.4L-33.26,391.48L-31.04,391.48L-29.94,385.75L-27.73,385.75L-26.62,380.84L-24.41,380.84L-23.31,375.92L-21.09,375.92L-19.99,371.01L-17.78,371.01L-16.67,355.45L-14.46,355.45L-13.36,348.89L-11.14,348.89L-10.04,340.7L-7.83,340.7L-6.72,332.51L-4.51,332.51L-3.41,325.96L-1.19,325.96L-0.09,318.59L2.12,318.59L3.23,310.4L5.44,310.4L6.54,303.03L8.76,303.03L9.86,295.66L12.07,295.66L13.18,288.29L15.39,288.29L16.49,281.74L18.71,281.74L19.81,276L22.02,276L23.13,270.27L24.23,270.27L25.34,265.36L28.66,265.36L29.76,260.44L31.97,260.44L33.08,257.17L35.29,257.17L36.39,253.89L38.61,253.89L39.71,252.25L41.92,252.25L43.03,250.61L45.24,250.61L46.34,249.8L48.56,249.8L49.66,239.97L51.87,239.97L52.98,237.51L55.19,237.51L56.29,235.87L58.51,235.87L59.61,234.23L65.14,234.23L66.24,233.42L68.46,233.42L69.56,232.6L104.01,232.6L105.12,234.23L107.33,234.23L108.43,235.05L110.64,235.05L111.75,237.51L113.96,237.51L115.07,238.33L117.28,238.33L118.38,239.97L120.59,239.97L121.7,243.24L123.91,243.24L125.02,244.88L127.23,244.88L127.6,245.7L140.49,245.7L141.6,246.52L143.81,246.52L144.92,247.34L147.13,247.34L148.23,248.98L153.76,248.98L154.87,250.61L157.08,250.61L158.18,252.25L160.39,252.25L161.5,253.89L163.71,253.89L164.82,255.53L167.03,255.53L168.13,256.35L170.34,256.35L171.45,257.99L173.66,257.99L174.77,259.62L180.29,259.62L181.4,260.44L182.33,253.89L184.54,253.89L185.64,250.61L187.86,250.61L188.96,248.16L191.17,248.16L192.28,244.88L194.49,244.88L195.59,243.24L197.81,243.24L198.91,240.79L201.12,240.79L202.23,239.15L204.44,239.15L205.54,236.69L207.76,236.69L208.86,234.23L211.07,234.23L212.18,231.78L214.39,231.78L215.49,229.32L217.71,229.32L218.81,226.86L221.02,226.86L222.13,224.41L224.34,224.41L225.44,221.95L227.66,221.95L228.76,218.67L230.97,218.67L232.08,217.04L234.29,217.04L235.39,214.58L237.61,214.58L238.71,212.12L240.92,212.12L242.03,210.48L244.24,210.48L245.34,209.66L247.56,209.66L248.66,199.84L250.87,199.84L251.98,196.56L254.19,196.56L255.29,193.28L257.51,193.28L258.61,190.83L260.82,190.83L261.93,189.19L264.14,189.19L265.24,188.37L267.46,188.37L268.56,187.55L304.49,187.55L305.04,186.73L310.57,186.73L311.68,185.91L313.89,185.91L314.99,176.09L317.21,176.09L318.31,170.35L320.52,170.35L321.63,166.26L323.84,166.26L324.94,162.16L327.16,162.16L328.26,158.07L330.47,158.07L331.58,155.61L333.79,155.61L334.89,151.51L337.11,151.51L338.21,148.24L340.42,148.24L341.53,144.14L343.74,144.14L344.84,140.05L347.06,140.05L348.16,136.77L350.37,136.77L351.48,132.68L353.69,132.68L354.79,129.4L357.01,129.4L358.11,125.31L360.32,125.31L361.43,122.03L362.53,122.03L363.64,117.94L366.96,117.94L368.06,115.48L370.27,115.48L371.38,113.02L373.59,113.02L374.69,111.38L376.91,111.38L378.01,110.57L380.22,110.57L381.33,100.74L383.54,100.74L384.64,97.46L386.86,97.46L387.96,95.82L390.17,95.82L391.28,93.37L393.49,93.37L394.59,91.73L396.81,91.73L397.91,90.09L400.12,90.09L401.23,88.45L403.44,88.45L404.54,87.63L406.76,87.63L407.86,86L410.07,86L411.18,83.54L413.39,83.54L414.49,81.9L416.71,81.9L417.81,80.26L420.02,80.26L421.13,78.62L423.34,78.62L424.44,76.99L426.66,76.99L427.76,75.35L429.97,75.35L431.08,73.71L433.29,73.71L434.39,72.89L436.61,72.89L437.71,71.25L439.92,71.25L441.03,70.43L443.24,70.43L444.34,68.8L446.56,68.8L447.66,58.97L449.87,58.97L450.98,55.69L453.19,55.69L454.29,53.24L456.51,53.24L457.61,52.42L488.74,52.42L489.85,54.05L492.06,54.05L493.17,55.69L495.38,55.69L496.48,56.51L498.69,56.51L499.8,58.97L502.01,58.97L503.12,59.79L505.33,59.79L506.43,60.61L508.64,60.61L509.2,61.43L513.07,61.43L513.99,53.24L516.21,53.24L517.31,49.14L519.52,49.14L520.63,45.05L522.84,45.05L523.94,41.77L526.16,41.77L527.26,39.31L529.47,39.31L530.58,37.67L532.79,37.67L533.89,36.04L558.39,36.04L559.5,36.86L561.71,36.86L562.82,37.67L565.03,37.67L566.13,39.31L568.34,39.31L569.38,41.61L570.38,40.13L572.59,40.13L573.69,37.67L575.91,37.67L577.01,35.22L579.22,35.22L580.33,23.75L582.54,23.75L583.64,17.2L585.86,17.2L586.96,11.47L589.17,11.47L590.28,5.73L592.49,5.73L593.59,-0.82L595.81,-0.82L596.91,-6.55L599.12,-6.55L600.23,-11.47L602.44,-11.47L603.54,-17.2L605.76,-17.2L606.86,-20.48L612.39,-21.29L613.49,-22.11L641.31,-21.29L642.42,-18.84L644.63,-18.84L645.73,-15.56L646.66,-24.57L648.87,-24.57L652.19,-36.85L655.51,-36.85L656.61,-43.41L658.82,-43.41L659.93,-49.96L662.14,-49.96L663.24,-57.33L665.46,-57.33L669.88,-72.07L672.09,-72.07L676.51,-85.99L678.72,-85.99L683.14,-98.28L685.36,-98.28L689.78,-104.01L691.99,-104.01L693.09,-104.83L716.13,-104.83L719.63,-109.75L721.84,-109.75L726.26,-120.39L728.47,-120.39L732.89,-131.86L735.11,-131.86L739.53,-144.14L741.74,-144.14L746.16,-157.25L748.37,-157.25L756.11,-177.72L758.32,-177.72L766.06,-198.2L768.27,-198.2L772.69,-205.57L778.22,-205.57L782.64,-214.58L807.14,-214.58L823.73,-200.65L824.83,-195.74L830.36,-191.65L831.47,-186.73L836.99,-182.64L838.1,-176.9L843.63,-172.81L844.73,-167.89L850.26,-163.8L851.37,-158.89L853.58,-158.89L854.68,-153.15L856.89,-153.15L858,-148.24L860.21,-148.24L861.32,-143.32L873.48,-140.87L874.58,-137.59L880.11,-133.5L881.22,-129.4L886.74,-125.31L887.85,-121.21L890.06,-121.21L891.17,-116.3L893.38,-116.3L894.48,-111.38L895.59,-111.38L896.69,-105.65L900.01,-105.65L901.12,-100.74L903.33,-100.74L904.43,-95L906.64,-95L907.75,-88.45L909.96,-88.45L911.07,-82.72L913.28,-82.72L914.38,-75.35L916.59,-75.35L917.7,-67.98L919.91,-67.98L921.02,-60.61L923.23,-60.61L924.33,-54.05L926.54,-54.05L927.65,-45.86L929.86,-45.86L930.97,-38.49L936.49,-33.58L937.6,-27.03L939.81,-27.03L940.92,-20.48L943.13,-20.48L944.23,-13.92L946.44,-13.92L947.55,-7.37L949.76,-7.37L950.87,-0.82L953.08,-0.82L954.18,6.55L956.39,6.55L957.5,13.1L959.71,13.1L960.82,19.66L963.03,19.66L964.13,26.21L966.34,26.21L967.45,32.76L969.66,32.76L970.77,39.31L972.98,39.31L974.08,45.86L976.29,45.86L977.4,52.42L979.61,52.42L980.72,58.97L982.93,58.97L984.03,66.34L986.24,66.34L987.35,73.71L989.56,73.71L990.67,80.26L992.88,80.26L993.98,87.63L996.19,87.63L997.3,94.19L999.51,94.19L1000.62,100.74L1002.83,100.74L1003.93,108.11L1006.14,108.11L1007.25,114.66L1009.46,114.66L1010.57,122.03L1016.09,127.76L1017.2,134.32L1019.41,134.32L1020.52,140.87L1026.04,145.78L1027.15,152.33L1032.68,157.25L1033.78,161.34L1039.31,165.44L1040.42,170.35L1045.94,174.45L1047.05,177.72L1052.58,180.18L1053.68,184.28L1065.84,190.01L1066.95,191.65L1096.62,181.82L1097.73,179.36L1106.57,173.63L1107.68,168.71L1113.21,162.98L1114.31,153.97L1116.52,153.97L1117.63,144.14L1119.84,144.14L1120.94,132.68L1123.16,132.68L1124.26,118.76L1126.47,118.76L1127.58,104.83L1129.79,104.83L1130.89,90.09L1133.11,90.09L1134.21,73.71L1136.42,73.71L1137.53,55.69L1139.74,55.69L1140.84,38.49L1143.06,38.49L1144.16,21.29L1146.37,21.29L1147.48,2.46L1149.69,2.46L1150.79,-14.74L1153.01,-14.74L1154.11,-31.94L1156.32,-31.94L1157.43,-49.14L1159.64,-49.14L1160.74,-66.34L1162.96,-66.34L1164.06,-82.72L1166.27,-82.72L1167.38,-99.1L1169.59,-99.1L1170.69,-116.3L1172.91,-116.3L1174.01,-132.68L1176.22,-132.68L1177.33,-149.88L1179.54,-149.88L1180.64,-166.26L1182.86,-166.26L1183.96,-181.82L1186.17,-181.82L1187.28,-195.74L1189.49,-195.74L1190.59,-208.03L1192.81,-208.03L1193.91,-217.03L1196.12,-217.03L1197.23,-226.04L1202.76,-232.6L1203.86,-237.51L1209.39,-243.24L1210.49,-248.16L1219.34,-255.53L1220.44,-259.62L1229.29,-265.36L1230.39,-269.45L1235.92,-274.36L1237.03,-278.46L1245.87,-286.65L1246.98,-288.29L1324.54,-279.28L1325.65,-277.64L1341.13,-267.81L1342.23,-265.36L1354.39,-256.35L1355.5,-253.07L1364.34,-245.7L1365.45,-240.79L1374.29,-231.78L1375.4,-226.86L1384.24,-217.85L1385.35,-212.12L1415.2,-167.89L1417.41,-167.89L1435.1,-136.77L1437.31,-136.77L1458.32,-91.73L1460.53,-91.73L1478.22,-47.5L1480.43,-47.5L1497.94,-5.73L1499.04,-10.65L1608.49,-202.29L1624.34,-202.29L1640.56,-225.23L1641.66,-232.6L1664.88,-288.29L1722.54,-288.29L1750.01,-280.1L1751.11,-282.55L1798.83,-280.92L1799.93,-277.64L1836.24,-244.06L1837.34,-245.7L1881.74,-248.98L1882.85,-248.16L1915.84,-258.8L1916.94,-266.17L1926.89,-288.29L2133.81,-288.29L2160.34,-248.16L2161.45,-239.97L2213.41,-69.62L2214.52,-56.51L2249.89,-3.28L2250.91,-1.77L2297.26,-31.12L2298.36,-36.04L2364.69,-107.29L2366.91,-107.29L2528.49,-227.68L2529.6,-225.23L2531.81,-225.23L2585.98,-191.65L2588.19,-191.65L2621.36,-153.97L2622.47,-146.6L2695.43,-22.93L2697.64,-22.93L2709.08,-2.46L2726.21,-18.02L2728.42,-18.02L2853.35,-229.32L2854.46,-237.51L2882.09,-288.29L3029.31,-288.29L3132.13,-130.22L3133.23,-123.67L3208.41,-15.56L3209.52,-10.65L3398.57,122.85L3400.78,122.85L3478.17,153.15L3526.63,153.15L3792.14,131.04L3781,132.68L3483.61,155.61L3482.5,155.61L3306.72,88.45L3305.61,88.45L3153.04,-76.17L3151.94,-76.17L3104.4,-162.98L3103.29,-162.98L3035.86,-254.71L3034.75,-262.9L2924.19,-286.65L2923.09,-286.65L2823.59,-134.32L2822.48,-126.95L2722.98,-2.46L2721.88,-2.46L2719.67,0.82L2685.39,-21.29L2684.29,-21.29L2611.32,-144.96L2610.22,-152.33L2575.94,-190.01L2574.84,-190.01L2518.46,-223.59L2517.35,-226.04L2424.48,-144.14L2423.38,-144.14L2316.14,-45.86L2315.03,-40.13L2284.08,-7.37L2282.97,-7.37L2239.86,0L2238.75,-1.64L2186.79,-121.21L2185.68,-134.32L2137.04,-265.36L2135.93,-270.27L1955.73,-286.65L1954.62,-286.65L1921.46,-248.98L1920.35,-242.42L1904.87,-229.32L1903.77,-232.6L1876.13,-246.52L1875.02,-246.52L1828.59,-232.6L1827.48,-231.78L1802.06,-251.43L1800.95,-259.62L1783.26,-280.92L1782.16,-280.92L1781.05,-282.55L1748.99,-269.45L1747.88,-266.99L1725.77,-267.81L1724.67,-273.55L1692.61,-286.65L1691.5,-286.65L1642.86,-210.48L1641.75,-205.57L1621.85,-200.65L1620.74,-200.65L1586.47,-145.78L1585.37,-136.77L1501.34,3.28L1500.24,3.28L1499.13,6.55L1425.06,-135.13L1423.96,-135.13L1406.27,-166.26L1405.16,-166.26L1374.21,-210.48L1373.1,-216.22L1364.26,-225.23L1363.15,-230.14L1354.31,-239.15L1353.2,-244.06L1344.36,-251.43L1343.25,-254.71L1331.09,-263.72L1329.98,-266.17L1314.51,-276L1313.4,-277.64L1258.12,-286.65L1257.02,-285.01L1248.17,-276.82L1247.07,-272.73L1241.54,-267.81L1240.43,-263.72L1231.59,-257.98L1230.48,-253.89L1221.64,-246.52L1220.53,-241.6L1215.01,-235.87L1213.9,-230.96L1208.37,-224.41L1207.27,-215.4L1205.06,-215.4L1203.95,-206.39L1201.74,-206.39L1200.63,-194.1L1198.42,-194.1L1197.32,-180.18L1195.11,-180.18L1194,-164.62L1191.79,-164.62L1190.68,-148.24L1188.47,-148.24L1187.37,-131.04L1185.16,-131.04L1184.05,-114.66L1181.84,-114.66L1180.73,-97.46L1178.52,-97.46L1177.42,-81.08L1175.21,-81.08L1174.1,-64.7L1171.89,-64.7L1170.78,-47.5L1168.57,-47.5L1167.47,-30.3L1165.26,-30.3L1164.15,-13.1L1161.94,-13.1L1160.83,4.1L1158.62,4.1L1157.52,22.93L1155.31,22.93L1154.2,40.13L1151.99,40.13L1150.88,57.33L1148.67,57.33L1147.57,75.35L1145.36,75.35L1144.25,91.73L1142.04,91.73L1140.93,106.47L1138.72,106.47L1137.62,120.39L1135.41,120.39L1134.3,134.32L1132.09,134.32L1130.98,145.78L1128.77,145.78L1127.67,155.61L1125.46,155.61L1124.35,164.62L1118.82,170.35L1117.72,175.27L1112.19,179.36L1111.08,181L1095.61,186.73L1094.5,189.19L1055.81,193.28L1054.7,191.65L1042.54,185.91L1041.43,181.82L1035.91,179.36L1034.8,176.09L1029.27,171.99L1028.17,167.08L1022.64,162.98L1021.53,158.89L1016.01,153.97L1014.9,147.42L1009.37,142.51L1008.27,135.95L1006.06,135.95L1004.95,129.4L999.42,123.67L998.32,116.3L996.11,116.3L995,109.75L992.79,109.75L991.68,102.38L989.47,102.38L988.37,95.82L986.16,95.82L985.05,89.27L982.84,89.27L981.73,81.9L979.52,81.9L978.42,75.35L976.21,75.35L975.1,67.98L972.89,67.98L971.78,60.61L969.57,60.61L968.47,54.05L966.26,54.05L965.15,47.5L962.94,47.5L961.83,40.95L959.62,40.95L958.52,34.4L956.31,34.4L955.2,27.85L952.99,27.85L951.88,21.29L949.67,21.29L948.57,14.74L946.36,14.74L945.25,8.19L943.04,8.19L941.93,0.82L939.72,0.82L938.62,-5.73L936.41,-5.73L935.3,-12.28L933.09,-12.28L931.98,-18.84L929.77,-18.84L928.67,-25.39L926.46,-25.39L925.35,-31.94L923.14,-31.94L922.03,-36.85L919.82,-36.85L918.72,-44.23L916.51,-44.23L915.4,-52.42L913.19,-52.42L912.08,-58.97L909.87,-58.97L908.77,-66.34L906.56,-66.34L905.45,-73.71L903.24,-73.71L902.13,-81.08L899.92,-81.08L898.82,-86.81L896.61,-86.81L895.5,-93.37L893.29,-93.37L892.18,-99.1L889.97,-99.1L888.87,-104.01L885.55,-104.01L884.44,-109.75L883.34,-109.75L882.23,-114.66L880.02,-114.66L878.92,-119.57L876.71,-119.57L875.6,-123.67L870.07,-127.76L868.97,-131.86L863.44,-135.95L862.33,-139.23L856.81,-140.87L855.7,-136.77L853.49,-136.77L852.38,-141.69L850.17,-141.69L849.07,-146.6L846.86,-146.6L845.75,-151.51L843.54,-151.51L842.43,-157.25L840.22,-157.25L839.12,-162.16L833.59,-166.26L832.48,-171.17L826.96,-175.27L825.85,-181L823.64,-181L822.53,-185.09L817.01,-190.01L815.9,-194.1L810.37,-199.02L809.27,-203.11L803.74,-207.21L802.63,-210.48L790.47,-212.12L789.37,-203.93L783.84,-203.93L782.73,-200.65L777.21,-196.56L776.1,-190.83L773.89,-190.83L772.78,-183.46L770.57,-183.46L769.47,-176.08L767.26,-176.08L766.15,-169.53L762.83,-169.53L761.73,-162.98L760.62,-162.98L759.52,-155.61L757.31,-155.61L756.2,-149.88L753.99,-149.88L752.88,-142.51L750.67,-142.51L749.57,-136.77L747.36,-136.77L746.25,-130.22L744.04,-130.22L742.93,-124.49L740.72,-124.49L739.62,-118.75L737.41,-118.75L736.3,-113.84L734.09,-113.84L732.98,-108.11L730.77,-108.11L729.67,-104.01L727.46,-104.01L726.35,-99.1L724.14,-99.1L723.03,-90.09L720.82,-90.09L719.72,-91.73L714.19,-94.18L713.08,-98.28L710.87,-98.28L709.77,-101.56L697.61,-100.74L696.5,-96.64L694.29,-96.64L693.18,-90.91L690.97,-90.91L689.87,-84.36L687.66,-84.36L686.55,-76.99L684.34,-76.99L683.23,-70.43L681.02,-70.43L679.92,-63.06L677.71,-63.06L676.6,-55.69L674.39,-55.69L673.28,-48.32L671.07,-48.32L669.97,-41.77L667.76,-41.77L666.65,-35.22L663.33,-35.22L662.23,-29.48L661.12,-29.48L660.02,-22.93L657.81,-22.93L656.7,-11.47L654.49,-11.47L653.38,-9.01L644.54,-9.01L643.43,-10.65L641.22,-10.65L640.12,-12.28L637.91,-12.28L636.8,-13.92L634.59,-13.92L633.48,-17.2L631.27,-17.2L630.17,-19.66L624.64,-20.48L623.53,-19.66L618.01,-18.84L616.9,-15.56L614.69,-15.56L613.58,-9.83L611.37,-9.83L610.27,-4.91L608.06,-4.91L606.95,0.82L604.74,0.82L603.63,7.37L601.42,7.37L600.32,13.1L598.11,13.1L597,18.84L594.79,18.84L593.68,25.39L591.47,25.39L590.37,36.86L588.16,36.86L587.05,39.31L584.84,39.31L583.73,41.77L581.52,41.77L580.42,43.41L578.21,43.41L577.1,45.86L574.89,45.86L573.78,46.68L568.26,46.68L567.15,45.86L564.94,45.86L563.83,45.05L561.62,45.05L560.52,43.41L558.31,43.41L557.2,40.95L554.99,40.95L553.88,39.31L551.67,39.31L550.57,38.49L548.36,38.49L547.25,37.67L545.04,37.67L543.93,39.31L541.72,39.31L540.62,40.95L538.41,40.95L537.3,43.41L535.09,43.41L533.98,46.68L531.77,46.68L530.67,50.78L528.46,50.78L527.35,54.87L525.14,54.87L524.03,64.7L518.51,64.7L517.4,63.88L505.24,63.88L504.13,63.06L501.92,63.06L500.82,63.88L498.61,63.88L497.5,62.24L495.29,62.24L494.18,61.43L491.97,61.43L490.87,60.61L488.66,60.61L487.55,58.15L485.34,58.15L484.23,57.33L482.02,57.33L480.92,55.69L478.71,55.69L477.6,54.05L468.76,54.05L467.65,54.87L465.44,54.87L464.33,57.33L462.12,57.33L461.02,60.61L458.81,60.61L457.7,70.43L455.49,70.43L454.38,72.07L452.17,72.07L451.07,72.89L448.86,72.89L447.75,74.53L445.54,74.53L444.43,75.35L442.22,75.35L441.12,76.99L438.91,76.99L437.8,78.62L435.59,78.62L434.48,80.26L432.27,80.26L431.17,81.9L428.96,81.9L427.85,83.54L425.64,83.54L424.53,85.18L422.32,85.18L421.22,87.63L419.01,87.63L417.9,89.27L415.69,89.27L414.58,90.09L412.37,90.09L411.27,91.73L409.06,91.73L407.95,93.37L405.74,93.37L404.63,95L402.42,95L401.32,97.46L399.11,97.46L398,99.1L395.79,99.1L394.68,102.38L392.47,102.38L391.37,112.2L389.16,112.2L388.05,113.02L385.84,113.02L384.73,114.66L382.52,114.66L381.42,117.12L379.21,117.12L378.1,119.57L374.78,119.57L373.68,123.67L372.57,123.67L371.47,126.95L369.26,126.95L368.15,131.04L365.94,131.04L364.83,134.32L362.62,134.32L361.52,138.41L359.31,138.41L358.2,141.69L355.99,141.69L354.88,145.78L352.67,145.78L351.57,149.88L349.36,149.88L348.25,153.15L346.04,153.15L344.93,157.25L342.72,157.25L341.62,159.7L339.41,159.7L338.3,163.8L336.09,163.8L334.98,167.9L332.77,167.9L331.67,171.99L329.46,171.99L328.35,177.72L326.14,177.72L325.03,187.55L322.82,187.55L321.72,188.37L316.19,188.37L315.08,190.01L296.29,190.01L295.18,189.19L279.71,189.19L278.6,190.01L276.39,190.01L275.28,190.83L273.07,190.83L271.97,192.47L269.76,192.47L268.65,194.92L266.44,194.92L265.33,198.2L263.12,198.2L262.02,201.47L259.81,201.47L258.7,211.3L256.49,211.3L255.38,212.12L253.17,212.12L252.07,213.76L249.86,213.76L248.75,216.22L246.54,216.22L245.43,218.67L243.22,218.67L242.12,220.31L239.91,220.31L238.8,223.59L236.59,223.59L235.48,226.04L233.27,226.04L232.17,228.5L229.96,228.5L228.85,230.96L226.64,230.96L225.53,233.42L223.32,233.42L222.22,235.87L220.01,235.87L218.9,238.33L216.69,238.33L215.58,240.79L213.37,240.79L212.27,242.42L210.06,242.42L208.95,244.88L206.74,244.88L205.63,246.52L203.42,246.52L202.32,249.8L200.11,249.8L199,252.25L196.79,252.25L195.68,255.53L193.47,255.53L192.37,264.54L186.84,264.54L185.73,263.72L183.52,263.72L182.42,262.9L173.57,262.9L172.47,262.08L170.26,262.08L169.15,261.26L163.62,261.26L162.52,259.62L160.31,259.62L159.2,257.99L156.99,257.99L155.88,257.17L153.67,257.17L152.57,255.53L150.36,255.53L149.25,253.89L147.04,253.89L145.93,252.25L143.72,252.25L142.62,250.61L137.09,250.61L135.98,248.98L133.77,248.98L132.67,248.16L130.46,248.16L129.35,247.34L127.14,247.34L126.03,254.71L123.82,254.71L122.72,251.43L120.51,251.43L119.4,248.98L117.19,248.98L116.08,246.52L113.87,246.52L112.77,244.88L110.56,244.88L109.45,241.61L107.24,241.61L106.13,239.97L103.92,239.97L102.82,239.15L100.61,239.15L99.5,236.69L97.29,236.69L96.18,235.87L93.97,235.87L92.87,234.23L87.34,234.23L86.23,235.05L84.02,235.05L82.92,234.23L80.71,234.23L79.6,235.05L77.39,235.05L76.28,235.87L70.76,235.87L69.65,237.51L67.44,237.51L66.33,239.15L64.12,239.15L63.02,241.61L60.81,241.61L59.7,251.43L57.49,251.43L56.38,252.25L54.17,252.25L53.07,253.89L50.86,253.89L49.75,255.53L47.54,255.53L46.43,258.8L44.22,258.8L43.12,262.08L40.91,262.08L39.8,266.99L36.48,266.99L35.38,271.91L34.27,271.91L33.17,277.64L30.96,277.64L29.85,283.37L27.64,283.37L26.53,289.93L24.32,289.93L23.22,297.3L21.01,297.3L19.9,304.67L17.69,304.67L16.58,312.04L14.37,312.04L13.27,320.23L11.06,320.23L9.95,327.6L7.74,327.6L6.63,334.15L4.42,334.15L3.32,342.34L1.11,342.34L0,350.53L-2.21,350.53L-3.32,357.08L-5.53,357.08L-6.63,372.65L-8.84,372.65L-9.95,377.56L-12.16,377.56L-13.27,382.47L-15.48,382.47L-16.58,387.39L-18.79,387.39L-19.9,393.12L-22.11,393.12L-23.22,398.03L-25.43,398.03L-26.53,402.95L-28.74,402.95L-29.85,408.68L-32.06,408.68L-33.17,413.6L-35.38,413.6L-36.48,418.51L-38.69,418.51L-39.8,421.79L-42.01,421.79L-43.12,426.7L-45.33,426.7L-46.43,432.43L-48.64,432.43L-49.75,438.17L-51.96,438.17L-53.07,442.26L-55.28,442.26L-56.38,447.17L-58.59,447.17L-59.7,452.09L-61.91,452.09L-63.02,457L-68.54,460.28L-69.65,465.19L-71.86,465.19L-72.97,476.66L-81.81,479.93L-82.92,482.39L-88.44,484.85L-89.55,487.31L-95.08,489.76L-96.18,492.22L-101.71,494.68L-102.82,497.95L-108.34,499.59L-109.45,501.23L-118.29,505.32L-119.4,507.78L-128.24,511.88L-129.35,515.15L-138.19,520.07L-139.3,526.62L-141.51,526.62L-142.62,527.44L-1791,532.35Z" style="fill: rgb(68, 68, 68); fill-opacity: 0.3; stroke-width: 0;"/></g></g><g class="errorbars"/><g class="lines"><path class="js-line" d="M-1791,532.35L-142.62,527.44L-141.51,526.62L-139.3,526.62L-138.19,520.07L-129.35,515.15L-128.24,511.88L-119.4,507.78L-118.29,505.32L-109.45,501.23L-108.34,499.59L-102.82,497.95L-101.71,494.68L-96.18,492.22L-95.08,489.76L-89.55,487.31L-88.44,484.85L-82.92,482.39L-81.81,479.93L-72.97,476.66L-71.86,465.19L-69.65,465.19L-68.54,460.28L-63.02,457L-61.91,452.09L-59.7,452.09L-58.59,447.17L-56.38,447.17L-55.28,442.26L-53.07,442.26L-51.96,438.17L-49.75,438.17L-48.64,432.43L-46.43,432.43L-45.33,426.7L-43.12,426.7L-42.01,421.79L-39.8,421.79L-38.69,418.51L-36.48,418.51L-35.38,413.6L-33.17,413.6L-32.06,408.68L-29.85,408.68L-28.74,402.95L-26.53,402.95L-25.43,398.03L-23.22,398.03L-22.11,393.12L-19.9,393.12L-18.79,387.39L-16.58,387.39L-15.48,382.47L-13.27,382.47L-12.16,377.56L-9.95,377.56L-8.84,372.65L-6.63,372.65L-5.53,357.08L-3.32,357.08L-2.21,350.53L0,350.53L1.11,342.34L3.32,342.34L4.42,334.15L6.63,334.15L7.74,327.6L9.95,327.6L11.06,320.23L13.27,320.23L14.37,312.04L16.58,312.04L17.69,304.67L19.9,304.67L21.01,297.3L23.22,297.3L24.32,289.93L26.53,289.93L27.64,283.37L29.85,283.37L30.96,277.64L33.17,277.64L34.27,271.91L35.38,271.91L36.48,266.99L39.8,266.99L40.91,262.08L43.12,262.08L44.22,258.8L46.43,258.8L47.54,255.53L49.75,255.53L50.86,253.89L53.07,253.89L54.17,252.25L56.38,252.25L57.49,251.43L59.7,251.43L60.81,241.61L63.02,241.61L64.12,239.15L66.33,239.15L67.44,237.51L69.65,237.51L70.76,235.87L76.28,235.87L77.39,235.05L79.6,235.05L80.71,234.23L82.92,234.23L84.02,235.05L86.23,235.05L87.34,234.23L92.87,234.23L93.97,235.87L96.18,235.87L97.29,236.69L99.5,236.69L100.61,239.15L102.82,239.15L103.92,239.97L106.13,239.97L107.24,241.61L109.45,241.61L110.56,244.88L112.77,244.88L113.87,246.52L116.08,246.52L117.19,248.98L119.4,248.98L120.51,251.43L122.72,251.43L123.82,254.71L126.03,254.71L127.14,247.34L129.35,247.34L130.46,248.16L132.67,248.16L133.77,248.98L135.98,248.98L137.09,250.61L142.62,250.61L143.72,252.25L145.93,252.25L147.04,253.89L149.25,253.89L150.36,255.53L152.57,255.53L153.67,257.17L155.88,257.17L156.99,257.99L159.2,257.99L160.31,259.62L162.52,259.62L163.62,261.26L169.15,261.26L170.26,262.08L172.47,262.08L173.57,262.9L182.42,262.9L183.52,263.72L185.73,263.72L186.84,264.54L192.37,264.54L193.47,255.53L195.68,255.53L196.79,252.25L199,252.25L200.11,249.8L202.32,249.8L203.42,246.52L205.63,246.52L206.74,244.88L208.95,244.88L210.06,242.42L212.27,242.42L213.37,240.79L215.58,240.79L216.69,238.33L218.9,238.33L220.01,235.87L222.22,235.87L223.32,233.42L225.53,233.42L226.64,230.96L228.85,230.96L229.96,228.5L232.17,228.5L233.27,226.04L235.48,226.04L236.59,223.59L238.8,223.59L239.91,220.31L242.12,220.31L243.22,218.67L245.43,218.67L246.54,216.22L248.75,216.22L249.86,213.76L252.07,213.76L253.17,212.12L255.38,212.12L256.49,211.3L258.7,211.3L259.81,201.47L262.02,201.47L263.12,198.2L265.33,198.2L266.44,194.92L268.65,194.92L269.76,192.47L271.97,192.47L273.07,190.83L275.28,190.83L276.39,190.01L278.6,190.01L279.71,189.19L295.18,189.19L296.29,190.01L315.08,190.01L316.19,188.37L321.72,188.37L322.82,187.55L325.03,187.55L326.14,177.72L328.35,177.72L329.46,171.99L331.67,171.99L332.77,167.9L334.98,167.9L336.09,163.8L338.3,163.8L339.41,159.7L341.62,159.7L342.72,157.25L344.93,157.25L346.04,153.15L348.25,153.15L349.36,149.88L351.57,149.88L352.67,145.78L354.88,145.78L355.99,141.69L358.2,141.69L359.31,138.41L361.52,138.41L362.62,134.32L364.83,134.32L365.94,131.04L368.15,131.04L369.26,126.95L371.47,126.95L372.57,123.67L373.68,123.67L374.78,119.57L378.1,119.57L379.21,117.12L381.42,117.12L382.52,114.66L384.73,114.66L385.84,113.02L388.05,113.02L389.16,112.2L391.37,112.2L392.47,102.38L394.68,102.38L395.79,99.1L398,99.1L399.11,97.46L401.32,97.46L402.42,95L404.63,95L405.74,93.37L407.95,93.37L409.06,91.73L411.27,91.73L412.37,90.09L414.58,90.09L415.69,89.27L417.9,89.27L419.01,87.63L421.22,87.63L422.32,85.18L424.53,85.18L425.64,83.54L427.85,83.54L428.96,81.9L431.17,81.9L432.27,80.26L434.48,80.26L435.59,78.62L437.8,78.62L438.91,76.99L441.12,76.99L442.22,75.35L444.43,75.35L445.54,74.53L447.75,74.53L448.86,72.89L451.07,72.89L452.17,72.07L454.38,72.07L455.49,70.43L457.7,70.43L458.81,60.61L461.02,60.61L462.12,57.33L464.33,57.33L465.44,54.87L467.65,54.87L468.76,54.05L477.6,54.05L478.71,55.69L480.92,55.69L482.02,57.33L484.23,57.33L485.34,58.15L487.55,58.15L488.66,60.61L490.87,60.61L491.97,61.43L494.18,61.43L495.29,62.24L497.5,62.24L498.61,63.88L500.82,63.88L501.92,63.06L504.13,63.06L505.24,63.88L517.4,63.88L518.51,64.7L524.03,64.7L525.14,54.87L527.35,54.87L528.46,50.78L530.67,50.78L531.77,46.68L533.98,46.68L535.09,43.41L537.3,43.41L538.41,40.95L540.62,40.95L541.72,39.31L543.93,39.31L545.04,37.67L547.25,37.67L548.36,38.49L550.57,38.49L551.67,39.31L553.88,39.31L554.99,40.95L557.2,40.95L558.31,43.41L560.52,43.41L561.62,45.05L563.83,45.05L564.94,45.86L567.15,45.86L568.26,46.68L573.78,46.68L574.89,45.86L577.1,45.86L578.21,43.41L580.42,43.41L581.52,41.77L583.73,41.77L584.84,39.31L587.05,39.31L588.16,36.86L590.37,36.86L591.47,25.39L593.68,25.39L594.79,18.84L597,18.84L598.11,13.1L600.32,13.1L601.42,7.37L603.63,7.37L604.74,0.82L606.95,0.82L608.06,-4.91L610.27,-4.91L611.37,-9.83L613.58,-9.83L614.69,-15.56L616.9,-15.56L618.01,-18.84L623.53,-19.66L624.64,-20.48L630.17,-19.66L631.27,-17.2L633.48,-17.2L634.59,-13.92L636.8,-13.92L637.91,-12.28L640.12,-12.28L641.22,-10.65L643.43,-10.65L644.54,-9.01L653.38,-9.01L654.49,-11.47L656.7,-11.47L657.81,-22.93L660.02,-22.93L661.12,-29.48L662.23,-29.48L663.33,-35.22L666.65,-35.22L667.76,-41.77L669.97,-41.77L671.07,-48.32L673.28,-48.32L674.39,-55.69L676.6,-55.69L677.71,-63.06L679.92,-63.06L681.02,-70.43L683.23,-70.43L684.34,-76.99L686.55,-76.99L687.66,-84.36L689.87,-84.36L690.97,-90.91L693.18,-90.91L694.29,-96.64L696.5,-96.64L697.61,-100.74L709.77,-101.56L710.87,-98.28L713.08,-98.28L714.19,-94.18L719.72,-91.73L720.82,-90.09L723.03,-90.09L724.14,-99.1L726.35,-99.1L727.46,-104.01L729.67,-104.01L730.77,-108.11L732.98,-108.11L734.09,-113.84L736.3,-113.84L737.41,-118.75L739.62,-118.75L740.72,-124.49L742.93,-124.49L744.04,-130.22L746.25,-130.22L747.36,-136.77L749.57,-136.77L750.67,-142.51L752.88,-142.51L753.99,-149.88L756.2,-149.88L757.31,-155.61L759.52,-155.61L760.62,-162.98L761.73,-162.98L762.83,-169.53L766.15,-169.53L767.26,-176.08L769.47,-176.08L770.57,-183.46L772.78,-183.46L773.89,-190.83L776.1,-190.83L777.21,-196.56L782.73,-200.65L783.84,-203.93L789.37,-203.93L790.47,-212.12L802.63,-210.48L803.74,-207.21L809.27,-203.11L810.37,-199.02L815.9,-194.1L817.01,-190.01L822.53,-185.09L823.64,-181L825.85,-181L826.96,-175.27L832.48,-171.17L833.59,-166.26L839.12,-162.16L840.22,-157.25L842.43,-157.25L843.54,-151.51L845.75,-151.51L846.86,-146.6L849.07,-146.6L850.17,-141.69L852.38,-141.69L853.49,-136.77L855.7,-136.77L856.81,-140.87L862.33,-139.23L863.44,-135.95L868.97,-131.86L870.07,-127.76L875.6,-123.67L876.71,-119.57L878.92,-119.57L880.02,-114.66L882.23,-114.66L883.34,-109.75L884.44,-109.75L885.55,-104.01L888.87,-104.01L889.97,-99.1L892.18,-99.1L893.29,-93.37L895.5,-93.37L896.61,-86.81L898.82,-86.81L899.92,-81.08L902.13,-81.08L903.24,-73.71L905.45,-73.71L906.56,-66.34L908.77,-66.34L909.87,-58.97L912.08,-58.97L913.19,-52.42L915.4,-52.42L916.51,-44.23L918.72,-44.23L919.82,-36.85L922.03,-36.85L923.14,-31.94L925.35,-31.94L926.46,-25.39L928.67,-25.39L929.77,-18.84L931.98,-18.84L933.09,-12.28L935.3,-12.28L936.41,-5.73L938.62,-5.73L939.72,0.82L941.93,0.82L943.04,8.19L945.25,8.19L946.36,14.74L948.57,14.74L949.67,21.29L951.88,21.29L952.99,27.85L955.2,27.85L956.31,34.4L958.52,34.4L959.62,40.95L961.83,40.95L962.94,47.5L965.15,47.5L966.26,54.05L968.47,54.05L969.57,60.61L971.78,60.61L972.89,67.98L975.1,67.98L976.21,75.35L978.42,75.35L979.52,81.9L981.73,81.9L982.84,89.27L985.05,89.27L986.16,95.82L988.37,95.82L989.47,102.38L991.68,102.38L992.79,109.75L995,109.75L996.11,116.3L998.32,116.3L999.42,123.67L1004.95,129.4L1006.06,135.95L1008.27,135.95L1009.37,142.51L1014.9,147.42L1016.01,153.97L1021.53,158.89L1022.64,162.98L1028.17,167.08L1029.27,171.99L1034.8,176.09L1035.91,179.36L1041.43,181.82L1042.54,185.91L1054.7,191.65L1055.81,193.28L1094.5,189.19L1095.61,186.73L1111.08,181L1112.19,179.36L1117.72,175.27L1118.82,170.35L1124.35,164.62L1125.46,155.61L1127.67,155.61L1128.77,145.78L1130.98,145.78L1132.09,134.32L1134.3,134.32L1135.41,120.39L1137.62,120.39L1138.72,106.47L1140.93,106.47L1142.04,91.73L1144.25,91.73L1145.36,75.35L1147.57,75.35L1148.67,57.33L1150.88,57.33L1151.99,40.13L1154.2,40.13L1155.31,22.93L1157.52,22.93L1158.62,4.1L1160.83,4.1L1161.94,-13.1L1164.15,-13.1L1165.26,-30.3L1167.47,-30.3L1168.57,-47.5L1170.78,-47.5L1171.89,-64.7L1174.1,-64.7L1175.21,-81.08L1177.42,-81.08L1178.52,-97.46L1180.73,-97.46L1181.84,-114.66L1184.05,-114.66L1185.16,-131.04L1187.37,-131.04L1188.47,-148.24L1190.68,-148.24L1191.79,-164.62L1194,-164.62L1195.11,-180.18L1197.32,-180.18L1198.42,-194.1L1200.63,-194.1L1201.74,-206.39L1203.95,-206.39L1205.06,-215.4L1207.27,-215.4L1208.37,-224.41L1213.9,-230.96L1215.01,-235.87L1220.53,-241.6L1221.64,-246.52L1230.48,-253.89L1231.59,-257.98L1240.43,-263.72L1241.54,-267.81L1247.07,-272.73L1248.17,-276.82L1257.02,-285.01L1258.12,-286.65L1313.4,-277.64L1314.51,-276L1329.98,-266.17L1331.09,-263.72L1343.25,-254.71L1344.36,-251.43L1353.2,-244.06L1354.31,-239.15L1363.15,-230.14L1364.26,-225.23L1373.1,-216.22L1374.21,-210.48L1405.16,-166.26L1406.27,-166.26L1423.96,-135.13L1425.06,-135.13L1499.13,6.55L1500.24,3.28L1501.34,3.28L1585.37,-136.77L1586.47,-145.78L1620.74,-200.65L1621.85,-200.65L1641.75,-205.57L1642.86,-210.48L1691.5,-286.65L1692.61,-286.65L1724.67,-273.55L1725.77,-267.81L1747.88,-266.99L1748.99,-269.45L1781.05,-282.55L1782.16,-280.92L1783.26,-280.92L1800.95,-259.62L1802.06,-251.43L1827.48,-231.78L1828.59,-232.6L1875.02,-246.52L1876.13,-246.52L1903.77,-232.6L1904.87,-229.32L1920.35,-242.42L1921.46,-248.98L1954.62,-286.65L1955.73,-286.65L2135.93,-270.27L2137.04,-265.36L2185.68,-134.32L2186.79,-121.21L2238.75,-1.64L2239.86,0L2282.97,-7.37L2284.08,-7.37L2315.03,-40.13L2316.14,-45.86L2423.38,-144.14L2424.48,-144.14L2517.35,-226.04L2518.46,-223.59L2574.84,-190.01L2575.94,-190.01L2610.22,-152.33L2611.32,-144.96L2684.29,-21.29L2685.39,-21.29L2719.67,0.82L2721.88,-2.46L2722.98,-2.46L2822.48,-126.95L2823.59,-134.32L2923.09,-286.65L2924.19,-286.65L3034.75,-262.9L3035.86,-254.71L3103.29,-162.98L3104.4,-162.98L3151.94,-76.17L3153.04,-76.17L3305.61,88.45L3306.72,88.45L3482.5,155.61L3483.61,155.61L3781,132.68" style="vector-effect: non-scaling-stroke; fill: none; stroke: rgb(214, 39, 40); stroke-opacity: 1; stroke-width: 2px; opacity: 1;"/></g><g class="points"/><g class="text"/></g><g class="trace scatter tracefeb52e13-b41e-4387-9aea-278c97277372" style="stroke-miterlimit: 2;"><g class="fills"/><g class="errorbars"/><g class="lines"><path class="js-line" d="M-1802.14,530.71L-153.76,525.8L-152.66,524.98L-150.44,524.98L-149.34,518.43L-140.49,513.51L-139.39,510.24L-130.54,506.14L-129.44,503.69L-120.59,499.59L-119.49,497.95L-113.96,496.31L-112.86,493.04L-107.33,490.58L-106.22,488.12L-100.69,485.67L-99.59,483.21L-94.06,480.75L-92.96,478.3L-84.11,475.02L-83.01,463.55L-80.79,463.55L-79.69,458.64L-74.16,455.36L-73.06,450.45L-70.84,450.45L-69.74,445.54L-67.53,445.54L-66.42,440.62L-64.21,440.62L-63.11,436.53L-60.89,436.53L-59.79,430.79L-57.58,430.79L-56.47,425.06L-54.26,425.06L-53.16,420.15L-50.94,420.15L-49.84,416.87L-47.63,416.87L-46.52,411.96L-44.31,411.96L-43.21,407.04L-40.99,407.04L-39.89,401.31L-37.68,401.31L-36.57,396.4L-34.36,396.4L-33.26,391.48L-31.04,391.48L-29.94,385.75L-27.73,385.75L-26.62,380.84L-24.41,380.84L-23.31,375.92L-21.09,375.92L-19.99,371.01L-17.78,371.01L-16.67,355.45L-14.46,355.45L-13.36,348.89L-11.14,348.89L-10.04,340.7L-7.83,340.7L-6.72,332.51L-4.51,332.51L-3.41,325.96L-1.19,325.96L-0.09,318.59L2.12,318.59L3.23,310.4L5.44,310.4L6.54,303.03L8.76,303.03L9.86,295.66L12.07,295.66L13.18,288.29L15.39,288.29L16.49,281.74L18.71,281.74L19.81,276L22.02,276L23.13,270.27L24.23,270.27L25.34,265.36L28.66,265.36L29.76,260.44L31.97,260.44L33.08,257.17L35.29,257.17L36.39,253.89L38.61,253.89L39.71,252.25L41.92,252.25L43.03,250.61L45.24,250.61L46.34,249.8L48.56,249.8L49.66,239.97L51.87,239.97L52.98,237.51L55.19,237.51L56.29,235.87L58.51,235.87L59.61,234.23L65.14,234.23L66.24,233.42L68.46,233.42L69.56,232.6L104.01,232.6L105.12,234.23L107.33,234.23L108.43,235.05L110.64,235.05L111.75,237.51L113.96,237.51L115.07,238.33L117.28,238.33L118.38,239.97L120.59,239.97L121.7,243.24L123.91,243.24L125.02,244.88L127.23,244.88L127.6,245.7L140.49,245.7L141.6,246.52L143.81,246.52L144.92,247.34L147.13,247.34L148.23,248.98L153.76,248.98L154.87,250.61L157.08,250.61L158.18,252.25L160.39,252.25L161.5,253.89L163.71,253.89L164.82,255.53L167.03,255.53L168.13,256.35L170.34,256.35L171.45,257.99L173.66,257.99L174.77,259.62L180.29,259.62L181.4,260.44L182.33,253.89L184.54,253.89L185.64,250.61L187.86,250.61L188.96,248.16L191.17,248.16L192.28,244.88L194.49,244.88L195.59,243.24L197.81,243.24L198.91,240.79L201.12,240.79L202.23,239.15L204.44,239.15L205.54,236.69L207.76,236.69L208.86,234.23L211.07,234.23L212.18,231.78L214.39,231.78L215.49,229.32L217.71,229.32L218.81,226.86L221.02,226.86L222.13,224.41L224.34,224.41L225.44,221.95L227.66,221.95L228.76,218.67L230.97,218.67L232.08,217.04L234.29,217.04L235.39,214.58L237.61,214.58L238.71,212.12L240.92,212.12L242.03,210.48L244.24,210.48L245.34,209.66L247.56,209.66L248.66,199.84L250.87,199.84L251.98,196.56L254.19,196.56L255.29,193.28L257.51,193.28L258.61,190.83L260.82,190.83L261.93,189.19L264.14,189.19L265.24,188.37L267.46,188.37L268.56,187.55L304.49,187.55L305.04,186.73L310.57,186.73L311.68,185.91L313.89,185.91L314.99,176.09L317.21,176.09L318.31,170.35L320.52,170.35L321.63,166.26L323.84,166.26L324.94,162.16L327.16,162.16L328.26,158.07L330.47,158.07L331.58,155.61L333.79,155.61L334.89,151.51L337.11,151.51L338.21,148.24L340.42,148.24L341.53,144.14L343.74,144.14L344.84,140.05L347.06,140.05L348.16,136.77L350.37,136.77L351.48,132.68L353.69,132.68L354.79,129.4L357.01,129.4L358.11,125.31L360.32,125.31L361.43,122.03L362.53,122.03L363.64,117.94L366.96,117.94L368.06,115.48L370.27,115.48L371.38,113.02L373.59,113.02L374.69,111.38L376.91,111.38L378.01,110.57L380.22,110.57L381.33,100.74L383.54,100.74L384.64,97.46L386.86,97.46L387.96,95.82L390.17,95.82L391.28,93.37L393.49,93.37L394.59,91.73L396.81,91.73L397.91,90.09L400.12,90.09L401.23,88.45L403.44,88.45L404.54,87.63L406.76,87.63L407.86,86L410.07,86L411.18,83.54L413.39,83.54L414.49,81.9L416.71,81.9L417.81,80.26L420.02,80.26L421.13,78.62L423.34,78.62L424.44,76.99L426.66,76.99L427.76,75.35L429.97,75.35L431.08,73.71L433.29,73.71L434.39,72.89L436.61,72.89L437.71,71.25L439.92,71.25L441.03,70.43L443.24,70.43L444.34,68.8L446.56,68.8L447.66,58.97L449.87,58.97L450.98,55.69L453.19,55.69L454.29,53.24L456.51,53.24L457.61,52.42L488.74,52.42L489.85,54.05L492.06,54.05L493.17,55.69L495.38,55.69L496.48,56.51L498.69,56.51L499.8,58.97L502.01,58.97L503.12,59.79L505.33,59.79L506.43,60.61L508.64,60.61L509.2,61.43L513.07,61.43L513.99,53.24L516.21,53.24L517.31,49.14L519.52,49.14L520.63,45.05L522.84,45.05L523.94,41.77L526.16,41.77L527.26,39.31L529.47,39.31L530.58,37.67L532.79,37.67L533.89,36.04L558.39,36.04L559.5,36.86L561.71,36.86L562.82,37.67L565.03,37.67L566.13,39.31L568.34,39.31L569.38,41.61L570.38,40.13L572.59,40.13L573.69,37.67L575.91,37.67L577.01,35.22L579.22,35.22L580.33,23.75L582.54,23.75L583.64,17.2L585.86,17.2L586.96,11.47L589.17,11.47L590.28,5.73L592.49,5.73L593.59,-0.82L595.81,-0.82L596.91,-6.55L599.12,-6.55L600.23,-11.47L602.44,-11.47L603.54,-17.2L605.76,-17.2L606.86,-20.48L612.39,-21.29L613.49,-22.11L641.31,-21.29L642.42,-18.84L644.63,-18.84L645.73,-15.56L646.66,-24.57L648.87,-24.57L652.19,-36.85L655.51,-36.85L656.61,-43.41L658.82,-43.41L659.93,-49.96L662.14,-49.96L663.24,-57.33L665.46,-57.33L669.88,-72.07L672.09,-72.07L676.51,-85.99L678.72,-85.99L683.14,-98.28L685.36,-98.28L689.78,-104.01L691.99,-104.01L693.09,-104.83L716.13,-104.83L719.63,-109.75L721.84,-109.75L726.26,-120.39L728.47,-120.39L732.89,-131.86L735.11,-131.86L739.53,-144.14L741.74,-144.14L746.16,-157.25L748.37,-157.25L756.11,-177.72L758.32,-177.72L766.06,-198.2L768.27,-198.2L772.69,-205.57L778.22,-205.57L782.64,-214.58L807.14,-214.58L823.73,-200.65L824.83,-195.74L830.36,-191.65L831.47,-186.73L836.99,-182.64L838.1,-176.9L843.63,-172.81L844.73,-167.89L850.26,-163.8L851.37,-158.89L853.58,-158.89L854.68,-153.15L856.89,-153.15L858,-148.24L860.21,-148.24L861.32,-143.32L873.48,-140.87L874.58,-137.59L880.11,-133.5L881.22,-129.4L886.74,-125.31L887.85,-121.21L890.06,-121.21L891.17,-116.3L893.38,-116.3L894.48,-111.38L895.59,-111.38L896.69,-105.65L900.01,-105.65L901.12,-100.74L903.33,-100.74L904.43,-95L906.64,-95L907.75,-88.45L909.96,-88.45L911.07,-82.72L913.28,-82.72L914.38,-75.35L916.59,-75.35L917.7,-67.98L919.91,-67.98L921.02,-60.61L923.23,-60.61L924.33,-54.05L926.54,-54.05L927.65,-45.86L929.86,-45.86L930.97,-38.49L936.49,-33.58L937.6,-27.03L939.81,-27.03L940.92,-20.48L943.13,-20.48L944.23,-13.92L946.44,-13.92L947.55,-7.37L949.76,-7.37L950.87,-0.82L953.08,-0.82L954.18,6.55L956.39,6.55L957.5,13.1L959.71,13.1L960.82,19.66L963.03,19.66L964.13,26.21L966.34,26.21L967.45,32.76L969.66,32.76L970.77,39.31L972.98,39.31L974.08,45.86L976.29,45.86L977.4,52.42L979.61,52.42L980.72,58.97L982.93,58.97L984.03,66.34L986.24,66.34L987.35,73.71L989.56,73.71L990.67,80.26L992.88,80.26L993.98,87.63L996.19,87.63L997.3,94.19L999.51,94.19L1000.62,100.74L1002.83,100.74L1003.93,108.11L1006.14,108.11L1007.25,114.66L1009.46,114.66L1010.57,122.03L1016.09,127.76L1017.2,134.32L1019.41,134.32L1020.52,140.87L1026.04,145.78L1027.15,152.33L1032.68,157.25L1033.78,161.34L1039.31,165.44L1040.42,170.35L1045.94,174.45L1047.05,177.72L1052.58,180.18L1053.68,184.28L1065.84,190.01L1066.95,191.65L1096.62,181.82L1097.73,179.36L1106.57,173.63L1107.68,168.71L1113.21,162.98L1114.31,153.97L1116.52,153.97L1117.63,144.14L1119.84,144.14L1120.94,132.68L1123.16,132.68L1124.26,118.76L1126.47,118.76L1127.58,104.83L1129.79,104.83L1130.89,90.09L1133.11,90.09L1134.21,73.71L1136.42,73.71L1137.53,55.69L1139.74,55.69L1140.84,38.49L1143.06,38.49L1144.16,21.29L1146.37,21.29L1147.48,2.46L1149.69,2.46L1150.79,-14.74L1153.01,-14.74L1154.11,-31.94L1156.32,-31.94L1157.43,-49.14L1159.64,-49.14L1160.74,-66.34L1162.96,-66.34L1164.06,-82.72L1166.27,-82.72L1167.38,-99.1L1169.59,-99.1L1170.69,-116.3L1172.91,-116.3L1174.01,-132.68L1176.22,-132.68L1177.33,-149.88L1179.54,-149.88L1180.64,-166.26L1182.86,-166.26L1183.96,-181.82L1186.17,-181.82L1187.28,-195.74L1189.49,-195.74L1190.59,-208.03L1192.81,-208.03L1193.91,-217.03L1196.12,-217.03L1197.23,-226.04L1202.76,-232.6L1203.86,-237.51L1209.39,-243.24L1210.49,-248.16L1219.34,-255.53L1220.44,-259.62L1229.29,-265.36L1230.39,-269.45L1235.92,-274.36L1237.03,-278.46L1245.87,-286.65L1246.98,-288.29L1324.54,-279.28L1325.65,-277.64L1341.13,-267.81L1342.23,-265.36L1354.39,-256.35L1355.5,-253.07L1364.34,-245.7L1365.45,-240.79L1374.29,-231.78L1375.4,-226.86L1384.24,-217.85L1385.35,-212.12L1415.2,-167.89L1417.41,-167.89L1435.1,-136.77L1437.31,-136.77L1458.32,-91.73L1460.53,-91.73L1478.22,-47.5L1480.43,-47.5L1497.94,-5.73L1499.04,-10.65L1608.49,-202.29L1624.34,-202.29L1640.56,-225.23L1641.66,-232.6L1664.88,-288.29L1722.54,-288.29L1750.01,-280.1L1751.11,-282.55L1798.83,-280.92L1799.93,-277.64L1836.24,-244.06L1837.34,-245.7L1881.74,-248.98L1882.85,-248.16L1915.84,-258.8L1916.94,-266.17L1926.89,-288.29L2133.81,-288.29L2160.34,-248.16L2161.45,-239.97L2213.41,-69.62L2214.52,-56.51L2249.89,-3.28L2250.91,-1.77L2297.26,-31.12L2298.36,-36.04L2364.69,-107.29L2366.91,-107.29L2528.49,-227.68L2529.6,-225.23L2531.81,-225.23L2585.98,-191.65L2588.19,-191.65L2621.36,-153.97L2622.47,-146.6L2695.43,-22.93L2697.64,-22.93L2709.08,-2.46L2726.21,-18.02L2728.42,-18.02L2853.35,-229.32L2854.46,-237.51L2882.09,-288.29L3029.31,-288.29L3132.13,-130.22L3133.23,-123.67L3208.41,-15.56L3209.52,-10.65L3398.57,122.85L3400.78,122.85L3478.17,153.15L3526.63,153.15L3792.14,131.04" style="vector-effect: non-scaling-stroke; fill: none; stroke: rgb(148, 103, 189); stroke-opacity: 1; stroke-width: 0px; opacity: 1;"/></g><g class="points"/><g class="text"/></g></g></g><g class="overplot"/><path class="xlines-above crisp" d="M79,428.1H677" style="fill: none; stroke-width: 1px; stroke: rgb(68, 68, 68); stroke-opacity: 1;"/><path class="ylines-above crisp" d="M79.5,100V427.6" style="fill: none; stroke-width: 1px; stroke: rgb(68, 68, 68); stroke-opacity: 1;"/><g class="overlines-above"/><g class="xaxislayer-above"><path class="xtick ticks crisp" d="M0,428.6v5" transform="translate(168.44,0)" style="stroke: rgb(68, 68, 68); stroke-opacity: 1; stroke-width: 1px;"/><path class="xtick ticks crisp" d="M0,428.6v5" transform="translate(279,0)" style="stroke: rgb(68, 68, 68); stroke-opacity: 1; stroke-width: 1px;"/><path class="xtick ticks crisp" d="M0,428.6v5" transform="translate(389.56,0)" style="stroke: rgb(68, 68, 68); stroke-opacity: 1; stroke-width: 1px;"/><path class="xtick ticks crisp" d="M0,428.6v5" transform="translate(500.11,0)" style="stroke: rgb(68, 68, 68); stroke-opacity: 1; stroke-width: 1px;"/><path class="xtick ticks crisp" d="M0,428.6v5" transform="translate(610.67,0)" style="stroke: rgb(68, 68, 68); stroke-opacity: 1; stroke-width: 1px;"/><g class="xtick"><text text-anchor="middle" x="0" y="448" transform="translate(168.44,0)" style="font-family: 'Open Sans', verdana, arial, sans-serif; font-size: 12px; fill: rgb(68, 68, 68); fill-opacity: 1; white-space: pre;">62500</text></g><g class="xtick"><text text-anchor="middle" x="0" y="448" transform="translate(279,0)" style="font-family: 'Open Sans', verdana, arial, sans-serif; font-size: 12px; fill: rgb(68, 68, 68); fill-opacity: 1; white-space: pre;">63000</text></g><g class="xtick"><text text-anchor="middle" x="0" y="448" transform="translate(389.56,0)" style="font-family: 'Open Sans', verdana, arial, sans-serif; font-size: 12px; fill: rgb(68, 68, 68); fill-opacity: 1; white-space: pre;">63500</text></g><g class="xtick"><text text-anchor="middle" x="0" y="448" transform="translate(500.11,0)" style="font-family: 'Open Sans', verdana, arial, sans-serif; font-size: 12px; fill: rgb(68, 68, 68); fill-opacity: 1; white-space: pre;">64000</text></g><g class="xtick"><text text-anchor="middle" x="0" y="448" transform="translate(610.67,0)" style="font-family: 'Open Sans', verdana, arial, sans-serif; font-size: 12px; fill: rgb(68, 68, 68); fill-opacity: 1; white-space: pre;">64500</text></g></g><g class="yaxislayer-above"><path class="ytick ticks crisp" d="M79,0h-5" transform="translate(0,427.6)" style="stroke: rgb(68, 68, 68); stroke-opacity: 1; stroke-width: 1px;"/><path class="ytick ticks crisp" d="M79,0h-5" transform="translate(0,386.65)" style="stroke: rgb(68, 68, 68); stroke-opacity: 1; stroke-width: 1px;"/><path class="ytick ticks crisp" d="M79,0h-5" transform="translate(0,345.7)" style="stroke: rgb(68, 68, 68); stroke-opacity: 1; stroke-width: 1px;"/><path class="ytick ticks crisp" d="M79,0h-5" transform="translate(0,304.75)" style="stroke: rgb(68, 68, 68); stroke-opacity: 1; stroke-width: 1px;"/><path class="ytick ticks crisp" d="M79,0h-5" transform="translate(0,263.8)" style="stroke: rgb(68, 68, 68); stroke-opacity: 1; stroke-width: 1px;"/><path class="ytick ticks crisp" d="M79,0h-5" transform="translate(0,222.85)" style="stroke: rgb(68, 68, 68); stroke-opacity: 1; stroke-width: 1px;"/><path class="ytick ticks crisp" d="M79,0h-5" transform="translate(0,181.9)" style="stroke: rgb(68, 68, 68); stroke-opacity: 1; stroke-width: 1px;"/><path class="ytick ticks crisp" d="M79,0h-5" transform="translate(0,140.95)" style="stroke: rgb(68, 68, 68); stroke-opacity: 1; stroke-width: 1px;"/><path class="ytick ticks crisp" d="M79,0h-5" transform="translate(0,100)" style="stroke: rgb(68, 68, 68); stroke-opacity: 1; stroke-width: 1px;"/><g class="ytick"><text text-anchor="end" x="71.6" y="4.199999999999999" transform="translate(0,427.6)" style="font-family: 'Open Sans', verdana, arial, sans-serif; font-size: 12px; fill: rgb(68, 68, 68); fill-opacity: 1; white-space: pre;">0.25</text></g><g class="ytick"><text text-anchor="end" x="71.6" y="4.199999999999999" transform="translate(0,386.65)" style="font-family: 'Open Sans', verdana, arial, sans-serif; font-size: 12px; fill: rgb(68, 68, 68); fill-opacity: 1; white-space: pre;">0.3</text></g><g class="ytick"><text text-anchor="end" x="71.6" y="4.199999999999999" transform="translate(0,345.7)" style="font-family: 'Open Sans', verdana, arial, sans-serif; font-size: 12px; fill: rgb(68, 68, 68); fill-opacity: 1; white-space: pre;">0.35</text></g><g class="ytick"><text text-anchor="end" x="71.6" y="4.199999999999999" transform="translate(0,304.75)" style="font-family: 'Open Sans', verdana, arial, sans-serif; font-size: 12px; fill: rgb(68, 68, 68); fill-opacity: 1; white-space: pre;">0.4</text></g><g class="ytick"><text text-anchor="end" x="71.6" y="4.199999999999999" transform="translate(0,263.8)" style="font-family: 'Open Sans', verdana, arial, sans-serif; font-size: 12px; fill: rgb(68, 68, 68); fill-opacity: 1; white-space: pre;">0.45</text></g><g class="ytick"><text text-anchor="end" x="71.6" y="4.199999999999999" transform="translate(0,222.85)" style="font-family: 'Open Sans', verdana, arial, sans-serif; font-size: 12px; fill: rgb(68, 68, 68); fill-opacity: 1; white-space: pre;">0.5</text></g><g class="ytick"><text text-anchor="end" x="71.6" y="4.199999999999999" transform="translate(0,181.9)" style="font-family: 'Open Sans', verdana, arial, sans-serif; font-size: 12px; fill: rgb(68, 68, 68); fill-opacity: 1; white-space: pre;">0.55</text></g><g class="ytick"><text text-anchor="end" x="71.6" y="4.199999999999999" transform="translate(0,140.95)" style="font-family: 'Open Sans', verdana, arial, sans-serif; font-size: 12px; fill: rgb(68, 68, 68); fill-opacity: 1; white-space: pre;">0.6</text></g><g class="ytick"><text text-anchor="end" x="71.6" y="4.199999999999999" transform="translate(0,100)" style="font-family: 'Open Sans', verdana, arial, sans-serif; font-size: 12px; fill: rgb(68, 68, 68); fill-opacity: 1; white-space: pre;">0.65</text></g></g><g class="overaxes-above"/></g><g class="subplot xy2"><g class="layer-subplot"><g class="shapelayer"/><g class="imagelayer"/></g><g class="gridlayer"><g class="x"><path class="xgrid crisp" d="M0,457v63" transform="translate(168.44,0)" style="stroke: rgb(238, 238, 238); stroke-opacity: 1; stroke-width: 1px;"/><path class="xgrid crisp" d="M0,457v63" transform="translate(279,0)" style="stroke: rgb(238, 238, 238); stroke-opacity: 1; stroke-width: 1px;"/><path class="xgrid crisp" d="M0,457v63" transform="translate(389.56,0)" style="stroke: rgb(238, 238, 238); stroke-opacity: 1; stroke-width: 1px;"/><path class="xgrid crisp" d="M0,457v63" transform="translate(500.11,0)" style="stroke: rgb(238, 238, 238); stroke-opacity: 1; stroke-width: 1px;"/><path class="xgrid crisp" d="M0,457v63" transform="translate(610.67,0)" style="stroke: rgb(238, 238, 238); stroke-opacity: 1; stroke-width: 1px;"/></g><g class="y2"><path class="y2grid crisp" d="M80,0h597" transform="translate(0,516.85)" style="stroke: rgb(238, 238, 238); stroke-opacity: 1; stroke-width: 1px;"/><path class="y2grid crisp" d="M80,0h597" transform="translate(0,502.03)" style="stroke: rgb(238, 238, 238); stroke-opacity: 1; stroke-width: 1px;"/><path class="y2grid crisp" d="M80,0h597" transform="translate(0,487.21)" style="stroke: rgb(238, 238, 238); stroke-opacity: 1; stroke-width: 1px;"/><path class="y2grid crisp" d="M80,0h597" transform="translate(0,472.39)" style="stroke: rgb(238, 238, 238); stroke-opacity: 1; stroke-width: 1px;"/></g></g><g class="zerolinelayer"/><path class="xlines-below"/><path class="ylines-below"/><g class="overlines-below"/><g class="xaxislayer-below"/><g class="yaxislayer-below"/><g class="overaxes-below"/><g class="plot" transform="translate(80, 457)" clip-path="url(#clipc85600xy2plot)"><g class="scatterlayer mlayer"><g class="trace scatter trace14a573a7-b7ef-459f-a8b6-1762c94dff1e" style="stroke-miterlimit: 2; opacity: 1;"><g class="fills"/><g class="errorbars"/><g class="lines"><path class="js-line" d="M-1791,59.85L72.97,59.85L74.07,58.53L75.18,59.46L76.28,57.67L77.39,55.88L78.49,57.3L81.81,53.41L82.92,55.32L86.23,52.91L87.34,55.32L90.66,54.4L91.76,57.3L95.08,57.85L96.18,59.85L123.82,59.85L124.93,53.97L126.03,52.64L127.14,54.98L128.24,51.64L129.35,51.27L130.46,54.12L131.56,54.24L134.88,54.61L135.98,57.94L140.41,59.85L141.51,59.85L170.26,59.85L171.36,58.67L173.57,59.85L174.68,52.86L176.89,53.62L177.99,54.24L180.21,55.47L181.31,53.36L182.42,59.85L183.52,59.85L267.54,59.85L268.65,58.75L269.76,58.01L270.86,54.55L271.97,51.09L273.07,50.84L274.18,47.88L275.28,48.13L277.49,43.19L278.6,43.93L280.81,39.97L281.92,41.21L283.02,39.73L284.13,41.46L287.44,38.49L288.55,40.72L291.87,39.23L292.97,41.95L304.03,41.95L305.13,44.92L310.66,45.15L311.77,47.88L312.87,47.88L313.98,50.73L315.08,59.85L316.19,59.85L378.1,59.7L379.21,55.69L380.31,54.52L381.42,59.85L392.47,59.85L393.58,58.67L394.68,59.06L395.79,53.99L396.89,52.61L398,56.71L400.21,49.03L401.32,53.62L402.42,50.04L403.53,49.91L404.63,49.55L405.74,46.46L406.84,43.85L407.95,49.42L410.16,44.95L411.27,50.53L413.48,45.82L414.58,51.89L416.79,48.17L417.9,51.52L420.11,47.8L421.22,51.15L423.43,47.43L424.53,50.78L426.74,47.06L427.85,50.41L430.06,46.69L431.17,50.04L433.38,46.08L434.48,46.71L436.69,42.98L437.8,46.34L440.01,42.37L441.12,43L443.33,39.28L444.43,45.84L445.54,44.23L446.64,45.48L447.75,59.85L448.86,59.85L455.49,59.85L456.59,57.84L457.7,55.45L458.81,50.32L461.02,43.28L462.12,38.65L463.23,37.23L464.33,33.09L465.44,32.16L466.54,28.52L468.76,28.15L469.86,25.49L472.07,27.1L473.18,25.43L474.28,26.98L475.39,25.8L477.6,30.37L478.71,30.19L479.81,30L480.92,33.03L482.02,33.33L483.13,36.86L485.34,38.46L486.44,42.48L488.66,45.07L489.76,40.91L491.97,43.03L493.08,38.88L495.29,40.99L496.39,39.56L498.61,41.92L499.71,35.04L500.82,32.41L501.92,33.21L503.03,31.29L504.13,31.85L505.24,32.66L506.34,27.52L508.56,27.9L509.66,25.25L512.98,26.17L514.08,56.12L515.19,56.43L516.29,57.93L517.4,59.85L518.51,59.85L521.82,59.85L522.93,59.08L525.14,59.85L526.24,56.37L527.35,59.85L528.46,56.15L529.56,52.43L530.67,53.68L532.88,45.76L533.98,47.01L535.09,46.03L536.19,42.32L539.51,31.21L540.62,30.71L541.72,27.5L542.83,27.5L543.93,24.78L545.04,25.28L546.14,23.05L547.25,24.04L549.46,27.5L550.57,26.76L552.78,32.19L553.88,32.44L554.99,35.9L556.09,36.64L558.31,41.83L559.41,40.34L561.62,42.57L562.73,41.08L564.94,43.31L566.04,39.09L567.15,39.85L568.26,37.88L569.36,30.44L570.47,36.39L571.57,33.92L572.68,34.88L573.78,43.31L574.89,40.35L575.99,40.81L577.1,45.53L578.21,44.79L579.31,47.37L580.42,59.85L581.52,59.85L610.27,59.85L611.37,53.96L614.69,39.95L615.79,33.71L619.11,26.11L620.22,24.57L622.43,19.25L623.53,18.7L625.74,19.07L626.85,20L630.17,25.74L631.27,28.64L635.69,41.49L636.8,43.16L637.91,44.82L639.01,43.76L641.22,46.86L642.33,40.35L644.54,42.97L645.64,30.52L646.75,59.85L647.86,59.85L690.97,57.94L692.08,50.4L697.61,25.83L698.71,22.74L704.24,14.72L705.34,17.81L706.45,18.67L707.56,23.24L710.87,31.76L711.98,35.59L719.72,59.85L720.82,48.53L721.93,45.06L723.03,59.85L725.24,54.64L726.35,59.85L727.46,59.85L728.56,56.55L731.88,59.85L732.98,59.85L772.78,59.85L773.89,56.68L778.31,33.11L779.42,56.25L782.73,45.56L783.84,46.12L784.94,44.45L786.05,43.28L787.16,16.51L792.68,5.14L793.79,7.12L798.21,9.1L799.32,10.83L803.74,22.68L804.84,26.88L808.16,39.72L809.27,42.44L813.69,56.77L814.79,53.03L817.01,59.85L818.11,51.78L820.32,59.85L822.53,58.26L823.64,59.85L824.74,51.77L826.96,59.85L828.06,55.74L830.27,59.85L831.38,54.49L832.48,58.5L833.59,59.85L838.01,51.76L839.12,55.54L843.54,59.85L844.64,56.22L849.07,59.85L850.17,59.85L852.38,59.85L853.49,46.74L854.59,30.06L855.7,30.8L856.81,33.21L857.91,19.26L860.12,25.86L861.23,12.4L865.65,22.84L866.76,26.24L867.86,29.63L868.97,36.24L876.71,54.08L877.81,45.33L883.34,58.41L884.44,53.36L889.97,59.85L891.08,59.85L1025.96,59.85L1027.06,52L1029.27,58.75L1030.38,47.82L1032.59,57.27L1033.69,45.85L1035.91,54.55L1037.01,42.64L1039.22,50.35L1040.33,38.43L1042.54,42.69L1043.64,33.01L1045.86,39.73L1046.96,29.56L1049.17,35.53L1050.28,27.59L1052.49,32.81L1053.59,18.93L1055.81,22.68L1056.91,13.76L1059.12,17L1060.23,10.31L1062.44,12.8L1063.54,8.83L1073.49,3.64L1074.6,9.1L1083.44,6.84L1084.55,14.04L1096.71,10.55L1097.82,17.25L1103.34,16.95L1104.45,29.1L1106.66,24.35L1107.77,38.74L1109.98,36.45L1111.08,53.56L1113.29,48.51L1114.4,59.85L1116.61,59.85L1117.72,59.85L1215.01,57.02L1216.11,51.3L1217.22,56.03L1222.74,44.13L1223.85,48.13L1224.96,44.42L1229.38,36.22L1232.69,38.19L1233.8,49.61L1237.12,53.81L1239.33,46.1L1240.43,55.29L1242.64,47.58L1243.75,59.85L1248.17,59.85L1249.28,59.85L3781,59.85" style="vector-effect: non-scaling-stroke; fill: none; stroke: rgb(31, 119, 180); stroke-opacity: 1; stroke-width: 2px; opacity: 1;"/></g><g class="points"/><g class="text"/></g></g></g><g class="overplot"/><path class="xlines-above crisp" d="M0,0" style="fill: none;"/><path class="ylines-above crisp" d="M79.5,457V520" style="fill: none; stroke-width: 1px; stroke: rgb(68, 68, 68); stroke-opacity: 1;"/><g class="overlines-above"/><g class="xaxislayer-above"/><g class="yaxislayer-above"><path class="y2tick ticks crisp" d="M79,0h-5" transform="translate(0,516.85)" style="stroke: rgb(68, 68, 68); stroke-opacity: 1; stroke-width: 1px;"/><path class="y2tick ticks crisp" d="M79,0h-5" transform="translate(0,502.03)" style="stroke: rgb(68, 68, 68); stroke-opacity: 1; stroke-width: 1px;"/><path class="y2tick ticks crisp" d="M79,0h-5" transform="translate(0,487.21)" style="stroke: rgb(68, 68, 68); stroke-opacity: 1; stroke-width: 1px;"/><path class="y2tick ticks crisp" d="M79,0h-5" transform="translate(0,472.39)" style="stroke: rgb(68, 68, 68); stroke-opacity: 1; stroke-width: 1px;"/><path class="y2tick ticks crisp" d="M79,0h-5" transform="translate(0,457.57)" style="stroke: rgb(68, 68, 68); stroke-opacity: 1; stroke-width: 1px;"/><g class="y2tick"><text text-anchor="end" x="71.6" y="4.199999999999999" transform="translate(0,516.85)" style="font-family: 'Open Sans', verdana, arial, sans-serif; font-size: 12px; fill: rgb(68, 68, 68); fill-opacity: 1; white-space: pre;">0</text></g><g class="y2tick"><text text-anchor="end" x="71.6" y="4.199999999999999" transform="translate(0,502.03)" style="font-family: 'Open Sans', verdana, arial, sans-serif; font-size: 12px; fill: rgb(68, 68, 68); fill-opacity: 1; white-space: pre;">0.005</text></g><g class="y2tick"><text text-anchor="end" x="71.6" y="4.199999999999999" transform="translate(0,487.21)" style="font-family: 'Open Sans', verdana, arial, sans-serif; font-size: 12px; fill: rgb(68, 68, 68); fill-opacity: 1; white-space: pre;">0.01</text></g><g class="y2tick"><text text-anchor="end" x="71.6" y="4.199999999999999" transform="translate(0,472.39)" style="font-family: 'Open Sans', verdana, arial, sans-serif; font-size: 12px; fill: rgb(68, 68, 68); fill-opacity: 1; white-space: pre;">0.015</text></g><g class="y2tick"><text text-anchor="end" x="71.6" y="4.199999999999999" transform="translate(0,457.57)" style="font-family: 'Open Sans', verdana, arial, sans-serif; font-size: 12px; fill: rgb(68, 68, 68); fill-opacity: 1; white-space: pre;">0.02</text></g></g><g class="overaxes-above"/></g></g><g class="polarlayer"/><g class="ternarylayer"/><g class="geolayer"/><g class="pielayer"/><g class="glimages"/><defs id="topdefs-c85600"><g class="clips"/><clipPath id="legendc85600"><rect width="99" height="67" x="0" y="0"/></clipPath></defs><g class="layer-above"><g class="imagelayer"/><g class="shapelayer"/></g><g class="infolayer"><g class="legend" pointer-events="all" transform="translate(688.94, 100)"><rect class="bg" shape-rendering="crispEdges" width="99" height="67" x="0" y="0" style="stroke: rgb(68, 68, 68); stroke-opacity: 1; fill: rgb(255, 255, 255); fill-opacity: 1; stroke-width: 0px;"/><g class="scrollbox" transform="translate(0, 0)" clip-path="url(#legendc85600)"><g class="groups"><g class="traces" transform="translate(0, 14.5)" style="opacity: 1;"><g class="layers"><g class="legendfill"><path class="js-fill" d="M5,-2h30v6h-30z" style="stroke-width: 0; fill: rgb(68, 68, 68); fill-opacity: 0.3;"/></g><g class="legendlines"><path class="js-line" d="M5,-2h30" style="fill: none; stroke: rgb(214, 39, 40); stroke-opacity: 1; stroke-width: 2px;"/></g><g class="legendsymbols"><g class="legendpoints"/></g></g><text class="legendtext user-select-none" text-anchor="start" x="40" y="4.680000000000001" style="font-family: 'Open Sans', verdana, arial, sans-serif; font-size: 12px; fill: rgb(68, 68, 68); fill-opacity: 1; white-space: pre;">reference</text><rect class="legendtoggle" pointer-events="all" x="0" y="-9.5" width="139" height="19" style="cursor: pointer; fill: rgb(0, 0, 0); fill-opacity: 0;"/></g><g class="traces" transform="translate(0, 33.5)" style="opacity: 1;"><g class="layers" style="opacity: 1;"><g class="legendfill"/><g class="legendlines"><path class="js-line" d="M5,0h30" style="fill: none; stroke: rgb(255, 127, 14); stroke-opacity: 1; stroke-width: 2px;"/></g><g class="legendsymbols"><g class="legendpoints"/></g></g><text class="legendtext user-select-none" text-anchor="start" x="40" y="4.680000000000001" style="font-family: 'Open Sans', verdana, arial, sans-serif; font-size: 12px; fill: rgb(68, 68, 68); fill-opacity: 1; white-space: pre;">test</text><rect class="legendtoggle" pointer-events="all" x="0" y="-9.5" width="139" height="19" style="cursor: pointer; fill: rgb(0, 0, 0); fill-opacity: 0;"/></g><g class="traces" transform="translate(0, 52.5)" style="opacity: 1;"><g class="layers" style="opacity: 1;"><g class="legendfill"/><g class="legendlines"><path class="js-line" d="M5,0h30" style="fill: none; stroke: rgb(31, 119, 180); stroke-opacity: 1; stroke-width: 2px;"/></g><g class="legendsymbols"><g class="legendpoints"/></g></g><text class="legendtext user-select-none" text-anchor="start" x="40" y="4.680000000000001" style="font-family: 'Open Sans', verdana, arial, sans-serif; font-size: 12px; fill: rgb(68, 68, 68); fill-opacity: 1; white-space: pre;">error</text><rect class="legendtoggle" pointer-events="all" x="0" y="-9.5" width="139" height="19" style="cursor: pointer; fill: rgb(0, 0, 0); fill-opacity: 0;"/></g></g></g><rect class="scrollbar" rx="20" ry="3" width="0" height="0" x="0" y="0" style="fill: rgb(128, 139, 164); fill-opacity: 1;"/></g><g class="g-gtitle"/><g class="g-xtitle"><text class="xtitle" x="378.5" y="479.6" text-anchor="middle" style="font-family: 'Open Sans', verdana, arial, sans-serif; font-size: 14px; fill: rgb(68, 68, 68); opacity: 1; font-weight: normal; white-space: pre;">x</text></g><g class="g-ytitle"><text class="ytitle" transform="rotate(-90,42,263.8)" x="42" y="263.8" text-anchor="middle" style="font-family: 'Open Sans', verdana, arial, sans-serif; font-size: 14px; fill: rgb(68, 68, 68); opacity: 1; font-weight: normal; white-space: pre;">y</text></g><g class="g-y2title" transform="translate(-6.4375,0)"><text class="y2title" transform="rotate(-90,42,488.5)" x="42" y="488.5" text-anchor="middle" style="font-family: 'Open Sans', verdana, arial, sans-serif; font-size: 14px; fill: rgb(68, 68, 68); opacity: 1; font-weight: normal; white-space: pre;">error [y]</text></g></g></svg>